<svg width="1716" height="250" viewBox="0 0 1716 250" fill="none" xmlns="http://www.w3.org/2000/svg">
<path d="M0.963379 124.5V106.751C0.963379 101.647 1.92041 96.3401 3.83447 90.8299C5.80654 85.2617 8.47462 80.0125 11.8387 75.0824C15.2608 70.0942 19.089 65.8891 23.3231 62.467L37.9396 71.9503C34.5175 77.1124 31.6464 82.5066 29.3263 88.1328C27.0642 93.701 25.9622 99.8492 26.0202 106.577V124.5H0.963379ZM45.0738 124.5V106.751C45.0738 101.647 46.0308 96.3401 47.9449 90.8299C49.917 85.2617 52.5851 80.0125 55.9492 75.0824C59.3713 70.0942 63.1994 65.8891 67.4335 62.467L82.05 71.9503C78.6279 77.1124 75.7568 82.5066 73.4367 88.1328C71.1747 93.701 70.0726 99.8492 70.1306 106.577V124.5H45.0738Z" fill="#eeeeee"/>
<path d="M80.2795 247H45.8264L108.555 68.8182H148.403L211.219 247H176.766L129.175 105.359H127.783L80.2795 247ZM81.4106 177.137H175.374V203.064H81.4106V177.137Z" fill="#eeeeee"/>
<path d="M356.614 68.8182V247H327.903L243.945 125.631H242.466V247H210.188V68.8182H239.073L322.944 190.274H324.51V68.8182H356.614Z" fill="#eeeeee"/>
<path d="M486.652 125.718C485.202 121.02 483.201 116.815 480.649 113.103C478.155 109.332 475.139 106.113 471.601 103.445C468.121 100.777 464.119 98.7761 459.595 97.4421C455.07 96.0501 450.14 95.354 444.804 95.354C435.234 95.354 426.707 97.7611 419.225 102.575C411.743 107.389 405.856 114.466 401.564 123.804C397.329 133.084 395.212 144.395 395.212 157.735C395.212 171.192 397.329 182.589 401.564 191.927C405.798 201.265 411.685 208.371 419.225 213.243C426.765 218.057 435.524 220.464 445.5 220.464C454.548 220.464 462.379 218.724 468.991 215.244C475.661 211.764 480.794 206.834 484.39 200.453C487.986 194.015 489.785 186.475 489.785 177.833L497.093 178.964H448.719V153.733H521.018V175.136C521.018 190.39 517.77 203.586 511.274 214.722C504.778 225.858 495.846 234.443 484.477 240.475C473.109 246.449 460.059 249.436 445.326 249.436C428.912 249.436 414.498 245.753 402.086 238.387C389.731 230.962 380.074 220.435 373.114 206.805C366.211 193.116 362.76 176.876 362.76 158.083C362.76 143.699 364.79 130.851 368.851 119.541C372.969 108.23 378.711 98.6311 386.077 90.7429C393.443 82.7966 402.086 76.7644 412.004 72.6463C421.922 68.4702 432.711 66.3821 444.369 66.3821C454.229 66.3821 463.423 67.8321 471.949 70.7322C480.475 73.5743 488.044 77.6345 494.657 82.9126C501.327 88.1908 506.808 94.455 511.1 101.705C515.392 108.955 518.205 116.96 519.539 125.718H486.652Z" fill="#eeeeee"/>
<path d="M527.731 247V68.8182H643.619V95.8761H560.009V144.25H637.615V171.308H560.009V219.942H644.315V247H527.731Z" fill="#eeeeee"/>
<path d="M652.049 247V68.8182H684.327V219.942H762.804V247H652.049Z" fill="#eeeeee"/>
<path d="M798.597 68.8182V247H766.319V68.8182H798.597Z" fill="#eeeeee"/>
<path d="M961.566 128.937H929.027C928.099 123.601 926.388 118.874 923.894 114.756C921.4 110.58 918.297 107.041 914.585 104.141C910.872 101.241 906.638 99.0662 901.882 97.6161C897.184 96.1081 892.109 95.354 886.657 95.354C876.97 95.354 868.386 97.7901 860.904 102.662C853.422 107.476 847.563 114.553 843.329 123.891C839.095 133.171 836.978 144.511 836.978 157.909C836.978 171.54 839.095 183.024 843.329 192.362C847.621 201.643 853.48 208.661 860.904 213.417C868.386 218.115 876.941 220.464 886.57 220.464C891.906 220.464 896.894 219.768 901.534 218.376C906.232 216.926 910.437 214.809 914.15 212.025C917.92 209.241 921.081 205.819 923.633 201.759C926.243 197.698 928.041 193.058 929.027 187.838L961.566 188.012C960.348 196.48 957.709 204.427 953.649 211.851C949.647 219.275 944.398 225.829 937.901 231.513C931.405 237.14 923.807 241.548 915.107 244.738C906.406 247.87 896.749 249.436 886.135 249.436C870.474 249.436 856.496 245.811 844.199 238.561C831.903 231.31 822.217 220.841 815.14 207.153C808.064 193.464 804.526 177.05 804.526 157.909C804.526 138.71 808.093 122.296 815.227 108.665C822.362 94.977 832.077 84.5077 844.373 77.2574C856.67 70.0072 870.59 66.3821 886.135 66.3821C896.053 66.3821 905.275 67.7741 913.802 70.5582C922.328 73.3423 929.926 77.4315 936.596 82.8256C943.267 88.1618 948.748 94.716 953.04 102.488C957.39 110.203 960.232 119.019 961.566 128.937Z" fill="#eeeeee"/>
<path d="M1122.26 125.718C1120.81 121.02 1118.81 116.815 1116.26 113.103C1113.77 109.332 1110.75 106.113 1107.21 103.445C1103.73 100.777 1099.73 98.7761 1095.21 97.4421C1090.68 96.0501 1085.75 95.354 1080.42 95.354C1070.85 95.354 1062.32 97.7611 1054.84 102.575C1047.36 107.389 1041.47 114.466 1037.18 123.804C1032.94 133.084 1030.82 144.395 1030.82 157.735C1030.82 171.192 1032.94 182.589 1037.18 191.927C1041.41 201.265 1047.3 208.371 1054.84 213.243C1062.38 218.057 1071.14 220.464 1081.11 220.464C1090.16 220.464 1097.99 218.724 1104.6 215.244C1111.27 211.764 1116.41 206.834 1120 200.453C1123.6 194.015 1125.4 186.475 1125.4 177.833L1132.71 178.964H1084.33V153.733H1156.63V175.136C1156.63 190.39 1153.38 203.586 1146.89 214.722C1140.39 225.858 1131.46 234.443 1120.09 240.475C1108.72 246.449 1095.67 249.436 1080.94 249.436C1064.52 249.436 1050.11 245.753 1037.7 238.387C1025.34 230.962 1015.69 220.435 1008.73 206.805C1001.82 193.116 998.373 176.876 998.373 158.083C998.373 143.699 1000.4 130.851 1004.46 119.541C1008.58 108.23 1014.32 98.6311 1021.69 90.7429C1029.06 82.7966 1037.7 76.7644 1047.62 72.6463C1057.53 68.4702 1068.32 66.3821 1079.98 66.3821C1089.84 66.3821 1099.03 67.8321 1107.56 70.7322C1116.09 73.5743 1123.66 77.6345 1130.27 82.9126C1136.94 88.1908 1142.42 94.455 1146.71 101.705C1151 108.955 1153.82 116.96 1155.15 125.718H1122.26Z" fill="#eeeeee"/>
<path d="M1180.72 247H1146.27L1209 68.8182H1248.85L1311.66 247H1277.21L1229.62 105.359H1228.23L1180.72 247ZM1181.85 177.137H1275.82V203.064H1181.85V177.137Z" fill="#eeeeee"/>
<path d="M1342.91 68.8182V247H1310.63V68.8182H1342.91Z" fill="#eeeeee"/>
<path d="M1499.79 68.8182V247H1471.08L1387.12 125.631H1385.64V247H1353.36V68.8182H1382.25L1466.12 190.274H1467.68V68.8182H1499.79Z" fill="#eeeeee"/>
<path d="M1507.15 247V226.902L1598.51 95.8761H1506.63V68.8182H1638.53V88.9158L1547.26 219.942H1639.05V247H1507.15Z" fill="#eeeeee"/>
<path d="M1671.1 68.8182V86.5667C1671.1 91.6709 1670.11 96.9781 1668.14 102.488C1666.23 107.94 1663.59 113.161 1660.22 118.149C1656.86 123.079 1653.03 127.313 1648.74 130.851L1634.12 121.368C1637.31 116.554 1640.1 111.363 1642.48 105.794C1644.85 100.168 1646.04 93.817 1646.04 86.7408V68.8182H1671.1ZM1715.04 68.8182V86.5667C1715.04 91.6709 1714.05 96.9781 1712.08 102.488C1710.16 107.94 1707.53 113.161 1704.16 118.149C1700.8 123.079 1697 127.313 1692.76 130.851L1678.15 121.368C1681.28 116.554 1684.03 111.363 1686.41 105.794C1688.79 100.168 1689.98 93.817 1689.98 86.7408V68.8182H1715.04Z" fill="#eeeeee"/>
<path d="M888.366 71V1.90908H929.794V9.33096H896.733V32.6761H926.69V40.098H896.733V71H888.366Z" fill="#eeeeee"/>
<path d="M947.265 1.90908V71H938.898V1.90908H947.265Z" fill="#eeeeee"/>
<path d="M955.036 9.33096V1.90908H1006.85V9.33096H985.129V71H976.762V9.33096H955.036Z" fill="#eeeeee"/>
<path d="M1069.33 1.90908V71H1061.23L1023.58 16.7528H1022.91V71H1014.54V1.90908H1022.64L1060.42 56.2912H1061.1V1.90908H1069.33Z" fill="#eeeeee"/>
<path d="M1080.85 71V1.90908H1122.54V9.33096H1089.21V32.6761H1120.38V40.098H1089.21V63.5781H1123.08V71H1080.85Z" fill="#eeeeee"/>
<path d="M1170.18 19.1818C1169.78 15.7632 1168.14 13.1094 1165.26 11.2202C1162.38 9.33095 1158.85 8.38635 1154.66 8.38635C1151.6 8.38635 1148.93 8.88114 1146.63 9.87073C1144.36 10.8603 1142.59 12.221 1141.3 13.9528C1140.04 15.6845 1139.41 17.6525 1139.41 19.8565C1139.41 21.7007 1139.85 23.2863 1140.73 24.6133C1141.63 25.9177 1142.78 27.0085 1144.17 27.8856C1145.57 28.7403 1147.03 29.4487 1148.56 30.011C1150.09 30.5508 1151.49 30.9893 1152.77 31.3267L1159.79 33.2159C1161.59 33.6882 1163.59 34.3404 1165.8 35.1726C1168.02 36.0047 1170.15 37.1405 1172.17 38.5799C1174.22 39.9968 1175.91 41.8185 1177.23 44.0451C1178.56 46.2717 1179.22 49.0043 1179.22 52.2429C1179.22 55.9763 1178.24 59.3499 1176.29 62.3636C1174.35 65.3774 1171.52 67.7726 1167.79 69.5494C1164.08 71.3261 1159.57 72.2145 1154.26 72.2145C1149.31 72.2145 1145.03 71.4161 1141.41 69.8192C1137.81 68.2224 1134.97 65.9959 1132.9 63.1396C1130.86 60.2833 1129.7 56.9659 1129.43 53.1875H1138.07C1138.29 55.7964 1139.17 57.9555 1140.7 59.6648C1142.25 61.3516 1144.21 62.611 1146.57 63.4432C1148.95 64.2528 1151.51 64.6577 1154.26 64.6577C1157.45 64.6577 1160.32 64.1404 1162.86 63.1058C1165.4 62.0488 1167.42 60.5869 1168.9 58.7202C1170.38 56.831 1171.13 54.6269 1171.13 52.1079C1171.13 49.8139 1170.49 47.9472 1169.2 46.5078C1167.92 45.0684 1166.23 43.8989 1164.14 42.9993C1162.05 42.0997 1159.79 41.3125 1157.36 40.6378L1148.86 38.2088C1143.46 36.657 1139.19 34.4416 1136.04 31.5628C1132.89 28.6841 1131.32 24.9169 1131.32 20.2614C1131.32 16.393 1132.36 13.0194 1134.46 10.1406C1136.57 7.23934 1139.4 4.99028 1142.96 3.39346C1146.53 1.77414 1150.53 0.964478 1154.93 0.964478C1159.39 0.964478 1163.34 1.76289 1166.81 3.35972C1170.27 4.93405 1173.02 7.09314 1175.04 9.83699C1177.09 12.5808 1178.17 15.6958 1178.28 19.1818H1170.18Z" fill="#eeeeee"/>
<path d="M1225.54 19.1818C1225.13 15.7632 1223.49 13.1094 1220.61 11.2202C1217.73 9.33095 1214.2 8.38635 1210.02 8.38635C1206.96 8.38635 1204.28 8.88114 1201.99 9.87073C1199.72 10.8603 1197.94 12.221 1196.66 13.9528C1195.4 15.6845 1194.77 17.6525 1194.77 19.8565C1194.77 21.7007 1195.21 23.2863 1196.09 24.6133C1196.99 25.9177 1198.13 27.0085 1199.53 27.8856C1200.92 28.7403 1202.38 29.4487 1203.91 30.011C1205.44 30.5508 1206.85 30.9893 1208.13 31.3267L1215.15 33.2159C1216.95 33.6882 1218.95 34.3404 1221.15 35.1726C1223.38 36.0047 1225.5 37.1405 1227.53 38.5799C1229.57 39.9968 1231.26 41.8185 1232.59 44.0451C1233.92 46.2717 1234.58 49.0043 1234.58 52.2429C1234.58 55.9763 1233.6 59.3499 1231.64 62.3636C1229.71 65.3774 1226.88 67.7726 1223.14 69.5494C1219.43 71.3261 1214.92 72.2145 1209.61 72.2145C1204.67 72.2145 1200.38 71.4161 1196.76 69.8192C1193.16 68.2224 1190.33 65.9959 1188.26 63.1396C1186.21 60.2833 1185.05 56.9659 1184.79 53.1875H1193.42C1193.65 55.7964 1194.52 57.9555 1196.05 59.6648C1197.6 61.3516 1199.56 62.611 1201.92 63.4432C1204.31 64.2528 1206.87 64.6577 1209.61 64.6577C1212.81 64.6577 1215.68 64.1404 1218.22 63.1058C1220.76 62.0488 1222.77 60.5869 1224.26 58.7202C1225.74 56.831 1226.48 54.6269 1226.48 52.1079C1226.48 49.8139 1225.84 47.9472 1224.56 46.5078C1223.28 45.0684 1221.59 43.8989 1219.5 42.9993C1217.41 42.0997 1215.15 41.3125 1212.72 40.6378L1204.22 38.2088C1198.82 36.657 1194.55 34.4416 1191.4 31.5628C1188.25 28.6841 1186.67 24.9169 1186.67 20.2614C1186.67 16.393 1187.72 13.0194 1189.81 10.1406C1191.93 7.23934 1194.76 4.99028 1198.31 3.39346C1201.89 1.77414 1205.88 0.964478 1210.29 0.964478C1214.74 0.964478 1218.7 1.76289 1222.16 3.35972C1225.63 4.93405 1228.37 7.09314 1230.4 9.83699C1232.44 12.5808 1233.52 15.6958 1233.63 19.1818H1225.54Z" fill="#eeeeee"/>
<path d="M1320.2 23.5H1311.83C1311.34 21.0935 1310.47 18.9794 1309.24 17.1577C1308.02 15.3359 1306.54 13.8066 1304.78 12.5696C1303.05 11.3101 1301.13 10.3655 1299.01 9.73579C1296.9 9.10605 1294.7 8.79118 1292.4 8.79118C1288.22 8.79118 1284.43 9.84824 1281.03 11.9623C1277.66 14.0765 1274.97 17.1914 1272.97 21.3072C1270.99 25.4229 1270 30.4721 1270 36.4545C1270 42.437 1270.99 47.4861 1272.97 51.6019C1274.97 55.7177 1277.66 58.8326 1281.03 60.9467C1284.43 63.0608 1288.22 64.1179 1292.4 64.1179C1294.7 64.1179 1296.9 63.803 1299.01 63.1733C1301.13 62.5436 1303.05 61.6102 1304.78 60.3732C1306.54 59.1137 1308.02 57.5731 1309.24 55.7514C1310.47 53.9072 1311.34 51.7931 1311.83 49.4091H1320.2C1319.57 52.9401 1318.42 56.1 1316.76 58.8888C1315.09 61.6777 1313.03 64.0504 1310.55 66.0071C1308.08 67.9413 1305.3 69.4144 1302.22 70.4265C1299.16 71.4386 1295.89 71.9446 1292.4 71.9446C1286.51 71.9446 1281.27 70.5052 1276.68 67.6264C1272.09 64.7476 1268.48 60.6543 1265.85 55.3466C1263.22 50.0388 1261.9 43.7415 1261.9 36.4545C1261.9 29.1676 1263.22 22.8703 1265.85 17.5625C1268.48 12.2547 1272.09 8.16145 1276.68 5.28266C1281.27 2.40387 1286.51 0.964478 1292.4 0.964478C1295.89 0.964478 1299.16 1.47051 1302.22 2.48259C1305.3 3.49466 1308.08 4.97904 1310.55 6.93571C1313.03 8.8699 1315.09 11.2314 1316.76 14.0202C1318.42 16.7866 1319.57 19.9465 1320.2 23.5Z" fill="#eeeeee"/>
<path d="M1328.49 71V1.90908H1336.86V63.5781H1368.98V71H1328.49Z" fill="#eeeeee"/>
<path d="M1422.05 1.90908H1430.41V47.6548C1430.41 52.3778 1429.3 56.5948 1427.07 60.3057C1424.87 63.9942 1421.76 66.9067 1417.73 69.0433C1413.7 71.1574 1408.98 72.2145 1403.56 72.2145C1398.14 72.2145 1393.42 71.1574 1389.39 69.0433C1385.37 66.9067 1382.24 63.9942 1380.01 60.3057C1377.81 56.5948 1376.71 52.3778 1376.71 47.6548V1.90908H1385.07V46.9801C1385.07 50.3537 1385.82 53.3562 1387.3 55.9876C1388.78 58.5965 1390.9 60.6543 1393.64 62.1612C1396.41 63.6456 1399.72 64.3878 1403.56 64.3878C1407.41 64.3878 1410.71 63.6456 1413.48 62.1612C1416.25 60.6543 1418.36 58.5965 1419.82 55.9876C1421.31 53.3562 1422.05 50.3537 1422.05 46.9801V1.90908Z" fill="#eeeeee"/>
<path d="M1441.9 71V1.90908H1466.05C1470.87 1.90908 1474.83 2.74123 1477.96 4.40553C1481.09 6.04734 1483.41 8.26265 1484.94 11.0515C1486.47 13.8178 1487.24 16.8878 1487.24 20.2614C1487.24 23.2301 1486.71 25.6816 1485.65 27.6158C1484.62 29.5499 1483.25 31.0793 1481.54 32.2038C1479.85 33.3284 1478.02 34.1605 1476.04 34.7003V35.375C1478.15 35.5099 1480.28 36.2521 1482.41 37.6016C1484.55 38.951 1486.34 40.8852 1487.78 43.4041C1489.22 45.923 1489.94 49.0042 1489.94 52.6477C1489.94 56.1113 1489.15 59.2262 1487.58 61.9925C1486 64.7589 1483.52 66.9517 1480.12 68.571C1476.72 70.1903 1472.3 71 1466.86 71H1441.9ZM1450.26 63.5781H1466.86C1472.33 63.5781 1476.21 62.5211 1478.5 60.407C1480.82 58.2704 1481.98 55.6839 1481.98 52.6477C1481.98 50.3087 1481.38 48.1496 1480.19 46.1704C1479 44.1688 1477.3 42.572 1475.09 41.38C1472.89 40.1655 1470.28 39.5582 1467.27 39.5582H1450.26V63.5781ZM1450.26 32.2713H1465.78C1468.3 32.2713 1470.57 31.7765 1472.6 30.7869C1474.64 29.7973 1476.26 28.4029 1477.45 26.6037C1478.67 24.8044 1479.28 22.6903 1479.28 20.2614C1479.28 17.2251 1478.22 14.65 1476.11 12.5359C1473.99 10.3993 1470.64 9.33096 1466.05 9.33096H1450.26V32.2713Z" fill="#eeeeee"/>
</svg>
