<svg width="17" height="84" viewBox="0 0 17 84" fill="none" xmlns="http://www.w3.org/2000/svg">
<path d="M15 81.642V83.4886L0.454545 78.1477L0.454545 76.3295L15 70.9886V72.8352L2.75568 77.1818V77.2955L15 81.642ZM9.31818 80.9602V73.517H10.8807V80.9602H9.31818ZM4.09091 60.7685C3.37121 60.8537 2.8125 61.1993 2.41477 61.8054C2.01705 62.4115 1.81818 63.1548 1.81818 64.0355C1.81818 64.6795 1.92235 65.2429 2.13068 65.7259C2.33901 66.2041 2.62547 66.5781 2.99006 66.848C3.35464 67.1132 3.76894 67.2457 4.23295 67.2457C4.62121 67.2457 4.95502 67.1534 5.23438 66.9688C5.509 66.7794 5.73864 66.5379 5.9233 66.2443C6.10322 65.9508 6.25237 65.643 6.37074 65.321C6.48437 64.9991 6.5767 64.7031 6.64773 64.4332L7.04545 62.956C7.14489 62.5772 7.2822 62.1558 7.45739 61.6918C7.63258 61.223 7.87169 60.7756 8.17472 60.3494C8.47301 59.9186 8.85653 59.5634 9.32528 59.2841C9.79403 59.0047 10.3693 58.8651 11.0511 58.8651C11.8371 58.8651 12.5473 59.071 13.1818 59.483C13.8163 59.8902 14.3205 60.4867 14.6946 61.2727C15.0687 62.054 15.2557 63.0033 15.2557 64.1207C15.2557 65.1624 15.0876 66.0644 14.7514 66.8267C14.4152 67.5843 13.9465 68.1809 13.3452 68.6165C12.7438 69.0473 12.0455 69.2912 11.25 69.348V67.5298C11.7992 67.4825 12.2538 67.2978 12.6136 66.9759C12.9687 66.6491 13.2339 66.2372 13.4091 65.7401C13.5795 65.2382 13.6648 64.6984 13.6648 64.1207C13.6648 63.4484 13.5559 62.8447 13.3381 62.3097C13.1155 61.7746 12.8078 61.3509 12.4148 61.0384C12.017 60.7259 11.553 60.5696 11.0227 60.5696C10.5398 60.5696 10.1468 60.7045 9.84375 60.9744C9.54072 61.2443 9.29451 61.5994 9.10511 62.0398C8.91572 62.4801 8.75 62.956 8.60795 63.4673L8.09659 65.2571C7.76989 66.3935 7.3035 67.2931 6.69744 67.956C6.09138 68.6188 5.2983 68.9503 4.31818 68.9503C3.50379 68.9503 2.79356 68.7301 2.1875 68.2898C1.5767 67.8447 1.10322 67.2481 0.767045 66.5C0.426136 65.7472 0.255681 64.9067 0.255681 63.9787C0.255681 63.0412 0.423768 62.2079 0.759943 61.4787C1.09138 60.7495 1.54593 60.1719 2.12358 59.7457C2.70123 59.3149 3.35701 59.0876 4.09091 59.0639V60.7685ZM15 48.668H16.5625L16.5625 57.7589H15L15 48.668ZM15.1989 43.185C15.1989 44.1225 15.0379 44.9582 14.7159 45.6921C14.3939 46.4213 13.9465 47.0013 13.3736 47.4322C12.7959 47.8583 12.1259 48.0903 11.3636 48.1282V46.3384C11.8324 46.3005 12.2372 46.1396 12.5781 45.8555C12.9143 45.5714 13.1747 45.1997 13.3594 44.7404C13.544 44.2811 13.6364 43.7721 13.6364 43.2134C13.6364 42.5884 13.5275 42.0344 13.3097 41.5515C13.0919 41.0685 12.7888 40.6897 12.4006 40.4151C12.0123 40.1405 11.5625 40.0032 11.0511 40.0032C10.5161 40.0032 10.045 40.1358 9.63778 40.4009C9.22585 40.6661 8.90388 41.0543 8.67188 41.5657C8.43987 42.0771 8.32386 42.7021 8.32386 43.4407V44.6055H6.76136V43.4407C6.76136 42.863 6.6572 42.3564 6.44886 41.9208C6.24053 41.4805 5.94697 41.1372 5.56818 40.891C5.18939 40.64 4.74432 40.5146 4.23295 40.5146C3.74053 40.5146 3.31203 40.6235 2.94744 40.8413C2.58286 41.0591 2.29877 41.3668 2.09517 41.7646C1.89157 42.1576 1.78977 42.6216 1.78977 43.1566C1.78977 43.6585 1.8821 44.132 2.06676 44.5771C2.24669 45.0174 2.50947 45.3772 2.85511 45.6566C3.19602 45.936 3.60795 46.0875 4.09091 46.1112V47.8157C3.3286 47.7873 2.66098 47.5576 2.08807 47.1268C1.51042 46.6959 1.06061 46.1325 0.738636 45.4364C0.416666 44.7357 0.255681 43.9663 0.255681 43.1282C0.255681 42.2286 0.437973 41.4568 0.802556 40.8129C1.1624 40.1689 1.63826 39.6741 2.23011 39.3285C2.82197 38.9828 3.46117 38.81 4.14773 38.81C4.96686 38.81 5.66525 39.0254 6.2429 39.4563C6.82055 39.8825 7.22064 40.4625 7.44318 41.1964H7.55682C7.70833 40.2778 8.09896 39.5605 8.72869 39.0444C9.35369 38.5283 10.1278 38.2702 11.0511 38.2702C11.8419 38.2702 12.5521 38.4857 13.1818 38.9165C13.8068 39.3427 14.2992 39.9251 14.6591 40.6637C15.0189 41.4023 15.1989 42.2428 15.1989 43.185ZM15.1989 30.6211C15.1989 31.6912 14.9077 32.6026 14.3253 33.3555C13.7382 34.1083 12.8883 34.6836 11.7756 35.0813C10.6581 35.479 9.30871 35.6779 7.72727 35.6779C6.1553 35.6779 4.81297 35.479 3.70028 35.0813C2.58286 34.6789 1.73059 34.1012 1.14347 33.3484C0.551609 32.5908 0.255681 31.6817 0.255681 30.6211C0.255681 29.5605 0.551609 28.6538 1.14347 27.9009C1.73059 27.1433 2.58286 26.5657 3.70028 26.168C4.81297 25.7655 6.1553 25.5643 7.72727 25.5643C9.30871 25.5643 10.6581 25.7631 11.7756 26.1609C12.8883 26.5586 13.7382 27.1339 14.3253 27.8867C14.9077 28.6396 15.1989 29.551 15.1989 30.6211ZM13.6364 30.6211C13.6364 29.5605 13.125 28.7366 12.1023 28.1495C11.0795 27.5624 9.62121 27.2688 7.72727 27.2688C6.4678 27.2688 5.39536 27.4038 4.50994 27.6737C3.62453 27.9388 2.94981 28.3223 2.4858 28.8242C2.02178 29.3214 1.78977 29.9203 1.78977 30.6211C1.78977 31.6722 2.30824 32.4937 3.34517 33.0856C4.37737 33.6774 5.83807 33.9734 7.72727 33.9734C8.98674 33.9734 10.0568 33.8408 10.9375 33.5756C11.8182 33.3105 12.4882 32.9293 12.9474 32.4322C13.4067 31.9303 13.6364 31.3266 13.6364 30.6211ZM0.255681 18.2347C0.260416 17.6381 0.374053 17.0415 0.59659 16.445C0.819128 15.8484 1.18845 15.3039 1.70455 14.8114C2.21591 14.319 2.9143 13.9237 3.79972 13.6254C4.68513 13.3271 5.79545 13.1779 7.13068 13.1779C8.4233 13.1779 9.5715 13.301 10.5753 13.5472C11.5743 13.7887 12.4171 14.1391 13.1037 14.5984C13.7902 15.0529 14.3111 15.6069 14.6662 16.2603C15.0213 16.909 15.1989 17.6429 15.1989 18.462C15.1989 19.2764 15.0379 20.0032 14.7159 20.6424C14.3892 21.2769 13.937 21.7977 13.3594 22.2049C12.777 22.6074 12.1023 22.8654 11.3352 22.979V21.2461C12.0028 21.0898 12.5545 20.7797 12.9901 20.3157C13.4209 19.8469 13.6364 19.229 13.6364 18.462C13.6364 17.3398 13.1463 16.4544 12.1662 15.8058C11.1861 15.1523 9.80114 14.8256 8.01136 14.8256V14.9393C8.40909 15.2044 8.75237 15.5193 9.04119 15.8839C9.33002 16.2485 9.55256 16.6533 9.70881 17.0984C9.86506 17.5434 9.94318 18.0169 9.94318 18.5188C9.94318 19.3522 9.73722 20.1168 9.32528 20.8129C8.90862 21.5041 8.33807 22.0581 7.61364 22.4748C6.88447 22.8867 6.05114 23.0927 5.11364 23.0927C4.22348 23.0927 3.40909 22.8938 2.67045 22.4961C1.92708 22.0936 1.33523 21.5302 0.894886 20.8058C0.454545 20.0766 0.241477 19.2196 0.255681 18.2347ZM1.81818 18.2347C1.81818 18.8313 1.96733 19.3687 2.26563 19.8469C2.55919 20.3204 2.95691 20.6969 3.45881 20.9762C3.95597 21.2508 4.50758 21.3881 5.11364 21.3881C5.7197 21.3881 6.27131 21.2556 6.76847 20.9904C7.26089 20.7205 7.65388 20.3536 7.94744 19.8896C8.23627 19.4208 8.38068 18.8881 8.38068 18.2915C8.38068 17.8417 8.29309 17.4227 8.1179 17.0344C7.93797 16.6462 7.69413 16.3076 7.38636 16.0188C7.07386 15.7253 6.72112 15.4956 6.32813 15.3299C5.9304 15.1642 5.5161 15.0813 5.08523 15.0813C4.51704 15.0813 3.98437 15.2186 3.48722 15.4933C2.99006 15.7631 2.58759 16.1372 2.27983 16.6154C1.97206 17.0889 1.81818 17.6287 1.81818 18.2347ZM15.1989 5.72585C15.1989 6.70123 15.026 7.56297 14.6804 8.31108C14.33 9.05445 13.8494 9.63447 13.2386 10.0511C12.6231 10.4678 11.9223 10.6738 11.1364 10.669C10.5208 10.6738 9.95265 10.553 9.43182 10.3068C8.90625 10.0606 8.46828 9.72443 8.1179 9.2983C7.76278 8.86742 7.53788 8.38684 7.44318 7.85653H7.35795C7.17803 8.55256 6.78741 9.10653 6.18608 9.51847C5.58002 9.9304 4.8911 10.134 4.11932 10.1293C3.38068 10.134 2.72017 9.94697 2.13778 9.56818C1.5554 9.18939 1.09612 8.66856 0.759943 8.00568C0.423768 7.33807 0.255681 6.57812 0.255681 5.72585C0.255681 4.88305 0.423768 4.13021 0.759943 3.46733C1.09612 2.80445 1.5554 2.28362 2.13778 1.90483C2.72017 1.52131 3.38068 1.32718 4.11932 1.32244C4.8911 1.32718 5.58002 1.53788 6.18608 1.95455C6.78741 2.36648 7.17803 2.91335 7.35795 3.59517H7.44318C7.53788 3.0696 7.76278 2.59612 8.1179 2.17472C8.46828 1.75331 8.90625 1.41714 9.43182 1.16619C9.95265 0.915246 10.5208 0.787405 11.1364 0.78267C11.9223 0.787405 12.6231 1.00047 13.2386 1.42188C13.8494 1.83854 14.33 2.41856 14.6804 3.16193C15.026 3.90057 15.1989 4.75521 15.1989 5.72585ZM13.6364 5.72585C13.6364 5.06771 13.5298 4.49953 13.3168 4.02131C13.1037 3.54309 12.803 3.17377 12.4148 2.91335C12.0265 2.65294 11.572 2.52036 11.0511 2.51562C10.5019 2.52036 10.0166 2.66241 9.59517 2.94176C9.17377 3.22112 8.84233 3.60227 8.60085 4.08523C8.35937 4.56345 8.23864 5.11032 8.23864 5.72585C8.23864 6.34612 8.35937 6.90009 8.60085 7.38778C8.84233 7.87074 9.17377 8.25189 9.59517 8.53125C10.0166 8.80587 10.5019 8.94081 11.0511 8.93608C11.572 8.94081 12.0265 8.81534 12.4148 8.55966C12.803 8.29924 13.1037 7.92756 13.3168 7.4446C13.5298 6.96165 13.6364 6.38873 13.6364 5.72585ZM6.73295 5.72585C6.73295 5.20502 6.62879 4.74337 6.42045 4.34091C6.21212 3.93371 5.92093 3.61411 5.54688 3.3821C5.17282 3.15009 4.73485 3.03172 4.23295 3.02699C3.74053 3.03172 3.31203 3.14773 2.94744 3.375C2.57812 3.60227 2.29403 3.91714 2.09517 4.3196C1.89157 4.72206 1.78977 5.19081 1.78977 5.72585C1.78977 6.27036 1.89157 6.74621 2.09517 7.15341C2.29403 7.56061 2.57812 7.87547 2.94744 8.09801C3.31203 8.32055 3.74053 8.42945 4.23295 8.42472C4.73485 8.42945 5.17282 8.31818 5.54688 8.09091C5.92093 7.8589 6.21212 7.5393 6.42045 7.1321C6.62879 6.72491 6.73295 6.25616 6.73295 5.72585Z" fill="white"/>
</svg>
