<svg width="17" height="83" viewBox="0 0 17 83" fill="none" xmlns="http://www.w3.org/2000/svg">
<path d="M15 80.642V82.4886L0.454545 77.1477L0.454545 75.3295L15 69.9886V71.8352L2.75568 76.1818V76.2955L15 80.642ZM9.31818 79.9602V72.517H10.8807V79.9602H9.31818ZM4.09091 59.7685C3.37121 59.8537 2.8125 60.1993 2.41477 60.8054C2.01705 61.4115 1.81818 62.1548 1.81818 63.0355C1.81818 63.6795 1.92235 64.2429 2.13068 64.7259C2.33901 65.2041 2.62547 65.5781 2.99006 65.848C3.35464 66.1132 3.76894 66.2457 4.23295 66.2457C4.62121 66.2457 4.95502 66.1534 5.23438 65.9688C5.509 65.7794 5.73864 65.5379 5.9233 65.2443C6.10322 64.9508 6.25237 64.643 6.37074 64.321C6.48437 63.9991 6.5767 63.7031 6.64773 63.4332L7.04545 61.956C7.14489 61.5772 7.2822 61.1558 7.45739 60.6918C7.63258 60.223 7.87169 59.7756 8.17472 59.3494C8.47301 58.9186 8.85653 58.5634 9.32528 58.2841C9.79403 58.0047 10.3693 57.8651 11.0511 57.8651C11.8371 57.8651 12.5473 58.071 13.1818 58.483C13.8163 58.8902 14.3205 59.4867 14.6946 60.2727C15.0687 61.054 15.2557 62.0033 15.2557 63.1207C15.2557 64.1624 15.0876 65.0644 14.7514 65.8267C14.4152 66.5843 13.9465 67.1809 13.3452 67.6165C12.7438 68.0473 12.0455 68.2912 11.25 68.348V66.5298C11.7992 66.4825 12.2538 66.2978 12.6136 65.9759C12.9687 65.6491 13.2339 65.2372 13.4091 64.7401C13.5795 64.2382 13.6648 63.6984 13.6648 63.1207C13.6648 62.4484 13.5559 61.8447 13.3381 61.3097C13.1155 60.7746 12.8078 60.3509 12.4148 60.0384C12.017 59.7259 11.553 59.5696 11.0227 59.5696C10.5398 59.5696 10.1468 59.7045 9.84375 59.9744C9.54072 60.2443 9.29451 60.5994 9.10511 61.0398C8.91572 61.4801 8.75 61.956 8.60795 62.4673L8.09659 64.2571C7.76989 65.3935 7.3035 66.2931 6.69744 66.956C6.09138 67.6188 5.2983 67.9503 4.31818 67.9503C3.50379 67.9503 2.79356 67.7301 2.1875 67.2898C1.5767 66.8447 1.10322 66.2481 0.767045 65.5C0.426136 64.7472 0.255681 63.9067 0.255681 62.9787C0.255681 62.0412 0.423768 61.2079 0.759943 60.4787C1.09138 59.7495 1.54593 59.1719 2.12358 58.7457C2.70123 58.3149 3.35701 58.0876 4.09091 58.0639V59.7685ZM15 47.668H16.5625L16.5625 56.7589H15L15 47.668ZM12.017 47.6555H10.5682L0.454545 41.2635V40.2124H2.69886V40.9226L10.3409 45.7521H10.4545L10.4545 37.1442H12.017V47.6555ZM15 40.8089H11.5767H10.902H0.454545V39.1328H15V40.8089ZM15.1989 29.7383C15.1989 30.8084 14.9077 31.7198 14.3253 32.4727C13.7382 33.2255 12.8883 33.8008 11.7756 34.1985C10.6581 34.5962 9.30871 34.7951 7.72727 34.7951C6.1553 34.7951 4.81297 34.5962 3.70028 34.1985C2.58286 33.796 1.73059 33.2184 1.14347 32.4656C0.551609 31.708 0.255681 30.7989 0.255681 29.7383C0.255681 28.6777 0.551609 27.771 1.14347 27.0181C1.73059 26.2605 2.58286 25.6829 3.70028 25.2852C4.81297 24.8827 6.1553 24.6815 7.72727 24.6815C9.30871 24.6815 10.6581 24.8803 11.7756 25.2781C12.8883 25.6758 13.7382 26.2511 14.3253 27.0039C14.9077 27.7567 15.1989 28.6682 15.1989 29.7383ZM13.6364 29.7383C13.6364 28.6777 13.125 27.8538 12.1023 27.2667C11.0795 26.6796 9.62121 26.386 7.72727 26.386C6.4678 26.386 5.39536 26.521 4.50994 26.7908C3.62453 27.056 2.94981 27.4395 2.4858 27.9414C2.02178 28.4386 1.78977 29.0375 1.78977 29.7383C1.78977 30.7894 2.30824 31.6109 3.34517 32.2028C4.37737 32.7946 5.83807 33.0906 7.72727 33.0906C8.98674 33.0906 10.0568 32.958 10.9375 32.6928C11.8182 32.4277 12.4882 32.0465 12.9474 31.5494C13.4067 31.0475 13.6364 30.4438 13.6364 29.7383ZM15 21.9826H13.7216L8.46591 17.1815C7.85038 16.618 7.31534 16.154 6.8608 15.7894C6.40152 15.4248 5.97064 15.1549 5.56818 14.9798C5.16098 14.7998 4.73485 14.7099 4.28977 14.7099C3.77841 14.7099 3.3357 14.833 2.96165 15.0792C2.58759 15.3207 2.29877 15.6521 2.09517 16.0735C1.89157 16.4949 1.78977 16.9684 1.78977 17.494C1.78977 18.0527 1.90578 18.5404 2.13778 18.957C2.36506 19.369 2.68466 19.6886 3.09659 19.9158C3.50852 20.1384 3.99148 20.2496 4.54545 20.2496V21.9258C3.69318 21.9258 2.94508 21.7293 2.30114 21.3363C1.6572 20.9433 1.1553 20.4083 0.795454 19.7312C0.435605 19.0494 0.255681 18.2847 0.255681 17.4371C0.255681 16.5849 0.435605 15.8297 0.795454 15.1715C1.1553 14.5134 1.64062 13.9973 2.25142 13.6232C2.86222 13.2492 3.54167 13.0621 4.28977 13.0621C4.82481 13.0621 5.34801 13.1592 5.85938 13.3533C6.366 13.5427 6.93182 13.8742 7.55682 14.3477C8.17708 14.8164 8.93466 15.4674 9.82955 16.3008L13.3239 19.5678H13.4375V12.8065H15V21.9826ZM0.255681 5.24254C0.260416 4.64595 0.374053 4.04936 0.59659 3.45277C0.819128 2.85618 1.18845 2.31167 1.70455 1.81925C2.21591 1.32682 2.9143 0.931463 3.79972 0.633168C4.68513 0.334872 5.79545 0.185724 7.13068 0.185724C8.4233 0.185724 9.5715 0.30883 10.5753 0.555043C11.5743 0.79652 12.4171 1.1469 13.1037 1.60618C13.7902 2.06072 14.3111 2.6147 14.6662 3.26811C15.0213 3.91678 15.1989 4.65069 15.1989 5.46982C15.1989 6.28421 15.0379 7.01101 14.7159 7.65021C14.3892 8.28468 13.937 8.80552 13.3594 9.21271C12.777 9.61518 12.1023 9.87322 11.3352 9.98686V8.25391C12.0028 8.09766 12.5545 7.78752 12.9901 7.32351C13.4209 6.85476 13.6364 6.23686 13.6364 5.46982C13.6364 4.34766 13.1463 3.46224 12.1662 2.81357C11.1861 2.16016 9.80114 1.83345 8.01136 1.83345V1.94709C8.40909 2.21224 8.75237 2.52711 9.04119 2.89169C9.33002 3.25627 9.55256 3.6611 9.70881 4.10618C9.86506 4.55125 9.94318 5.02474 9.94318 5.52663C9.94318 6.35997 9.73722 7.12464 9.32528 7.82067C8.90862 8.51196 8.33807 9.06593 7.61364 9.4826C6.88447 9.89453 6.05114 10.1005 5.11364 10.1005C4.22348 10.1005 3.40909 9.90163 2.67045 9.50391C1.92708 9.10144 1.33523 8.538 0.894886 7.81357C0.454545 7.0844 0.241477 6.22739 0.255681 5.24254ZM1.81818 5.24254C1.81818 5.83913 1.96733 6.37654 2.26563 6.85476C2.55919 7.32824 2.95691 7.70466 3.45881 7.98402C3.95597 8.25864 4.50758 8.39595 5.11364 8.39595C5.7197 8.39595 6.27131 8.26338 6.76847 7.99822C7.26089 7.72834 7.65388 7.36139 7.94744 6.89737C8.23627 6.42862 8.38068 5.89595 8.38068 5.29936C8.38068 4.84955 8.29309 4.43052 8.1179 4.04226C7.93797 3.654 7.69413 3.31546 7.38636 3.02663C7.07386 2.73307 6.72112 2.50343 6.32813 2.33771C5.9304 2.17199 5.5161 2.08913 5.08523 2.08913C4.51704 2.08913 3.98437 2.22644 3.48722 2.50107C2.99006 2.77095 2.58759 3.145 2.27983 3.62322C1.97206 4.09671 1.81818 4.63648 1.81818 5.24254Z" fill="white"/>
</svg>
