<svg width="1806" height="334" viewBox="0 0 1806 334" fill="none" xmlns="http://www.w3.org/2000/svg">
<g clip-path="url(#clip0_101_3)">
<path d="M1.0483 149V122.92C1.0483 115.42 2.45455 107.622 5.26705 99.5256C8.16477 91.3437 12.0852 83.6307 17.0284 76.3864C22.0568 69.0568 27.6818 62.8778 33.9034 57.8494L55.3807 71.7841C50.3523 79.3693 46.1335 87.2954 42.7244 95.5625C39.4006 103.744 37.7812 112.778 37.8665 122.665V149H1.0483ZM65.8636 149V122.92C65.8636 115.42 67.2699 107.622 70.0824 99.5256C72.9801 91.3437 76.9006 83.6307 81.8438 76.3864C86.8722 69.0568 92.4972 62.8778 98.7188 57.8494L120.196 71.7841C115.168 79.3693 110.949 87.2954 107.54 95.5625C104.216 103.744 102.597 112.778 102.682 122.665V149H65.8636ZM103.671 106.94V67.1818H312.563V106.94H231.64V329H184.595V106.94H103.671ZM315.215 329H264.59L356.763 67.1818H415.314L507.615 329H456.99L387.061 120.875H385.016L315.215 329ZM316.877 226.344H454.945V264.44H316.877V226.344ZM502.5 329V67.1818H602.728C621.648 67.1818 637.373 70.1648 649.901 76.1307C662.515 82.0114 671.932 90.0653 678.154 100.293C684.461 110.52 687.614 122.111 687.614 135.065C687.614 145.719 685.569 154.838 681.478 162.423C677.387 169.923 671.89 176.017 664.986 180.705C658.083 185.392 650.37 188.759 641.847 190.804V193.361C651.137 193.872 660.043 196.727 668.566 201.926C677.174 207.04 684.205 214.284 689.66 223.659C695.114 233.034 697.841 244.369 697.841 257.665C697.841 271.216 694.56 283.403 687.998 294.227C681.435 304.966 671.549 313.446 658.339 319.668C645.128 325.889 628.509 329 608.481 329H502.5ZM549.929 289.369H600.938C618.154 289.369 630.554 286.088 638.14 279.526C645.81 272.878 649.645 264.355 649.645 253.957C649.645 246.202 647.728 239.213 643.892 232.991C640.057 226.685 634.603 221.741 627.529 218.162C620.455 214.497 612.017 212.665 602.216 212.665H549.929V289.369ZM549.929 178.531H596.847C605.029 178.531 612.401 177.04 618.964 174.057C625.526 170.989 630.682 166.685 634.432 161.145C638.267 155.52 640.185 148.872 640.185 141.202C640.185 131.06 636.606 122.707 629.446 116.145C622.373 109.582 611.847 106.301 597.87 106.301H549.929V178.531ZM699.502 329V67.1818H799.729C818.65 67.1818 834.374 70.1648 846.903 76.1307C859.516 82.0114 868.934 90.0653 875.155 100.293C881.462 110.52 884.616 122.111 884.616 135.065C884.616 145.719 882.57 154.838 878.479 162.423C874.388 169.923 868.891 176.017 861.988 180.705C855.084 185.392 847.371 188.759 838.849 190.804V193.361C848.138 193.872 857.045 196.727 865.567 201.926C874.175 207.04 881.207 214.284 886.661 223.659C892.116 233.034 894.843 244.369 894.843 257.665C894.843 271.216 891.562 283.403 884.999 294.227C878.437 304.966 868.55 313.446 855.34 319.668C842.13 325.889 825.51 329 805.482 329H699.502ZM746.931 289.369H797.939C815.155 289.369 827.556 286.088 835.141 279.526C842.812 272.878 846.647 264.355 846.647 253.957C846.647 246.202 844.729 239.213 840.894 232.991C837.059 226.685 831.604 221.741 824.53 218.162C817.457 214.497 809.019 212.665 799.218 212.665H746.931V289.369ZM746.931 178.531H793.849C802.03 178.531 809.403 177.04 815.965 174.057C822.528 170.989 827.684 166.685 831.434 161.145C835.269 155.52 837.187 148.872 837.187 141.202C837.187 131.06 833.607 122.707 826.448 116.145C819.374 109.582 808.849 106.301 794.871 106.301H746.931V178.531ZM896.504 329V67.1818H994.685C1014.8 67.1818 1031.67 70.6761 1045.31 77.6648C1059.03 84.6534 1069.39 94.4545 1076.38 107.068C1083.45 119.597 1086.99 134.213 1086.99 150.918C1086.99 167.707 1083.41 182.281 1076.25 194.639C1069.17 206.912 1058.73 216.415 1044.93 223.148C1031.12 229.795 1014.16 233.119 994.046 233.119H924.117V193.744H987.654C999.415 193.744 1009.05 192.125 1016.55 188.886C1024.05 185.562 1029.59 180.747 1033.17 174.44C1036.83 168.048 1038.66 160.207 1038.66 150.918C1038.66 141.628 1036.83 133.702 1033.17 127.139C1029.5 120.491 1023.92 115.463 1016.42 112.054C1008.92 108.56 999.245 106.812 987.398 106.812H943.933V329H896.504ZM1031.76 210.364L1096.57 329H1043.65L979.984 210.364H1031.76ZM1138.47 67.1818V329H1091.04V67.1818H1138.47ZM1292.52 139.156C1291.33 127.991 1286.3 119.298 1277.43 113.077C1268.66 106.855 1257.24 103.744 1243.17 103.744C1233.29 103.744 1224.81 105.236 1217.73 108.219C1210.66 111.202 1205.25 115.25 1201.5 120.364C1197.75 125.477 1195.83 131.315 1195.74 137.878C1195.74 143.332 1196.98 148.062 1199.45 152.068C1202.01 156.074 1205.46 159.483 1209.81 162.295C1214.15 165.023 1218.97 167.324 1224.25 169.199C1229.54 171.074 1234.86 172.651 1240.23 173.929L1264.78 180.065C1274.67 182.366 1284.17 185.477 1293.29 189.398C1302.49 193.318 1310.72 198.261 1317.96 204.227C1325.29 210.193 1331.09 217.395 1335.35 225.832C1339.61 234.27 1341.74 244.156 1341.74 255.491C1341.74 270.832 1337.82 284.341 1329.98 296.017C1322.14 307.608 1310.8 316.685 1295.97 323.247C1281.23 329.724 1263.37 332.963 1242.41 332.963C1222.04 332.963 1204.35 329.81 1189.35 323.503C1174.44 317.196 1162.76 307.991 1154.32 295.889C1145.97 283.787 1141.45 269.043 1140.77 251.656H1187.43C1188.12 260.776 1190.93 268.361 1195.87 274.412C1200.82 280.463 1207.25 284.98 1215.18 287.963C1223.19 290.946 1232.14 292.438 1242.02 292.438C1252.34 292.438 1261.37 290.903 1269.13 287.835C1276.97 284.682 1283.1 280.335 1287.53 274.795C1291.97 269.17 1294.22 262.608 1294.31 255.108C1294.22 248.29 1292.22 242.665 1288.3 238.233C1284.38 233.716 1278.88 229.966 1271.81 226.983C1264.82 223.915 1256.64 221.187 1247.26 218.801L1217.48 211.131C1195.92 205.591 1178.87 197.196 1166.34 185.946C1153.9 174.611 1147.68 159.568 1147.68 140.818C1147.68 125.392 1151.85 111.884 1160.2 100.293C1168.64 88.7017 1180.11 79.7102 1194.59 73.3182C1209.08 66.8409 1225.49 63.6023 1243.81 63.6023C1262.39 63.6023 1278.67 66.8409 1292.65 73.3182C1306.71 79.7102 1317.75 88.6165 1325.76 100.037C1333.77 111.372 1337.9 124.412 1338.16 139.156H1292.52ZM1381.62 67.1818V93.2614C1381.62 100.761 1380.18 108.56 1377.28 116.656C1374.46 124.668 1370.59 132.338 1365.64 139.668C1360.7 146.912 1355.08 153.134 1348.77 158.332L1327.29 144.398C1331.98 137.324 1336.07 129.696 1339.56 121.514C1343.06 113.247 1344.81 103.915 1344.81 93.517V67.1818H1381.62ZM1446.18 67.1818V93.2614C1446.18 100.761 1444.73 108.56 1441.84 116.656C1439.02 124.668 1435.15 132.338 1430.2 139.668C1425.26 146.912 1419.68 153.134 1413.46 158.332L1391.98 144.398C1396.58 137.324 1400.63 129.696 1404.12 121.514C1407.62 113.247 1409.37 103.915 1409.37 93.517V67.1818H1446.18ZM1595.34 333.986C1574.29 333.986 1556.22 328.659 1541.13 318.006C1526.13 307.267 1514.59 291.798 1506.49 271.599C1498.48 251.315 1494.47 226.898 1494.47 198.347C1494.56 169.795 1498.61 145.506 1506.62 125.477C1514.71 105.364 1526.26 90.0227 1541.26 79.4545C1556.35 68.8864 1574.37 63.6023 1595.34 63.6023C1616.31 63.6023 1634.33 68.8864 1649.42 79.4545C1664.5 90.0227 1676.05 105.364 1684.06 125.477C1692.16 145.591 1696.21 169.881 1696.21 198.347C1696.21 226.983 1692.16 251.443 1684.06 271.727C1676.05 291.926 1664.5 307.352 1649.42 318.006C1634.42 328.659 1616.39 333.986 1595.34 333.986ZM1595.34 293.972C1611.7 293.972 1624.62 285.918 1634.08 269.81C1643.62 253.616 1648.39 229.795 1648.39 198.347C1648.39 177.551 1646.22 160.08 1641.87 145.932C1637.53 131.784 1631.39 121.131 1623.46 113.972C1615.54 106.727 1606.16 103.105 1595.34 103.105C1579.06 103.105 1566.19 111.202 1556.73 127.395C1547.27 143.503 1542.5 167.153 1542.41 198.347C1542.33 219.227 1544.42 236.784 1548.68 251.017C1553.02 265.25 1559.16 275.989 1567.09 283.233C1575.01 290.392 1584.43 293.972 1595.34 293.972ZM1805.57 67.1818V329H1758.14V113.332H1756.61L1695.37 152.452V108.986L1760.44 67.1818H1805.57Z" fill="white"/>
<path d="M1.0483 149H0.0482961V150H1.0483V149ZM5.26705 99.5256L4.3244 99.1917L4.32242 99.1974L5.26705 99.5256ZM17.0284 76.3864L16.2038 75.8206L16.2024 75.8227L17.0284 76.3864ZM33.9034 57.8494L34.4477 57.0105L33.8391 56.6156L33.2748 57.0717L33.9034 57.8494ZM55.3807 71.7841L56.2142 72.3366L56.7722 71.4949L55.925 70.9452L55.3807 71.7841ZM42.7244 95.5625L41.7999 95.1813L41.798 95.1861L42.7244 95.5625ZM37.8665 122.665L38.8665 122.665L38.8664 122.656L37.8665 122.665ZM37.8665 149V150H38.8665V149H37.8665ZM65.8636 149H64.8636V150H65.8636V149ZM70.0824 99.5256L69.1397 99.1917L69.1378 99.1974L70.0824 99.5256ZM81.8438 76.3864L81.0191 75.8206L81.0177 75.8227L81.8438 76.3864ZM98.7188 57.8494L99.263 57.0105L98.6544 56.6156L98.0902 57.0717L98.7188 57.8494ZM120.196 71.7841L121.03 72.3366L121.588 71.4949L120.74 70.9452L120.196 71.7841ZM107.54 95.5625L106.615 95.1813L106.613 95.1861L107.54 95.5625ZM102.682 122.665H103.682L103.682 122.656L102.682 122.665ZM102.682 149V150H103.682V149H102.682ZM2.0483 149V122.92H0.0482961V149H2.0483ZM2.0483 122.92C2.0483 115.547 3.43067 107.86 6.21168 99.8537L4.32242 99.1974C1.47842 107.385 0.0482961 115.294 0.0482961 122.92H2.0483ZM6.20967 99.8594C9.0783 91.7597 12.9594 84.1238 17.8544 76.95L16.2024 75.8227C11.2111 83.1375 7.25124 90.9277 4.32442 99.1917L6.20967 99.8594ZM17.853 76.9521C22.8327 69.6936 28.3935 63.5884 34.532 58.6272L33.2748 57.0717C26.9701 62.1673 21.2809 68.4201 16.2038 75.8206L17.853 76.9521ZM33.3591 58.6883L54.8364 72.623L55.925 70.9452L34.4477 57.0105L33.3591 58.6883ZM54.5472 71.2315C49.4836 78.8698 45.2342 86.8532 41.8 95.1813L43.6489 95.9437C47.0329 87.7376 51.2209 79.8688 56.2142 72.3366L54.5472 71.2315ZM41.798 95.1861C38.4188 103.504 36.7803 112.671 36.8665 122.673L38.8664 122.656C38.7822 112.886 40.3823 103.985 43.6509 95.9389L41.798 95.1861ZM36.8665 122.665V149H38.8665V122.665H36.8665ZM37.8665 148H1.0483V150H37.8665V148ZM66.8636 149V122.92H64.8636V149H66.8636ZM66.8636 122.92C66.8636 115.547 68.246 107.86 71.027 99.8537L69.1378 99.1974C66.2938 107.385 64.8636 115.294 64.8636 122.92H66.8636ZM71.025 99.8594C73.8936 91.7597 77.7747 84.1238 82.6698 76.95L81.0177 75.8227C76.0264 83.1375 72.0666 90.9277 69.1398 99.1917L71.025 99.8594ZM82.6684 76.9521C87.648 69.6936 93.2088 63.5884 99.3473 58.6272L98.0902 57.0717C91.7855 62.1673 86.0963 68.4201 81.0191 75.8206L82.6684 76.9521ZM98.1745 58.6883L119.652 72.623L120.74 70.9452L99.263 57.0105L98.1745 58.6883ZM119.363 71.2315C114.299 78.8698 110.05 86.8532 106.615 95.1813L108.464 95.9437C111.848 87.7376 116.036 79.8688 121.03 72.3366L119.363 71.2315ZM106.613 95.1861C103.234 103.504 101.596 112.671 101.682 122.673L103.682 122.656C103.598 112.886 105.198 103.985 108.466 95.9389L106.613 95.1861ZM101.682 122.665V149H103.682V122.665H101.682ZM102.682 148H65.8636V150H102.682V148ZM103.671 106.94H102.671V107.94H103.671V106.94ZM103.671 67.1818V66.1818H102.671V67.1818H103.671ZM312.563 67.1818H313.563V66.1818H312.563V67.1818ZM312.563 106.94V107.94H313.563V106.94H312.563ZM231.64 106.94V105.94H230.64V106.94H231.64ZM231.64 329V330H232.64V329H231.64ZM184.595 329H183.595V330H184.595V329ZM184.595 106.94H185.595V105.94H184.595V106.94ZM104.671 106.94V67.1818H102.671V106.94H104.671ZM103.671 68.1818H312.563V66.1818H103.671V68.1818ZM311.563 67.1818V106.94H313.563V67.1818H311.563ZM312.563 105.94H231.64V107.94H312.563V105.94ZM230.64 106.94V329H232.64V106.94H230.64ZM231.64 328H184.595V330H231.64V328ZM185.595 329V106.94H183.595V329H185.595ZM184.595 105.94H103.671V107.94H184.595V105.94ZM315.215 329V330H315.934L316.163 329.318L315.215 329ZM264.59 329L263.647 328.668L263.178 330H264.59V329ZM356.763 67.1818V66.1818H356.055L355.82 66.8497L356.763 67.1818ZM415.314 67.1818L416.257 66.8493L416.022 66.1818H415.314V67.1818ZM507.615 329V330H509.028L508.558 328.668L507.615 329ZM456.99 329L456.042 329.318L456.271 330H456.99V329ZM387.061 120.875L388.009 120.557L387.78 119.875H387.061V120.875ZM385.016 120.875V119.875H384.297L384.068 120.557L385.016 120.875ZM316.877 226.344V225.344H315.877V226.344H316.877ZM454.945 226.344H455.945V225.344H454.945V226.344ZM454.945 264.44V265.44H455.945V264.44H454.945ZM316.877 264.44H315.877V265.44H316.877V264.44ZM315.215 328H264.59V330H315.215V328ZM265.533 329.332L357.706 67.5139L355.82 66.8497L263.647 328.668L265.533 329.332ZM356.763 68.1818H415.314V66.1818H356.763V68.1818ZM414.371 67.5143L506.672 329.332L508.558 328.668L416.257 66.8493L414.371 67.5143ZM507.615 328H456.99V330H507.615V328ZM457.938 328.682L388.009 120.557L386.113 121.193L456.042 329.318L457.938 328.682ZM387.061 119.875H385.016V121.875H387.061V119.875ZM384.068 120.557L314.267 328.682L316.163 329.318L385.964 121.193L384.068 120.557ZM316.877 227.344H454.945V225.344H316.877V227.344ZM453.945 226.344V264.44H455.945V226.344H453.945ZM454.945 263.44H316.877V265.44H454.945V263.44ZM317.877 264.44V226.344H315.877V264.44H317.877ZM502.5 329H501.5V330H502.5V329ZM502.5 67.1818V66.1818H501.5V67.1818H502.5ZM649.901 76.1307L649.471 77.0336L649.478 77.037L649.901 76.1307ZM678.154 100.293L677.3 100.812L677.303 100.817L678.154 100.293ZM681.478 162.423L682.356 162.902L682.358 162.898L681.478 162.423ZM664.986 180.705L664.424 179.877L664.424 179.877L664.986 180.705ZM641.847 190.804L641.614 189.832L640.847 190.016V190.804H641.847ZM641.847 193.361H640.847V194.307L641.792 194.359L641.847 193.361ZM668.566 201.926L668.045 202.78L668.055 202.786L668.566 201.926ZM689.66 223.659L688.795 224.162L688.795 224.162L689.66 223.659ZM687.998 294.227L688.851 294.749L688.853 294.746L687.998 294.227ZM549.929 289.369H548.929V290.369H549.929V289.369ZM638.14 279.526L638.794 280.282L638.795 280.281L638.14 279.526ZM643.892 232.991L643.038 233.511L643.041 233.516L643.892 232.991ZM627.529 218.162L627.069 219.05L627.077 219.054L627.529 218.162ZM549.929 212.665V211.665H548.929V212.665H549.929ZM549.929 178.531H548.929V179.531H549.929V178.531ZM618.964 174.057L619.377 174.967L619.387 174.963L618.964 174.057ZM634.432 161.145L633.606 160.582L633.604 160.584L634.432 161.145ZM629.446 116.145L628.766 116.878L628.771 116.882L629.446 116.145ZM549.929 106.301V105.301H548.929V106.301H549.929ZM503.5 329V67.1818H501.5V329H503.5ZM502.5 68.1818H602.728V66.1818H502.5V68.1818ZM602.728 68.1818C621.551 68.1818 637.117 71.1504 649.471 77.0335L650.331 75.2278C637.629 69.1791 621.746 66.1818 602.728 66.1818V68.1818ZM649.478 77.037C661.943 82.8482 671.196 90.7798 677.3 100.812L679.008 99.7729C672.668 89.3509 663.086 81.1745 650.324 75.2243L649.478 77.037ZM677.303 100.817C683.505 110.875 686.614 122.281 686.614 135.065H688.614C688.614 121.94 685.417 110.165 679.005 99.7677L677.303 100.817ZM686.614 135.065C686.614 145.592 684.593 154.54 680.598 161.949L682.358 162.898C686.544 155.136 688.614 145.846 688.614 135.065H686.614ZM680.6 161.944C676.583 169.308 671.193 175.281 664.424 179.877L665.548 181.532C672.586 176.753 678.19 170.538 682.356 162.902L680.6 161.944ZM664.424 179.877C657.626 184.494 650.025 187.813 641.614 189.832L642.08 191.776C650.714 189.704 658.54 186.29 665.548 181.532L664.424 179.877ZM640.847 190.804V193.361H642.847V190.804H640.847ZM641.792 194.359C650.905 194.861 659.653 197.66 668.045 202.78L669.087 201.072C660.433 195.794 651.369 192.883 641.902 192.362L641.792 194.359ZM668.055 202.786C676.505 207.805 683.419 214.921 688.795 224.162L690.524 223.156C684.991 213.647 677.843 206.274 669.077 201.066L668.055 202.786ZM688.795 224.162C694.143 233.353 696.841 244.506 696.841 257.665H698.841C698.841 244.232 696.085 232.715 690.524 223.156L688.795 224.162ZM696.841 257.665C696.841 271.047 693.604 283.052 687.143 293.709L688.853 294.746C695.517 283.754 698.841 271.385 698.841 257.665H696.841ZM687.144 293.706C680.699 304.252 670.975 312.611 657.912 318.763L658.765 320.572C672.123 314.281 682.171 305.68 688.851 294.749L687.144 293.706ZM657.912 318.763C644.875 324.903 628.413 328 608.481 328V330C628.605 330 645.381 326.875 658.765 320.572L657.912 318.763ZM608.481 328H502.5V330H608.481V328ZM549.929 290.369H600.938V288.369H549.929V290.369ZM600.938 290.369C618.237 290.369 630.936 287.081 638.794 280.282L637.485 278.769C630.173 285.096 618.071 288.369 600.938 288.369V290.369ZM638.795 280.281C646.69 273.438 650.645 264.637 650.645 253.957H648.645C648.645 264.073 644.93 272.317 637.485 278.77L638.795 280.281ZM650.645 253.957C650.645 246.028 648.682 238.856 644.744 232.467L643.041 233.516C646.773 239.57 648.645 246.375 648.645 253.957H650.645ZM644.747 232.472C640.808 225.994 635.208 220.927 627.98 217.27L627.077 219.054C633.998 222.556 639.307 227.375 643.038 233.511L644.747 232.472ZM627.989 217.274C620.744 213.521 612.141 211.665 602.216 211.665V213.665C611.894 213.665 620.166 215.474 627.069 219.05L627.989 217.274ZM602.216 211.665H549.929V213.665H602.216V211.665ZM548.929 212.665V289.369H550.929V212.665H548.929ZM549.929 179.531H596.847V177.531H549.929V179.531ZM596.847 179.531C605.152 179.531 612.668 178.017 619.377 174.967L618.55 173.146C612.134 176.063 604.905 177.531 596.847 177.531V179.531ZM619.387 174.963C626.099 171.825 631.401 167.407 635.26 161.705L633.604 160.584C629.964 165.962 624.953 170.153 618.54 173.151L619.387 174.963ZM635.258 161.708C639.221 155.897 641.185 149.047 641.185 141.202H639.185C639.185 148.698 637.314 155.143 633.606 160.582L635.258 161.708ZM641.185 141.202C641.185 130.793 637.498 122.169 630.122 115.408L628.771 116.882C635.713 123.246 639.185 131.326 639.185 141.202H641.185ZM630.127 115.412C622.799 108.614 611.987 105.301 597.87 105.301V107.301C611.707 107.301 621.946 110.55 628.766 116.878L630.127 115.412ZM597.87 105.301H549.929V107.301H597.87V105.301ZM548.929 106.301V178.531H550.929V106.301H548.929ZM699.502 329H698.502V330H699.502V329ZM699.502 67.1818V66.1818H698.502V67.1818H699.502ZM846.903 76.1307L846.473 77.0336L846.48 77.037L846.903 76.1307ZM875.155 100.293L874.301 100.812L874.304 100.817L875.155 100.293ZM878.479 162.423L879.357 162.902L879.359 162.898L878.479 162.423ZM861.988 180.705L861.426 179.877L861.426 179.877L861.988 180.705ZM838.849 190.804L838.615 189.832L837.849 190.016V190.804H838.849ZM838.849 193.361H837.849V194.307L838.794 194.359L838.849 193.361ZM865.567 201.926L865.047 202.78L865.057 202.786L865.567 201.926ZM886.661 223.659L885.797 224.162L885.797 224.162L886.661 223.659ZM884.999 294.227L885.852 294.749L885.854 294.746L884.999 294.227ZM746.931 289.369H745.931V290.369H746.931V289.369ZM835.141 279.526L835.795 280.282L835.796 280.281L835.141 279.526ZM840.894 232.991L840.04 233.511L840.043 233.516L840.894 232.991ZM824.53 218.162L824.07 219.05L824.079 219.054L824.53 218.162ZM746.931 212.665V211.665H745.931V212.665H746.931ZM746.931 178.531H745.931V179.531H746.931V178.531ZM815.965 174.057L816.379 174.967L816.389 174.963L815.965 174.057ZM831.434 161.145L830.608 160.582L830.606 160.584L831.434 161.145ZM826.448 116.145L825.768 116.878L825.772 116.882L826.448 116.145ZM746.931 106.301V105.301H745.931V106.301H746.931ZM700.502 329V67.1818H698.502V329H700.502ZM699.502 68.1818H799.729V66.1818H699.502V68.1818ZM799.729 68.1818C818.552 68.1818 834.118 71.1504 846.473 77.0335L847.332 75.2278C834.63 69.1791 818.747 66.1818 799.729 66.1818V68.1818ZM846.48 77.037C858.944 82.8482 868.198 90.7798 874.301 100.812L876.01 99.7729C869.67 89.3509 860.088 81.1745 847.325 75.2243L846.48 77.037ZM874.304 100.817C880.506 110.875 883.616 122.281 883.616 135.065H885.616C885.616 121.94 882.418 110.165 876.007 99.7677L874.304 100.817ZM883.616 135.065C883.616 145.592 881.595 154.54 877.599 161.949L879.359 162.898C883.545 155.136 885.616 145.846 885.616 135.065H883.616ZM877.601 161.944C873.585 169.308 868.195 175.281 861.426 179.877L862.55 181.532C869.588 176.753 875.192 170.538 879.357 162.902L877.601 161.944ZM861.426 179.877C854.627 184.494 847.027 187.813 838.615 189.832L839.082 191.776C847.716 189.704 855.541 186.29 862.55 181.532L861.426 179.877ZM837.849 190.804V193.361H839.849V190.804H837.849ZM838.794 194.359C847.907 194.861 856.654 197.66 865.047 202.78L866.088 201.072C857.435 195.794 848.37 192.883 838.904 192.362L838.794 194.359ZM865.057 202.786C873.506 207.805 880.42 214.921 885.797 224.162L887.525 223.156C881.993 213.647 874.844 206.274 866.078 201.066L865.057 202.786ZM885.797 224.162C891.144 233.353 893.843 244.506 893.843 257.665H895.843C895.843 244.232 893.087 232.715 887.525 223.156L885.797 224.162ZM893.843 257.665C893.843 271.047 890.605 283.052 884.144 293.709L885.854 294.746C892.518 283.754 895.843 271.385 895.843 257.665H893.843ZM884.146 293.706C877.701 304.252 867.976 312.611 854.914 318.763L855.766 320.572C869.124 314.281 879.172 305.68 885.852 294.749L884.146 293.706ZM854.914 318.763C841.877 324.903 825.415 328 805.482 328V330C825.606 330 842.383 326.875 855.766 320.572L854.914 318.763ZM805.482 328H699.502V330H805.482V328ZM746.931 290.369H797.939V288.369H746.931V290.369ZM797.939 290.369C815.238 290.369 827.937 287.081 835.795 280.282L834.487 278.769C827.175 285.096 815.073 288.369 797.939 288.369V290.369ZM835.796 280.281C843.692 273.438 847.647 264.637 847.647 253.957H845.647C845.647 264.073 841.931 272.317 834.486 278.77L835.796 280.281ZM847.647 253.957C847.647 246.028 845.684 238.856 841.745 232.467L840.043 233.516C843.775 239.57 845.647 246.375 845.647 253.957H847.647ZM841.748 232.472C837.809 225.994 832.209 220.927 824.982 217.27L824.079 219.054C830.999 222.556 836.308 227.375 840.04 233.511L841.748 232.472ZM824.99 217.274C817.745 213.521 809.143 211.665 799.218 211.665V213.665C808.895 213.665 817.168 215.474 824.07 219.05L824.99 217.274ZM799.218 211.665H746.931V213.665H799.218V211.665ZM745.931 212.665V289.369H747.931V212.665H745.931ZM746.931 179.531H793.849V177.531H746.931V179.531ZM793.849 179.531C802.154 179.531 809.67 178.017 816.379 174.967L815.551 173.146C809.135 176.063 801.907 177.531 793.849 177.531V179.531ZM816.389 174.963C823.101 171.825 828.402 167.407 832.262 161.705L830.606 160.584C826.965 165.962 821.954 170.153 815.542 173.151L816.389 174.963ZM832.26 161.708C836.222 155.897 838.187 149.047 838.187 141.202H836.187C836.187 148.698 834.316 155.143 830.608 160.582L832.26 161.708ZM838.187 141.202C838.187 130.793 834.5 122.169 827.124 115.408L825.772 116.882C832.715 123.246 836.187 131.326 836.187 141.202H838.187ZM827.128 115.412C819.801 108.614 808.989 105.301 794.871 105.301V107.301C808.708 107.301 818.947 110.55 825.768 116.878L827.128 115.412ZM794.871 105.301H746.931V107.301H794.871V105.301ZM745.931 106.301V178.531H747.931V106.301H745.931ZM896.504 329H895.504V330H896.504V329ZM896.504 67.1818V66.1818H895.504V67.1818H896.504ZM1045.31 77.6648L1044.85 78.5547L1044.86 78.5558L1045.31 77.6648ZM1076.38 107.068L1075.5 107.553L1075.5 107.56L1076.38 107.068ZM1076.25 194.639L1075.38 194.138L1075.38 194.14L1076.25 194.639ZM1044.93 223.148L1045.36 224.049L1045.37 224.047L1044.93 223.148ZM924.117 233.119H923.117V234.119H924.117V233.119ZM924.117 193.744V192.744H923.117V193.744H924.117ZM1016.55 188.886L1016.94 189.804L1016.95 189.801L1016.55 188.886ZM1033.17 174.44L1032.3 173.943L1032.3 173.947L1033.17 174.44ZM1033.17 127.139L1032.29 127.622L1032.29 127.627L1033.17 127.139ZM1016.42 112.054L1016 112.96L1016 112.964L1016.42 112.054ZM943.933 106.812V105.812H942.933V106.812H943.933ZM943.933 329V330H944.933V329H943.933ZM1031.76 210.364L1032.64 209.884L1032.35 209.364H1031.76V210.364ZM1096.57 329V330H1098.26L1097.45 328.521L1096.57 329ZM1043.65 329L1042.77 329.473L1043.05 330H1043.65V329ZM979.984 210.364V209.364H978.312L979.103 210.836L979.984 210.364ZM897.504 329V67.1818H895.504V329H897.504ZM896.504 68.1818H994.685V66.1818H896.504V68.1818ZM994.685 68.1818C1014.69 68.1818 1031.4 71.6574 1044.85 78.5547L1045.77 76.7748C1031.95 69.6948 1014.91 66.1818 994.685 66.1818V68.1818ZM1044.86 78.5558C1058.41 85.4604 1068.62 95.1256 1075.5 107.553L1077.25 106.584C1070.16 93.7834 1059.65 83.8464 1045.76 76.7737L1044.86 78.5558ZM1075.5 107.56C1082.48 119.916 1085.99 134.357 1085.99 150.918H1087.99C1087.99 134.069 1084.42 119.278 1077.25 106.577L1075.5 107.56ZM1085.99 150.918C1085.99 167.562 1082.44 181.957 1075.38 194.138L1077.11 195.14C1084.37 182.605 1087.99 167.852 1087.99 150.918H1085.99ZM1075.38 194.14C1068.42 206.225 1058.13 215.596 1044.49 222.249L1045.37 224.047C1059.34 217.234 1069.93 207.599 1077.11 195.139L1075.38 194.14ZM1044.49 222.247C1030.86 228.812 1014.05 232.119 994.046 232.119V234.119C1014.26 234.119 1031.38 230.779 1045.36 224.049L1044.49 222.247ZM994.046 232.119H924.117V234.119H994.046V232.119ZM925.117 233.119V193.744H923.117V233.119H925.117ZM924.117 194.744H987.654V192.744H924.117V194.744ZM987.654 194.744C999.497 194.744 1009.28 193.115 1016.94 189.804L1016.15 187.968C1008.82 191.135 999.334 192.744 987.654 192.744V194.744ZM1016.95 189.801C1024.62 186.402 1030.34 181.451 1034.04 174.934L1032.3 173.947C1028.84 180.043 1023.47 184.723 1016.14 187.972L1016.95 189.801ZM1034.03 174.938C1037.8 168.36 1039.66 160.337 1039.66 150.918H1037.66C1037.66 160.078 1035.86 167.737 1032.3 173.943L1034.03 174.938ZM1039.66 150.918C1039.66 141.497 1037.8 133.394 1034.04 126.652L1032.29 127.627C1035.86 134.009 1037.66 141.759 1037.66 150.918H1039.66ZM1034.04 126.656C1030.26 119.804 1024.51 114.634 1016.83 111.144L1016 112.964C1023.33 116.292 1028.74 121.179 1032.29 127.622L1034.04 126.656ZM1016.84 111.148C1009.16 107.571 999.333 105.812 987.398 105.812V107.812C999.158 107.812 1008.67 109.548 1016 112.96L1016.84 111.148ZM987.398 105.812H943.933V107.812H987.398V105.812ZM942.933 106.812V329H944.933V106.812H942.933ZM943.933 328H896.504V330H943.933V328ZM1030.88 210.843L1095.7 329.479L1097.45 328.521L1032.64 209.884L1030.88 210.843ZM1096.57 328H1043.65V330H1096.57V328ZM1044.53 328.527L980.865 209.891L979.103 210.836L1042.77 329.473L1044.53 328.527ZM979.984 211.364H1031.76V209.364H979.984V211.364ZM1138.47 67.1818H1139.47V66.1818H1138.47V67.1818ZM1138.47 329V330H1139.47V329H1138.47ZM1091.04 329H1090.04V330H1091.04V329ZM1091.04 67.1818V66.1818H1090.04V67.1818H1091.04ZM1137.47 67.1818V329H1139.47V67.1818H1137.47ZM1138.47 328H1091.04V330H1138.47V328ZM1092.04 329V67.1818H1090.04V329H1092.04ZM1091.04 68.1818H1138.47V66.1818H1091.04V68.1818ZM1292.52 139.156L1291.53 139.263L1291.62 140.156H1292.52V139.156ZM1277.43 113.077L1276.86 113.893L1276.86 113.895L1277.43 113.077ZM1217.73 108.219L1218.12 109.14L1218.12 109.14L1217.73 108.219ZM1201.5 120.364L1200.69 119.772L1200.69 119.772L1201.5 120.364ZM1195.74 137.878L1194.74 137.865V137.878H1195.74ZM1199.45 152.068L1198.6 152.593L1198.61 152.6L1198.61 152.606L1199.45 152.068ZM1209.81 162.295L1209.26 163.135L1209.28 163.143L1209.81 162.295ZM1224.25 169.199L1223.92 170.141L1223.92 170.141L1224.25 169.199ZM1240.23 173.929L1240.48 172.959L1240.46 172.956L1240.23 173.929ZM1264.78 180.065L1264.54 181.035L1264.54 181.037L1264.55 181.039L1264.78 180.065ZM1293.29 189.398L1292.89 190.316L1292.9 190.318L1293.29 189.398ZM1317.96 204.227L1317.32 204.999L1317.33 205.003L1317.96 204.227ZM1329.98 296.017L1330.81 296.577L1330.81 296.575L1329.98 296.017ZM1295.97 323.247L1296.37 324.163L1296.38 324.162L1295.97 323.247ZM1189.35 323.503L1188.96 324.424L1188.97 324.425L1189.35 323.503ZM1154.32 295.889L1153.5 296.457L1153.5 296.461L1154.32 295.889ZM1140.77 251.656V250.656H1139.73L1139.77 251.695L1140.77 251.656ZM1187.43 251.656L1188.43 251.582L1188.36 250.656H1187.43V251.656ZM1195.87 274.412L1196.65 273.779L1196.65 273.779L1195.87 274.412ZM1215.18 287.963L1214.82 288.899L1214.83 288.9L1215.18 287.963ZM1269.13 287.835L1269.49 288.765L1269.5 288.763L1269.13 287.835ZM1287.53 274.795L1288.32 275.42L1288.32 275.414L1287.53 274.795ZM1294.31 255.108L1295.31 255.119L1295.31 255.107L1295.31 255.095L1294.31 255.108ZM1288.3 238.233L1287.55 238.888L1287.55 238.896L1288.3 238.233ZM1271.81 226.983L1271.41 227.899L1271.41 227.902L1271.42 227.904L1271.81 226.983ZM1247.26 218.801L1247.02 219.77L1247.02 219.77L1247.26 218.801ZM1217.48 211.131L1217.73 210.162L1217.73 210.162L1217.48 211.131ZM1166.34 185.946L1165.67 186.685L1165.67 186.69L1166.34 185.946ZM1160.2 100.293L1159.4 99.7041L1159.39 99.708L1160.2 100.293ZM1194.59 73.3182L1195 74.2331L1195 74.2311L1194.59 73.3182ZM1292.65 73.3182L1292.23 74.2255L1292.23 74.2285L1292.65 73.3182ZM1325.76 100.037L1324.94 100.611L1324.94 100.614L1325.76 100.037ZM1338.16 139.156V140.156H1339.18L1339.16 139.139L1338.16 139.156ZM1293.51 139.05C1292.29 127.61 1287.12 118.652 1278.01 112.258L1276.86 113.895C1285.48 119.944 1290.36 128.373 1291.53 139.263L1293.51 139.05ZM1278.01 112.261C1269.02 105.887 1257.38 102.744 1243.17 102.744V104.744C1257.09 104.744 1268.29 107.823 1276.86 113.893L1278.01 112.261ZM1243.17 102.744C1233.19 102.744 1224.57 104.25 1217.34 107.297L1218.12 109.14C1225.04 106.222 1233.38 104.744 1243.17 104.744V102.744ZM1217.34 107.297C1210.14 110.336 1204.57 114.485 1200.69 119.772L1202.3 120.955C1205.93 116.015 1211.18 112.068 1218.12 109.14L1217.34 107.297ZM1200.69 119.772C1196.81 125.06 1194.83 131.102 1194.74 137.865L1196.74 137.891C1196.83 131.529 1198.68 125.895 1202.3 120.955L1200.69 119.772ZM1194.74 137.878C1194.74 143.488 1196.02 148.406 1198.6 152.593L1200.3 151.543C1197.94 147.719 1196.74 143.177 1196.74 137.878H1194.74ZM1198.61 152.606C1201.25 156.743 1204.81 160.252 1209.26 163.135L1210.35 161.456C1206.11 158.714 1202.77 155.405 1200.29 151.53L1198.61 152.606ZM1209.28 163.143C1213.69 165.912 1218.57 168.244 1223.92 170.141L1224.59 168.256C1219.37 166.404 1214.62 164.133 1210.34 161.448L1209.28 163.143ZM1223.92 170.141C1229.24 172.028 1234.6 173.615 1240 174.902L1240.46 172.956C1235.13 171.686 1229.84 170.12 1224.59 168.256L1223.92 170.141ZM1239.99 174.899L1264.54 181.035L1265.02 179.095L1240.48 172.959L1239.99 174.899ZM1264.55 181.039C1274.38 183.327 1283.83 186.42 1292.89 190.316L1293.68 188.479C1284.51 184.535 1274.95 181.406 1265.01 179.091L1264.55 181.039ZM1292.9 190.318C1302.02 194.203 1310.16 199.098 1317.32 204.999L1318.6 203.455C1311.27 197.425 1302.97 192.433 1293.68 188.478L1292.9 190.318ZM1317.33 205.003C1324.55 210.88 1330.26 217.971 1334.45 226.283L1336.24 225.382C1331.91 216.819 1326.03 209.506 1318.59 203.452L1317.33 205.003ZM1334.45 226.283C1338.63 234.556 1340.74 244.282 1340.74 255.491H1342.74C1342.74 244.031 1340.58 233.984 1336.24 225.382L1334.45 226.283ZM1340.74 255.491C1340.74 270.653 1336.87 283.963 1329.15 295.46L1330.81 296.575C1338.77 284.719 1342.74 271.012 1342.74 255.491H1340.74ZM1329.15 295.457C1321.43 306.869 1310.25 315.834 1295.57 322.333L1296.38 324.162C1311.35 317.535 1322.84 308.347 1330.81 296.577L1329.15 295.457ZM1295.57 322.332C1280.98 328.739 1263.27 331.963 1242.41 331.963V333.963C1263.47 333.963 1281.47 330.71 1296.37 324.163L1295.57 322.332ZM1242.41 331.963C1222.14 331.963 1204.59 328.825 1189.74 322.581L1188.97 324.425C1204.11 330.794 1221.94 333.963 1242.41 333.963V331.963ZM1189.74 322.582C1174.98 316.341 1163.46 307.25 1155.14 295.317L1153.5 296.461C1162.06 308.733 1173.89 318.051 1188.96 324.424L1189.74 322.582ZM1155.15 295.321C1146.92 283.402 1142.45 268.849 1141.77 251.617L1139.77 251.695C1140.46 269.236 1145.02 284.172 1153.5 296.457L1155.15 295.321ZM1140.77 252.656H1187.43V250.656H1140.77V252.656ZM1186.44 251.731C1187.13 261.019 1190 268.809 1195.1 275.045L1196.65 273.779C1191.85 267.913 1189.1 260.532 1188.43 251.582L1186.44 251.731ZM1195.1 275.045C1200.16 281.244 1206.75 285.859 1214.82 288.899L1215.53 287.027C1207.75 284.101 1201.47 279.683 1196.65 273.779L1195.1 275.045ZM1214.83 288.9C1222.97 291.931 1232.04 293.438 1242.02 293.438V291.438C1232.24 291.438 1223.41 289.961 1215.53 287.026L1214.83 288.9ZM1242.02 293.438C1252.43 293.438 1261.6 291.889 1269.49 288.765L1268.76 286.905C1261.14 289.918 1252.24 291.438 1242.02 291.438V293.438ZM1269.5 288.763C1277.47 285.558 1283.76 281.118 1288.32 275.42L1286.75 274.171C1282.45 279.552 1276.46 283.806 1268.75 286.907L1269.5 288.763ZM1288.32 275.414C1292.9 269.607 1295.22 262.829 1295.31 255.119L1293.31 255.097C1293.23 262.387 1291.04 268.733 1286.75 274.177L1288.32 275.414ZM1295.31 255.095C1295.22 248.076 1293.15 242.209 1289.05 237.57L1287.55 238.896C1291.29 243.121 1293.23 248.503 1293.31 255.12L1295.31 255.095ZM1289.06 237.577C1285.01 232.917 1279.37 229.088 1272.2 226.062L1271.42 227.904C1278.39 230.844 1283.75 234.515 1287.55 238.888L1289.06 237.577ZM1272.21 226.067C1265.16 222.972 1256.93 220.229 1247.51 217.832L1247.02 219.77C1256.35 222.146 1264.48 224.857 1271.41 227.899L1272.21 226.067ZM1247.51 217.833L1217.73 210.162L1217.23 212.099L1247.02 219.77L1247.51 217.833ZM1217.73 210.162C1196.27 204.65 1179.39 196.316 1167.01 185.202L1165.67 186.69C1178.35 198.077 1195.56 206.532 1217.23 212.099L1217.73 210.162ZM1167.01 185.207C1154.8 174.084 1148.68 159.322 1148.68 140.818H1146.68C1146.68 159.814 1152.99 175.138 1165.67 186.685L1167.01 185.207ZM1148.68 140.818C1148.68 125.584 1152.8 112.284 1161.02 100.877L1159.39 99.708C1150.91 111.483 1146.68 125.2 1146.68 140.818H1148.68ZM1161.01 100.881C1169.34 89.4474 1180.65 80.5616 1195 74.2331L1194.19 72.4033C1179.56 78.8589 1167.95 87.956 1159.4 99.7041L1161.01 100.881ZM1195 74.2311C1209.34 67.8194 1225.61 64.6023 1243.81 64.6023V62.6023C1225.37 62.6023 1208.82 65.8624 1194.19 72.4052L1195 74.2311ZM1243.81 64.6023C1262.28 64.6023 1278.41 67.8205 1292.23 74.2255L1293.07 72.4109C1278.94 65.8613 1262.51 62.6023 1243.81 62.6023V64.6023ZM1292.23 74.2285C1306.15 80.5549 1317.04 89.3522 1324.94 100.611L1326.58 99.4626C1318.45 87.8807 1307.27 78.8656 1293.06 72.4078L1292.23 74.2285ZM1324.94 100.614C1332.83 111.775 1336.91 124.617 1337.16 139.174L1339.16 139.139C1338.9 124.207 1334.71 110.969 1326.58 99.4598L1324.94 100.614ZM1338.16 138.156H1292.52V140.156H1338.16V138.156ZM1381.62 67.1818H1382.62V66.1818H1381.62V67.1818ZM1377.28 116.656L1376.34 116.319L1376.33 116.325L1377.28 116.656ZM1365.64 139.668L1366.47 140.231L1366.47 140.227L1365.64 139.668ZM1348.77 158.332L1348.22 159.171L1348.84 159.57L1349.4 159.104L1348.77 158.332ZM1327.29 144.398L1326.46 143.845L1325.9 144.687L1326.75 145.237L1327.29 144.398ZM1339.56 121.514L1340.48 121.907L1340.49 121.904L1339.56 121.514ZM1344.81 67.1818V66.1818H1343.81V67.1818H1344.81ZM1446.18 67.1818H1447.18V66.1818H1446.18V67.1818ZM1441.84 116.656L1440.9 116.319L1440.89 116.325L1441.84 116.656ZM1430.2 139.668L1431.03 140.231L1431.03 140.227L1430.2 139.668ZM1413.46 158.332L1412.91 159.171L1413.53 159.573L1414.1 159.1L1413.46 158.332ZM1391.98 144.398L1391.14 143.852L1390.59 144.692L1391.43 145.237L1391.98 144.398ZM1404.12 121.514L1405.04 121.907L1405.05 121.904L1404.12 121.514ZM1409.37 67.1818V66.1818H1408.37V67.1818H1409.37ZM1380.62 67.1818V93.2614H1382.62V67.1818H1380.62ZM1380.62 93.2614C1380.62 100.631 1379.2 108.315 1376.34 116.319L1378.22 116.993C1381.15 108.804 1382.62 100.892 1382.62 93.2614H1380.62ZM1376.33 116.325C1373.55 124.253 1369.71 131.847 1364.81 139.108L1366.47 140.227C1371.46 132.829 1375.38 125.083 1378.22 116.987L1376.33 116.325ZM1364.82 139.104C1359.92 146.276 1354.36 152.426 1348.13 157.561L1349.4 159.104C1355.79 153.841 1361.48 147.548 1366.47 140.231L1364.82 139.104ZM1349.31 157.493L1327.84 143.559L1326.75 145.237L1348.22 159.171L1349.31 157.493ZM1328.13 144.95C1332.85 137.823 1336.97 130.142 1340.48 121.907L1338.64 121.121C1335.17 129.25 1331.11 136.824 1326.46 143.845L1328.13 144.95ZM1340.49 121.904C1344.04 113.495 1345.81 104.028 1345.81 93.517H1343.81C1343.81 103.802 1342.08 112.999 1338.64 121.125L1340.49 121.904ZM1345.81 93.517V67.1818H1343.81V93.517H1345.81ZM1344.81 68.1818H1381.62V66.1818H1344.81V68.1818ZM1445.18 67.1818V93.2614H1447.18V67.1818H1445.18ZM1445.18 93.2614C1445.18 100.631 1443.76 108.315 1440.9 116.319L1442.78 116.993C1445.71 108.804 1447.18 100.892 1447.18 93.2614H1445.18ZM1440.89 116.325C1438.11 124.253 1434.27 131.847 1429.37 139.108L1431.03 140.227C1436.02 132.829 1439.94 125.083 1442.78 116.987L1440.89 116.325ZM1429.38 139.104C1424.48 146.278 1418.96 152.43 1412.82 157.565L1414.1 159.1C1420.4 153.837 1426.04 147.545 1431.03 140.231L1429.38 139.104ZM1414 157.493L1392.52 143.559L1391.43 145.237L1412.91 159.171L1414 157.493ZM1392.82 144.943C1397.45 137.818 1401.53 130.139 1405.04 121.907L1403.2 121.121C1399.73 129.253 1395.71 136.829 1391.14 143.852L1392.82 144.943ZM1405.05 121.904C1408.6 113.495 1410.37 104.028 1410.37 93.517H1408.37C1408.37 103.802 1406.64 112.999 1403.2 121.125L1405.05 121.904ZM1410.37 93.517V67.1818H1408.37V93.517H1410.37ZM1409.37 68.1818H1446.18V66.1818H1409.37V68.1818ZM1541.13 318.006L1540.55 318.819L1540.56 318.823L1541.13 318.006ZM1506.49 271.599L1505.56 271.967L1505.56 271.971L1506.49 271.599ZM1494.47 198.347L1493.47 198.344V198.347H1494.47ZM1506.62 125.477L1505.69 125.104L1505.69 125.106L1506.62 125.477ZM1541.26 79.4545L1540.69 78.6355L1540.69 78.6371L1541.26 79.4545ZM1649.42 79.4545L1648.84 80.2736L1648.84 80.2736L1649.42 79.4545ZM1684.06 125.477L1683.13 125.847L1683.13 125.851L1684.06 125.477ZM1684.06 271.727L1683.13 271.357L1683.13 271.359L1684.06 271.727ZM1649.42 318.006L1648.84 317.189L1648.84 317.19L1649.42 318.006ZM1634.08 269.81L1633.21 269.302L1633.21 269.303L1634.08 269.81ZM1641.87 145.932L1642.83 145.638L1642.83 145.638L1641.87 145.932ZM1623.46 113.972L1622.79 114.71L1622.79 114.714L1623.46 113.972ZM1556.73 127.395L1557.59 127.901L1557.59 127.899L1556.73 127.395ZM1542.41 198.347L1543.41 198.351L1543.41 198.349L1542.41 198.347ZM1548.68 251.017L1547.72 251.304L1547.72 251.309L1548.68 251.017ZM1567.09 283.233L1566.41 283.971L1566.42 283.975L1567.09 283.233ZM1595.34 332.986C1574.46 332.986 1556.61 327.707 1541.71 317.189L1540.56 318.823C1555.83 329.611 1574.11 334.986 1595.34 334.986V332.986ZM1541.72 317.193C1526.9 306.584 1515.46 291.282 1507.42 271.227L1505.56 271.971C1513.72 292.315 1525.37 307.95 1540.55 318.819L1541.72 317.193ZM1507.42 271.232C1499.47 251.095 1495.47 226.809 1495.47 198.347H1493.47C1493.47 226.987 1497.49 251.536 1505.56 271.967L1507.42 271.232ZM1495.47 198.35C1495.56 169.886 1499.59 145.729 1507.55 125.849L1505.69 125.106C1497.62 145.283 1493.56 169.705 1493.47 198.344L1495.47 198.35ZM1507.55 125.851C1515.58 105.883 1527.02 90.7103 1541.84 80.272L1540.69 78.6371C1525.5 89.3351 1513.85 104.844 1505.69 125.104L1507.55 125.851ZM1541.84 80.2736C1556.73 69.839 1574.55 64.6023 1595.34 64.6023V62.6023C1574.2 62.6023 1555.96 67.9337 1540.69 78.6355L1541.84 80.2736ZM1595.34 64.6023C1616.13 64.6023 1633.95 69.839 1648.84 80.2736L1649.99 78.6355C1634.71 67.9337 1616.48 62.6023 1595.34 62.6023V64.6023ZM1648.84 80.2736C1663.74 90.7114 1675.18 105.882 1683.13 125.847L1684.99 125.107C1676.92 104.845 1665.26 89.334 1649.99 78.6355L1648.84 80.2736ZM1683.13 125.851C1691.17 145.815 1695.21 169.971 1695.21 198.347H1697.21C1697.21 169.791 1693.15 145.367 1684.99 125.104L1683.13 125.851ZM1695.21 198.347C1695.21 226.893 1691.17 251.221 1683.13 271.357L1684.99 272.098C1693.15 251.666 1697.21 227.072 1697.21 198.347H1695.21ZM1683.13 271.359C1675.18 291.409 1663.74 306.666 1648.84 317.189L1649.99 318.823C1665.26 308.039 1676.92 292.443 1684.99 272.096L1683.13 271.359ZM1648.84 317.19C1634.03 327.707 1616.21 332.986 1595.34 332.986V334.986C1616.57 334.986 1634.8 329.611 1650 318.821L1648.84 317.19ZM1595.34 294.972C1612.11 294.972 1625.33 286.678 1634.94 270.316L1633.21 269.303C1623.9 285.157 1611.29 292.972 1595.34 292.972V294.972ZM1634.94 270.317C1644.61 253.899 1649.39 229.867 1649.39 198.347H1647.39C1647.39 229.723 1642.63 253.334 1633.21 269.302L1634.94 270.317ZM1649.39 198.347C1649.39 177.489 1647.21 159.911 1642.83 145.638L1640.92 146.225C1645.23 160.248 1647.39 177.614 1647.39 198.347H1649.39ZM1642.83 145.638C1638.45 131.382 1632.24 120.547 1624.13 113.229L1622.79 114.714C1630.54 121.714 1636.6 132.187 1640.92 146.225L1642.83 145.638ZM1624.14 113.233C1616.03 105.819 1606.41 102.105 1595.34 102.105V104.105C1605.92 104.105 1615.05 107.635 1622.79 114.71L1624.14 113.233ZM1595.34 102.105C1578.65 102.105 1565.48 110.446 1555.87 126.89L1557.59 127.899C1566.91 111.957 1579.48 104.105 1595.34 104.105V102.105ZM1555.87 126.888C1546.28 143.22 1541.5 167.079 1541.41 198.344L1543.41 198.349C1543.5 167.228 1548.26 143.786 1557.59 127.901L1555.87 126.888ZM1541.41 198.343C1541.33 219.285 1543.42 236.947 1547.72 251.304L1549.64 250.73C1545.41 236.621 1543.33 219.169 1543.41 198.351L1541.41 198.343ZM1547.72 251.309C1552.1 265.65 1558.31 276.568 1566.41 283.971L1567.76 282.495C1560.01 275.409 1553.95 264.85 1549.63 250.725L1547.72 251.309ZM1566.42 283.975C1574.53 291.304 1584.19 294.972 1595.34 294.972V292.972C1584.67 292.972 1575.49 289.48 1567.76 282.491L1566.42 283.975ZM1805.57 67.1818H1806.57V66.1818H1805.57V67.1818ZM1805.57 329V330H1806.57V329H1805.57ZM1758.14 329H1757.14V330H1758.14V329ZM1758.14 113.332H1759.14V112.332H1758.14V113.332ZM1756.61 113.332V112.332H1756.32L1756.07 112.49L1756.61 113.332ZM1695.37 152.452H1694.37V154.277L1695.91 153.294L1695.37 152.452ZM1695.37 108.986L1694.83 108.144L1694.37 108.44V108.986H1695.37ZM1760.44 67.1818V66.1818H1760.15L1759.9 66.3405L1760.44 67.1818ZM1804.57 67.1818V329H1806.57V67.1818H1804.57ZM1805.57 328H1758.14V330H1805.57V328ZM1759.14 329V113.332H1757.14V329H1759.14ZM1758.14 112.332H1756.61V114.332H1758.14V112.332ZM1756.07 112.49L1694.84 151.609L1695.91 153.294L1757.15 114.175L1756.07 112.49ZM1696.37 152.452V108.986H1694.37V152.452H1696.37ZM1695.91 109.827L1760.99 68.0231L1759.9 66.3405L1694.83 108.144L1695.91 109.827ZM1760.44 68.1818H1805.57V66.1818H1760.44V68.1818Z" fill="white" fill-opacity="0.01"/>
<path d="M881.611 67H873.301L897.335 1.54545H905.517L929.551 67H921.241L901.682 11.9006H901.17L881.611 67ZM884.679 41.4318H918.173V48.4631H884.679V41.4318ZM988.5 1.54545V67H980.829L945.162 15.608H944.523V67H936.596V1.54545H944.267L980.062 53.0653H980.702V1.54545H988.5ZM1045.95 22C1045.25 19.848 1044.32 17.9197 1043.17 16.2152C1042.04 14.4893 1040.69 13.0192 1039.11 11.8047C1037.56 10.5902 1035.79 9.66335 1033.81 9.02414C1031.83 8.38494 1029.65 8.06534 1027.29 8.06534C1023.41 8.06534 1019.89 9.06676 1016.71 11.0696C1013.54 13.0724 1011.01 16.0234 1009.14 19.9226C1007.26 23.8217 1006.32 28.6051 1006.32 34.2727C1006.32 39.9403 1007.27 44.7237 1009.17 48.6229C1011.06 52.522 1013.63 55.473 1016.87 57.4759C1020.11 59.4787 1023.75 60.4801 1027.8 60.4801C1031.55 60.4801 1034.85 59.6811 1037.71 58.0831C1040.59 56.4638 1042.82 54.1839 1044.42 51.2436C1046.04 48.282 1046.85 44.7983 1046.85 40.7926L1049.28 41.304H1029.59V34.2727H1054.52V41.304C1054.52 46.6946 1053.37 51.3821 1051.07 55.3665C1048.79 59.3509 1045.63 62.4403 1041.61 64.6349C1037.6 66.8082 1033 67.8949 1027.8 67.8949C1022.01 67.8949 1016.91 66.5312 1012.52 63.804C1008.16 61.0767 1004.75 57.1989 1002.3 52.1705C999.868 47.142 998.653 41.1761 998.653 34.2727C998.653 29.0952 999.346 24.4396 1000.73 20.3061C1002.14 16.1513 1004.12 12.6143 1006.68 9.69531C1009.23 6.77628 1012.26 4.53906 1015.75 2.98366C1019.25 1.42827 1023.09 0.650566 1027.29 0.650566C1030.74 0.650566 1033.96 1.17258 1036.94 2.21662C1039.95 3.23934 1042.62 4.69886 1044.96 6.59517C1047.33 8.47017 1049.3 10.718 1050.88 13.3388C1052.45 15.9382 1053.54 18.8253 1054.14 22H1045.95ZM1064.94 67V1.54545H1104.45V8.5767H1072.87V30.6932H1102.4V37.7244H1072.87V59.9688H1104.96V67H1064.94ZM1115.58 67V1.54545H1123.51V59.9688H1153.94V67H1115.58ZM1170.99 1.54545V67H1163.06V1.54545H1170.99ZM1236.4 22H1228.47C1228 19.7202 1227.18 17.7173 1226.01 15.9915C1224.86 14.2656 1223.45 12.8168 1221.79 11.6449C1220.15 10.4517 1218.33 9.55682 1216.33 8.96023C1214.32 8.36364 1212.24 8.06534 1210.06 8.06534C1206.1 8.06534 1202.51 9.06676 1199.29 11.0696C1196.1 13.0724 1193.55 16.0234 1191.65 19.9226C1189.78 23.8217 1188.84 28.6051 1188.84 34.2727C1188.84 39.9403 1189.78 44.7237 1191.65 48.6229C1193.55 52.522 1196.1 55.473 1199.29 57.4759C1202.51 59.4787 1206.1 60.4801 1210.06 60.4801C1212.24 60.4801 1214.32 60.1818 1216.33 59.5852C1218.33 58.9886 1220.15 58.1044 1221.79 56.9325C1223.45 55.7393 1224.86 54.2798 1226.01 52.554C1227.18 50.8068 1228 48.804 1228.47 46.5455H1236.4C1235.8 49.8906 1234.71 52.8842 1233.14 55.5263C1231.56 58.1683 1229.6 60.4162 1227.26 62.2699C1224.91 64.1023 1222.28 65.4979 1219.36 66.4567C1216.47 67.4155 1213.37 67.8949 1210.06 67.8949C1204.48 67.8949 1199.52 66.5312 1195.17 63.804C1190.82 61.0767 1187.4 57.1989 1184.91 52.1705C1182.42 47.142 1181.17 41.1761 1181.17 34.2727C1181.17 27.3693 1182.42 21.4034 1184.91 16.375C1187.4 11.3466 1190.82 7.46875 1195.17 4.74148C1199.52 2.0142 1204.48 0.650566 1210.06 0.650566C1213.37 0.650566 1216.47 1.12997 1219.36 2.08878C1222.28 3.04758 1224.91 4.45383 1227.26 6.30753C1229.6 8.13991 1231.56 10.3771 1233.14 13.0192C1234.71 15.6399 1235.8 18.6335 1236.4 22ZM1312.96 22C1312.26 19.848 1311.33 17.9197 1310.18 16.2152C1309.05 14.4893 1307.7 13.0192 1306.12 11.8047C1304.57 10.5902 1302.8 9.66335 1300.82 9.02414C1298.84 8.38494 1296.66 8.06534 1294.3 8.06534C1290.42 8.06534 1286.89 9.06676 1283.72 11.0696C1280.54 13.0724 1278.02 16.0234 1276.14 19.9226C1274.27 23.8217 1273.33 28.6051 1273.33 34.2727C1273.33 39.9403 1274.28 44.7237 1276.18 48.6229C1278.07 52.522 1280.64 55.473 1283.88 57.4759C1287.12 59.4787 1290.76 60.4801 1294.81 60.4801C1298.56 60.4801 1301.86 59.6811 1304.72 58.0831C1307.59 56.4638 1309.83 54.1839 1311.43 51.2436C1313.05 48.282 1313.86 44.7983 1313.86 40.7926L1316.29 41.304H1296.6V34.2727H1321.53V41.304C1321.53 46.6946 1320.38 51.3821 1318.08 55.3665C1315.8 59.3509 1312.64 62.4403 1308.62 64.6349C1304.61 66.8082 1300.01 67.8949 1294.81 67.8949C1289.01 67.8949 1283.92 66.5312 1279.53 63.804C1275.16 61.0767 1271.76 57.1989 1269.3 52.1705C1266.88 47.142 1265.66 41.1761 1265.66 34.2727C1265.66 29.0952 1266.35 24.4396 1267.74 20.3061C1269.15 16.1513 1271.13 12.6143 1273.68 9.69531C1276.24 6.77628 1279.27 4.53906 1282.76 2.98366C1286.25 1.42827 1290.1 0.650566 1294.3 0.650566C1297.75 0.650566 1300.97 1.17258 1303.95 2.21662C1306.95 3.23934 1309.63 4.69886 1311.97 6.59517C1314.34 8.47017 1316.31 10.718 1317.88 13.3388C1319.46 15.9382 1320.55 18.8253 1321.14 22H1312.96ZM1332.62 67H1324.31L1348.34 1.54545H1356.52L1380.56 67H1372.25L1352.69 11.9006H1352.18L1332.62 67ZM1335.68 41.4318H1369.18V48.4631H1335.68V41.4318ZM1395.53 1.54545V67H1387.6V1.54545H1395.53ZM1460.17 1.54545V67H1452.5L1416.84 15.608H1416.2V67H1408.27V1.54545H1415.94L1451.74 53.0653H1452.38V1.54545H1460.17ZM1470.71 67V61.2472L1505.99 8.5767H1470.33V1.54545H1515.45V7.29829L1480.17 59.9688H1515.84V67H1470.71Z" fill="white"/>
</g>
<defs>
<clipPath id="clip0_101_3">
<rect width="1806" height="334" fill="white"/>
</clipPath>
</defs>
</svg>
