<svg width="354" height="68" viewBox="0 0 354 68" fill="none" xmlns="http://www.w3.org/2000/svg">
<path d="M0.603338 22.5V16.1974C0.603338 14.3849 0.943182 12.5004 1.62287 10.5437C2.32315 8.5664 3.2706 6.70241 4.4652 4.9517C5.6804 3.1804 7.03977 1.68714 8.54332 0.471943L13.7337 3.83948C12.5185 5.67258 11.4989 7.58807 10.6751 9.58594C9.8718 11.5632 9.48047 13.7464 9.50107 16.1357V22.5H0.603338ZM16.267 22.5V16.1974C16.267 14.3849 16.6069 12.5004 17.2866 10.5437C17.9869 8.5664 18.9343 6.70241 20.1289 4.9517C21.3441 3.1804 22.7035 1.68714 24.207 0.471943L29.3974 3.83948C28.1822 5.67258 27.1626 7.58807 26.3388 9.58594C25.5355 11.5632 25.1442 13.7464 25.1648 16.1357V22.5H16.267ZM62.5704 20.1211C62.2821 17.4229 61.0669 15.3221 58.9249 13.8185C56.8034 12.315 54.0435 11.5632 50.645 11.5632C48.2558 11.5632 46.2065 11.9236 44.4969 12.6445C42.7874 13.3654 41.4795 14.3437 40.5733 15.5795C39.667 16.8153 39.2036 18.2262 39.183 19.8121C39.183 21.1303 39.4817 22.2734 40.079 23.2415C40.6969 24.2095 41.531 25.0334 42.5815 25.7131C43.6319 26.3722 44.7956 26.9283 46.0726 27.3814C47.3496 27.8345 48.6369 28.2156 49.9344 28.5245L55.8663 30.0075C58.2555 30.5636 60.552 31.3153 62.7558 32.2628C64.9802 33.2102 66.9678 34.4048 68.7185 35.8466C70.4898 37.2884 71.8904 39.0288 72.9202 41.0678C73.9501 43.1069 74.465 45.4961 74.465 48.2354C74.465 51.9428 73.5175 55.2074 71.6227 58.0291C69.7278 60.8303 66.9884 63.0238 63.4046 64.6097C59.8414 66.1751 55.5264 66.9577 50.4597 66.9577C45.5371 66.9577 41.2633 66.1957 37.6383 64.6715C34.0339 63.1474 31.2121 60.9229 29.1731 57.9982C27.1546 55.0735 26.063 51.5103 25.8982 47.3086H37.1749C37.3396 49.5124 38.0193 51.3455 39.2139 52.8079C40.4085 54.2702 41.9636 55.3619 43.879 56.0827C45.8151 56.8036 47.9778 57.1641 50.367 57.1641C52.8592 57.1641 55.0424 56.7933 56.9167 56.0518C58.8116 55.2898 60.2945 54.2393 61.3655 52.9006C62.4366 51.5412 62.9824 49.9553 63.003 48.1428C62.9824 46.495 62.4984 45.1357 61.5509 44.0646C60.6035 42.973 59.275 42.0668 57.5655 41.3459C55.8766 40.6044 53.8993 39.9453 51.6337 39.3686L44.4352 37.5149C39.2242 36.1761 35.1049 34.1474 32.0772 31.4286C29.0701 28.6893 27.5665 25.054 27.5665 20.5227C27.5665 16.7947 28.5758 13.5302 30.5942 10.729C32.6333 7.92791 35.4035 5.75497 38.905 4.21022C42.4064 2.64488 46.3712 1.86221 50.7995 1.86221C55.2896 1.86221 59.2235 2.64488 62.6013 4.21022C65.9998 5.75497 68.667 7.90731 70.6031 10.6673C72.5392 13.4066 73.5381 16.5579 73.5999 20.1211H62.5704ZM131.651 34.3636C131.651 41.1811 130.374 47.0202 127.82 51.881C125.287 56.7212 121.827 60.4286 117.439 63.0032C113.073 65.5778 108.12 66.8651 102.579 66.8651C97.0385 66.8651 92.0748 65.5778 87.6877 63.0032C83.3212 60.408 79.861 56.6903 77.307 51.8501C74.7736 46.9893 73.5069 41.1605 73.5069 34.3636C73.5069 27.5462 74.7736 21.7173 77.307 16.8771C79.861 12.0163 83.3212 8.29865 87.6877 5.72407C92.0748 3.1495 97.0385 1.86221 102.579 1.86221C108.12 1.86221 113.073 3.1495 117.439 5.72407C121.827 8.29865 125.287 12.0163 127.82 16.8771C130.374 21.7173 131.651 27.5462 131.651 34.3636ZM120.127 34.3636C120.127 29.5646 119.376 25.5174 117.872 22.2219C116.389 18.9059 114.329 16.4034 111.693 14.7145C109.057 13.005 106.019 12.1502 102.579 12.1502C99.1394 12.1502 96.1014 13.005 93.465 14.7145C90.8287 16.4034 88.7587 18.9059 87.2552 22.2219C85.7722 25.5174 85.0307 29.5646 85.0307 34.3636C85.0307 39.1626 85.7722 43.2202 87.2552 46.5362C88.7587 49.8317 90.8287 52.3342 93.465 54.0437C96.1014 55.7326 99.1394 56.5771 102.579 56.5771C106.019 56.5771 109.057 55.7326 111.693 54.0437C114.329 52.3342 116.389 49.8317 117.872 46.5362C119.376 43.2202 120.127 39.1626 120.127 34.3636ZM132.917 66V2.72727H144.379V56.3917H172.247V66H132.917ZM183.129 66H170.895L193.17 2.72727H207.32L229.626 66H217.392L200.492 15.7031H199.998L183.129 66ZM183.531 41.1914H216.897V50.3981H183.531V41.1914ZM228.459 2.72727V9.02983C228.459 10.8423 228.109 12.7269 227.409 14.6836C226.729 16.6197 225.792 18.4734 224.597 20.2447C223.403 21.9954 222.043 23.4989 220.519 24.7553L215.329 21.3878C216.462 19.6783 217.45 17.8349 218.295 15.8576C219.139 13.8597 219.562 11.6044 219.562 9.09162V2.72727H228.459ZM244.061 2.72727V9.02983C244.061 10.8423 243.711 12.7269 243.011 14.6836C242.331 16.6197 241.394 18.4734 240.199 20.2447C239.005 21.9954 237.656 23.4989 236.152 24.7553L230.962 21.3878C232.074 19.6783 233.052 17.8349 233.897 15.8576C234.741 13.8597 235.163 11.6044 235.163 9.09162V2.72727H244.061ZM280.107 67.2049C275.02 67.2049 270.653 65.9176 267.008 63.343C263.383 60.7479 260.592 57.0096 258.635 52.1282C256.699 47.2262 255.731 41.3253 255.731 34.4254C255.752 27.5256 256.73 21.6555 258.666 16.8153C260.623 11.9545 263.414 8.24716 267.039 5.69318C270.684 3.1392 275.04 1.86221 280.107 1.86221C285.174 1.86221 289.53 3.1392 293.176 5.69318C296.821 8.24716 299.612 11.9545 301.548 16.8153C303.505 21.6761 304.483 27.5462 304.483 34.4254C304.483 41.3459 303.505 47.2571 301.548 52.1591C299.612 57.0405 296.821 60.7685 293.176 63.343C289.551 65.9176 285.195 67.2049 280.107 67.2049ZM280.107 57.5348C284.062 57.5348 287.182 55.5884 289.468 51.6957C291.775 47.7823 292.929 42.0256 292.929 34.4254C292.929 29.3999 292.403 25.1776 291.353 21.7585C290.303 18.3395 288.82 15.7649 286.904 14.0348C284.989 12.2841 282.723 11.4087 280.107 11.4087C276.173 11.4087 273.063 13.3654 270.777 17.2788C268.491 21.1715 267.337 26.8871 267.317 34.4254C267.296 39.4716 267.801 43.7145 268.831 47.1541C269.881 50.5937 271.364 53.1889 273.279 54.9396C275.195 56.6697 277.471 57.5348 280.107 57.5348ZM304.035 54.2599V45.146L330.883 2.72727H338.483V15.7031H333.849L315.775 44.3427V44.837H353.251V54.2599H304.035ZM334.219 66V51.4794L334.343 47.4013V2.72727H345.156V66H334.219Z" fill="white"/>
<path d="M0.603338 22.5H-0.396662V23.5H0.603338V22.5ZM1.62287 10.5437L0.680225 10.2098L0.678239 10.2155L1.62287 10.5437ZM4.4652 4.9517L3.6406 4.38599L3.63918 4.38806L4.4652 4.9517ZM8.54332 0.471943L9.08761 -0.366957L8.47899 -0.761836L7.91474 -0.305797L8.54332 0.471943ZM13.7337 3.83948L14.5672 4.39202L15.1252 3.55027L14.278 3.00058L13.7337 3.83948ZM10.6751 9.58594L9.75058 9.2047L9.74861 9.20956L10.6751 9.58594ZM9.50107 16.1357L10.5011 16.1357L10.501 16.127L9.50107 16.1357ZM9.50107 22.5V23.5H10.5011V22.5H9.50107ZM16.267 22.5H15.267V23.5H16.267V22.5ZM17.2866 10.5437L16.3439 10.2098L16.3419 10.2155L17.2866 10.5437ZM20.1289 4.9517L19.3043 4.38599L19.3029 4.38806L20.1289 4.9517ZM24.207 0.471943L24.7513 -0.366957L24.1427 -0.761836L23.5784 -0.305797L24.207 0.471943ZM29.3974 3.83948L30.2309 4.39202L30.7889 3.55027L29.9417 3.00058L29.3974 3.83948ZM26.3388 9.58594L25.4143 9.2047L25.4123 9.20956L26.3388 9.58594ZM25.1648 16.1357H26.1648L26.1647 16.127L25.1648 16.1357ZM25.1648 22.5V23.5H26.1648V22.5H25.1648ZM1.60334 22.5V16.1974H-0.396662V22.5H1.60334ZM1.60334 16.1974C1.60334 14.5113 1.91931 12.7378 2.5675 10.8718L0.678239 10.2155C-0.0329463 12.2629 -0.396662 14.2585 -0.396662 16.1974H1.60334ZM2.5655 10.8775C3.23668 8.98241 4.14472 7.19555 5.29122 5.51534L3.63918 4.38806C2.39647 6.20927 1.40962 8.1504 0.680242 10.2098L2.5655 10.8775ZM5.2898 5.51742C6.45627 3.81714 7.75145 2.39773 9.17191 1.24968L7.91474 -0.305797C6.3281 0.976558 4.90453 2.54366 3.6406 4.38599L5.2898 5.51742ZM7.99904 1.31084L13.1894 4.67838L14.278 3.00058L9.08761 -0.366957L7.99904 1.31084ZM12.9002 3.28695C11.6498 5.17311 10.5996 7.14587 9.75059 9.20471L11.5996 9.96717C12.3983 8.03026 13.3871 6.17206 14.5672 4.39202L12.9002 3.28695ZM9.74861 9.20956C8.89008 11.3229 8.4795 13.6389 8.5011 16.1443L10.501 16.127C10.4814 13.854 10.8535 11.8036 11.6015 9.96231L9.74861 9.20956ZM8.50107 16.1357V22.5H10.5011V16.1357H8.50107ZM9.50107 21.5H0.603338V23.5H9.50107V21.5ZM17.267 22.5V16.1974H15.267V22.5H17.267ZM17.267 16.1974C17.267 14.5113 17.583 12.7378 18.2312 10.8718L16.3419 10.2155C15.6308 12.2629 15.267 14.2585 15.267 16.1974H17.267ZM18.2292 10.8775C18.9004 8.98241 19.8084 7.19555 20.9549 5.51534L19.3029 4.38806C18.0602 6.20927 17.0733 8.1504 16.3439 10.2098L18.2292 10.8775ZM20.9535 5.51742C22.12 3.81714 23.4152 2.39773 24.8356 1.24968L23.5784 -0.305797C21.9918 0.976558 20.5682 2.54366 19.3043 4.38599L20.9535 5.51742ZM23.6627 1.31084L28.8531 4.67838L29.9417 3.00058L24.7513 -0.366957L23.6627 1.31084ZM28.5639 3.28695C27.3135 5.17311 26.2633 7.14587 25.4143 9.20471L27.2633 9.96717C28.062 8.03026 29.0508 6.17206 30.2309 4.39202L28.5639 3.28695ZM25.4123 9.20956C24.5538 11.3229 24.1432 13.6389 24.1648 16.1443L26.1647 16.127C26.1451 13.854 26.5172 11.8036 27.2652 9.96231L25.4123 9.20956ZM24.1648 16.1357V22.5H26.1648V16.1357H24.1648ZM25.1648 21.5H16.267V23.5H25.1648V21.5ZM62.5704 20.1211L61.5761 20.2274L61.6716 21.1211H62.5704V20.1211ZM58.9249 13.8185L58.3466 14.6344L58.3503 14.637L58.9249 13.8185ZM44.4969 12.6445L44.8855 13.566L44.8855 13.566L44.4969 12.6445ZM40.5733 15.5795L39.7669 14.9882L39.7669 14.9882L40.5733 15.5795ZM39.183 19.8121L38.183 19.7992V19.8121H39.183ZM40.079 23.2415L39.2279 23.7666L39.2319 23.7731L39.236 23.7795L40.079 23.2415ZM42.5815 25.7131L42.0382 26.5527L42.05 26.5601L42.5815 25.7131ZM46.0726 27.3814L45.7382 28.3238L45.7382 28.3238L46.0726 27.3814ZM49.9344 28.5245L50.177 27.5543L50.1661 27.5517L49.9344 28.5245ZM55.8663 30.0075L55.6237 30.9776L55.6316 30.9796L55.6396 30.9814L55.8663 30.0075ZM62.7558 32.2628L62.3609 33.1815L62.364 33.1828L62.7558 32.2628ZM68.7185 35.8466L68.0828 36.6185L68.0873 36.6222L68.7185 35.8466ZM71.6227 58.0291L72.4509 58.5894L72.4528 58.5866L71.6227 58.0291ZM63.4046 64.6097L63.8068 65.5253L63.8093 65.5242L63.4046 64.6097ZM37.6383 64.6715L37.2488 65.5926L37.2507 65.5934L37.6383 64.6715ZM29.1731 57.9982L28.35 58.5662L28.3528 58.5701L29.1731 57.9982ZM25.8982 47.3086V46.3086H24.8582L24.899 47.3478L25.8982 47.3086ZM37.1749 47.3086L38.1721 47.234L38.1029 46.3086H37.1749V47.3086ZM39.2139 52.8079L39.9884 52.1752L39.9884 52.1752L39.2139 52.8079ZM43.879 56.0827L43.5268 57.0187L43.5301 57.0199L43.879 56.0827ZM56.9167 56.0518L57.2846 56.9817L57.2898 56.9796L56.9167 56.0518ZM61.3655 52.9006L62.1464 53.5253L62.151 53.5194L61.3655 52.9006ZM63.003 48.1428L64.0029 48.1541L64.003 48.1422L64.0029 48.1303L63.003 48.1428ZM61.5509 44.0646L60.7957 44.7201L60.8019 44.7272L61.5509 44.0646ZM57.5655 41.3459L57.1635 42.2615L57.1702 42.2645L57.1769 42.2673L57.5655 41.3459ZM51.6337 39.3686L51.3843 40.337L51.387 40.3377L51.6337 39.3686ZM44.4352 37.5149L44.6845 36.5465L44.684 36.5464L44.4352 37.5149ZM32.0772 31.4286L31.4037 32.1679L31.4091 32.1727L32.0772 31.4286ZM30.5942 10.729L29.7858 10.1405L29.7829 10.1444L30.5942 10.729ZM38.905 4.21022L39.3086 5.12515L39.3131 5.12315L38.905 4.21022ZM62.6013 4.21022L62.1809 5.11756L62.1875 5.12059L62.6013 4.21022ZM70.6031 10.6673L69.7845 11.2415L69.7865 11.2444L70.6031 10.6673ZM73.5999 20.1211V21.1211H74.6174L74.5998 20.1038L73.5999 20.1211ZM63.5648 20.0148C63.2471 17.0419 61.8873 14.6762 59.4994 13L58.3503 14.637C60.2465 15.968 61.3171 17.804 61.5761 20.2274L63.5648 20.0148ZM59.5031 13.0027C57.1675 11.3473 54.1874 10.5632 50.645 10.5632V12.5632C53.8995 12.5632 56.4393 13.2826 58.3466 14.6344L59.5031 13.0027ZM50.645 10.5632C48.1591 10.5632 45.9708 10.9378 44.1084 11.7231L44.8855 13.566C46.4422 12.9095 48.3525 12.5632 50.645 12.5632V10.5632ZM44.1084 11.7231C42.2674 12.4994 40.8005 13.5787 39.7669 14.9882L41.3797 16.1709C42.1586 15.1088 43.3074 14.2314 44.8855 13.566L44.1084 11.7231ZM39.7669 14.9882C38.733 16.3981 38.2063 18.0128 38.1831 19.7992L40.1829 19.8251C40.2009 18.4397 40.6011 17.2326 41.3797 16.1709L39.7669 14.9882ZM38.183 19.8121C38.183 21.2858 38.5186 22.617 39.2279 23.7666L40.93 22.7164C40.4447 21.9299 40.183 20.9749 40.183 19.8121H38.183ZM39.236 23.7795C39.9378 24.8789 40.8783 25.8021 42.0382 26.5526L43.1247 24.8735C42.1837 24.2646 41.456 23.5402 40.9219 22.7034L39.236 23.7795ZM42.05 26.5601C43.1678 27.2615 44.3985 27.8485 45.7382 28.3238L46.407 26.439C45.1927 26.0081 44.096 25.4828 43.1129 24.866L42.05 26.5601ZM45.7382 28.3238C47.0483 28.7887 48.3699 29.1799 49.7028 29.4973L50.1661 27.5517C48.9038 27.2512 47.6508 26.8803 46.407 26.439L45.7382 28.3238ZM49.6919 29.4946L55.6237 30.9776L56.1088 29.0373L50.177 27.5544L49.6919 29.4946ZM55.6396 30.9814C57.9725 31.5244 60.2126 32.2579 62.3609 33.1815L63.1508 31.3441C60.8914 30.3728 58.5385 29.6027 56.093 29.0335L55.6396 30.9814ZM62.364 33.1828C64.5062 34.0953 66.4106 35.2414 68.0828 36.6185L69.3542 35.0747C67.525 33.5683 65.4542 32.3252 63.1477 31.3428L62.364 33.1828ZM68.0873 36.6222C69.7496 37.9752 71.0611 39.605 72.0276 41.5186L73.8129 40.617C72.7197 38.4526 71.2301 36.6015 69.3498 35.071L68.0873 36.6222ZM72.0276 41.5186C72.9741 43.3927 73.465 45.6218 73.465 48.2354H75.465C75.465 45.3704 74.926 42.8211 73.8129 40.617L72.0276 41.5186ZM73.465 48.2354C73.465 51.7631 72.5666 54.8297 70.7925 57.4716L72.4528 58.5866C74.4685 55.5851 75.465 52.1226 75.465 48.2354H73.465ZM70.7944 57.4688C69.0205 60.0911 66.4399 62.173 62.9999 63.6953L63.8093 65.5242C67.5369 63.8746 70.4351 61.5694 72.4509 58.5894L70.7944 57.4688ZM63.0024 63.6942C59.5981 65.1897 55.4279 65.9577 50.4597 65.9577V67.9577C55.6249 67.9577 60.0847 67.1604 63.8068 65.5253L63.0024 63.6942ZM50.4597 65.9577C45.6378 65.9577 41.5015 65.211 38.0259 63.7497L37.2507 65.5934C41.0251 67.1803 45.4363 67.9577 50.4597 67.9577V65.9577ZM38.0277 63.7505C34.5794 62.2923 31.9142 60.1814 29.9934 57.4263L28.3528 58.5701C30.5101 61.6644 33.4883 64.0024 37.2488 65.5926L38.0277 63.7505ZM29.9961 57.4302C28.1037 54.6882 27.0562 51.3169 26.8974 47.2694L24.899 47.3478C25.0698 51.7037 26.2055 55.4588 28.35 58.5662L29.9961 57.4302ZM25.8982 48.3086H37.1749V46.3086H25.8982V48.3086ZM36.1776 47.3832C36.355 49.7556 37.0941 51.7937 38.4395 53.4405L39.9884 52.1752C38.9445 50.8974 38.3242 49.2692 38.1721 47.234L36.1776 47.3832ZM38.4395 53.4405C39.7549 55.0508 41.4606 56.241 43.5268 57.0187L44.2313 55.1468C42.4665 54.4827 41.0621 53.4897 39.9884 52.1752L38.4395 53.4405ZM43.5301 57.0199C45.5938 57.7883 47.877 58.1641 50.367 58.1641V56.1641C48.0785 56.1641 46.0364 55.819 44.228 55.1456L43.5301 57.0199ZM50.367 58.1641C52.9563 58.1641 55.2691 57.7791 57.2845 56.9817L56.5488 55.122C54.8157 55.8076 52.762 56.1641 50.367 56.1641V58.1641ZM57.2898 56.9796C59.3138 56.1656 60.949 55.0221 62.1464 53.5253L60.5847 52.2759C59.6401 53.4566 58.3093 54.4139 56.5436 55.1241L57.2898 56.9796ZM62.151 53.5194C63.3654 51.9782 63.9799 50.176 64.0029 48.1541L62.003 48.1314C61.9848 49.7345 61.5078 51.1042 60.5801 52.2817L62.151 53.5194ZM64.0029 48.1303C63.9798 46.2815 63.4302 44.6797 62.2999 43.4021L60.8019 44.7272C61.5666 45.5916 61.985 46.7086 62.0031 48.1553L64.0029 48.1303ZM62.3061 43.4092C61.2341 42.174 59.7658 41.1885 57.954 40.4245L57.1769 42.2673C58.7841 42.9451 59.9728 43.772 60.7957 44.7201L62.3061 43.4092ZM57.9675 40.4302C56.2171 39.6618 54.1858 38.9863 51.8803 38.3995L51.387 40.3377C53.6128 40.9043 55.536 41.547 57.1635 42.2615L57.9675 40.4302ZM51.883 38.4002L44.6845 36.5465L44.1858 38.4833L51.3843 40.337L51.883 38.4002ZM44.684 36.5464C39.5806 35.2352 35.6211 33.2669 32.7453 30.6846L31.4091 32.1727C34.5887 35.0279 38.8679 37.1171 44.1863 38.4835L44.684 36.5464ZM32.7506 30.6894C29.9765 28.1623 28.5665 24.8082 28.5665 20.5227H26.5665C26.5665 25.2997 28.1637 29.2163 31.4038 32.1679L32.7506 30.6894ZM28.5665 20.5227C28.5665 16.9869 29.5197 13.9308 31.4055 11.3137L29.7829 10.1444C27.6318 13.1296 26.5665 16.6026 26.5665 20.5227H28.5665ZM31.4027 11.3176C33.3274 8.6736 35.9512 6.60634 39.3086 5.12514L38.5013 3.29531C34.8559 4.9036 31.9392 7.18223 29.7858 10.1405L31.4027 11.3176ZM39.3131 5.12315C42.6677 3.62342 46.4903 2.86221 50.7995 2.86221V0.862214C46.2522 0.862214 42.145 1.66634 38.4968 3.2973L39.3131 5.12315ZM50.7995 2.86221C55.1738 2.86221 58.9591 3.62452 62.1809 5.11753L63.0218 3.30291C59.4879 1.66525 55.4054 0.862214 50.7995 0.862214V2.86221ZM62.1875 5.12059C65.4414 6.5996 67.9617 8.64306 69.7845 11.2415L71.4218 10.093C69.3724 7.17156 66.5582 4.91034 63.0151 3.29986L62.1875 5.12059ZM69.7865 11.2444C71.5993 13.8093 72.5415 16.7628 72.6001 20.1384L74.5998 20.1038C74.5347 16.353 73.4791 13.0039 71.4197 10.0901L69.7865 11.2444ZM73.5999 19.1211H62.5704V21.1211H73.5999V19.1211ZM127.82 51.881L126.935 51.4159L126.934 51.4173L127.82 51.881ZM117.439 63.0032L116.933 62.1407L116.932 62.1418L117.439 63.0032ZM87.6877 63.0032L87.1768 63.8628L87.1815 63.8657L87.6877 63.0032ZM77.307 51.8501L76.4202 52.3123L76.4226 52.3168L77.307 51.8501ZM77.307 16.8771L76.4218 16.412L76.421 16.4134L77.307 16.8771ZM87.6877 5.72407L87.1815 4.86162L87.1798 4.86266L87.6877 5.72407ZM117.439 5.72407L116.932 6.58549L116.933 6.58653L117.439 5.72407ZM127.82 16.8771L126.933 17.3393L126.936 17.3438L127.82 16.8771ZM117.872 22.2219L116.959 22.6302L116.962 22.637L117.872 22.2219ZM111.693 14.7145L111.149 15.5535L111.154 15.5565L111.693 14.7145ZM93.465 14.7145L94.0045 15.5565L94.0091 15.5535L93.465 14.7145ZM87.2552 22.2219L86.3444 21.809L86.3432 21.8116L87.2552 22.2219ZM87.2552 46.5362L86.3423 46.9445L86.3454 46.9513L87.2552 46.5362ZM93.465 54.0437L92.921 54.8827L92.9256 54.8857L93.465 54.0437ZM111.693 54.0437L112.232 54.8857L112.237 54.8827L111.693 54.0437ZM117.872 46.5362L116.961 46.1233L116.96 46.1259L117.872 46.5362ZM130.651 34.3636C130.651 41.0575 129.397 46.7291 126.935 51.4159L128.705 52.3462C131.351 47.3113 132.651 41.3047 132.651 34.3636H130.651ZM126.934 51.4173C124.481 56.1044 121.147 59.668 116.933 62.1407L117.946 63.8657C122.506 61.1893 126.093 57.338 128.706 52.3448L126.934 51.4173ZM116.932 62.1418C112.733 64.6173 107.958 65.8651 102.579 65.8651V67.8651C108.281 67.8651 113.413 66.5382 117.947 63.8646L116.932 62.1418ZM102.579 65.8651C97.2001 65.8651 92.4139 64.6173 88.1938 62.1407L87.1815 63.8657C91.7356 66.5382 96.877 67.8651 102.579 67.8651V65.8651ZM88.1986 62.1436C84.0027 59.6498 80.6664 56.0739 78.1914 51.3835L76.4226 52.3168C79.0556 57.3068 82.6397 61.1663 87.1768 63.8628L88.1986 62.1436ZM78.1938 51.388C75.7505 46.7001 74.5069 41.0375 74.5069 34.3636H72.5069C72.5069 41.2835 73.7967 47.2786 76.4202 52.3123L78.1938 51.388ZM74.5069 34.3636C74.5069 27.6684 75.7508 22.0068 78.193 17.3409L76.421 16.4134C73.7964 21.4279 72.5069 27.4239 72.5069 34.3636H74.5069ZM78.1922 17.3423C80.6672 12.6318 84.0026 9.05778 88.1956 6.58548L87.1798 4.86266C82.6398 7.53952 79.0547 11.4008 76.4218 16.412L78.1922 17.3423ZM88.1938 6.58653C92.4139 4.10996 97.2001 2.86221 102.579 2.86221V0.862214C96.877 0.862214 91.7356 2.18904 87.1815 4.86162L88.1938 6.58653ZM102.579 2.86221C107.958 2.86221 112.733 4.10997 116.932 6.58548L117.947 4.86266C113.413 2.18903 108.281 0.862214 102.579 0.862214V2.86221ZM116.933 6.58653C121.146 9.05867 124.48 12.6316 126.933 17.3393L128.707 16.4149C126.094 11.4011 122.507 7.53863 117.946 4.86162L116.933 6.58653ZM126.936 17.3438C129.397 22.0091 130.651 27.6696 130.651 34.3636H132.651C132.651 27.4228 131.351 21.4256 128.705 16.4105L126.936 17.3438ZM121.127 34.3636C121.127 29.4657 120.361 25.2677 118.782 21.8069L116.962 22.637C118.39 25.7671 119.127 29.6635 119.127 34.3636H121.127ZM118.785 21.8137C117.235 18.3489 115.058 15.6825 112.232 13.8725L111.154 15.5565C113.601 17.1243 115.543 19.4629 116.959 22.6302L118.785 21.8137ZM112.237 13.8754C109.423 12.051 106.193 11.1502 102.579 11.1502V13.1502C105.845 13.1502 108.69 13.959 111.149 15.5535L112.237 13.8754ZM102.579 11.1502C98.9653 11.1502 95.7346 12.051 92.921 13.8754L94.0091 15.5535C96.4682 13.959 99.3135 13.1502 102.579 13.1502V11.1502ZM92.9256 13.8725C90.1015 15.6816 87.9144 18.3463 86.3444 21.809L88.1659 22.6349C89.603 19.4654 91.5558 17.1252 94.0045 15.5565L92.9256 13.8725ZM86.3432 21.8116C84.7865 25.271 84.0307 29.4673 84.0307 34.3636H86.0307C86.0307 29.662 86.7579 25.7638 88.1671 22.6323L86.3432 21.8116ZM84.0307 34.3636C84.0307 39.2603 84.7866 43.4658 86.3423 46.9445L88.168 46.128C86.7578 42.9746 86.0307 39.065 86.0307 34.3636H84.0307ZM86.3454 46.9513C87.9156 50.3929 90.1016 53.0545 92.921 54.8827L94.0091 53.2046C91.5558 51.6138 89.6018 49.2704 88.1649 46.1211L86.3454 46.9513ZM92.9256 54.8857C95.7387 56.6878 98.9677 57.5771 102.579 57.5771V55.5771C99.311 55.5771 96.4641 54.7774 94.0045 53.2016L92.9256 54.8857ZM102.579 57.5771C106.19 57.5771 109.419 56.6878 112.232 54.8857L111.154 53.2016C108.694 54.7774 105.847 55.5771 102.579 55.5771V57.5771ZM112.237 54.8827C115.058 53.0536 117.234 50.3904 118.784 46.9466L116.96 46.1259C115.544 49.273 113.601 51.6147 111.149 53.2046L112.237 54.8827ZM118.783 46.9492C120.361 43.4691 121.127 39.2619 121.127 34.3636H119.127C119.127 39.0634 118.39 42.9712 116.961 46.1233L118.783 46.9492ZM132.917 66H131.917V67H132.917V66ZM132.917 2.72727V1.72727H131.917V2.72727H132.917ZM144.379 2.72727H145.379V1.72727H144.379V2.72727ZM144.379 56.3917H143.379V57.3917H144.379V56.3917ZM172.247 56.3917H173.247V55.3917H172.247V56.3917ZM172.247 66V67H173.247V66H172.247ZM133.917 66V2.72727H131.917V66H133.917ZM132.917 3.72727H144.379V1.72727H132.917V3.72727ZM143.379 2.72727V56.3917H145.379V2.72727H143.379ZM144.379 57.3917H172.247V55.3917H144.379V57.3917ZM171.247 56.3917V66H173.247V56.3917H171.247ZM172.247 65H132.917V67H172.247V65ZM183.129 66V67H183.848L184.077 66.318L183.129 66ZM170.895 66L169.951 65.6679L169.483 67H170.895V66ZM193.17 2.72727V1.72727H192.462L192.227 2.3952L193.17 2.72727ZM207.32 2.72727L208.263 2.39479L208.028 1.72727H207.32V2.72727ZM229.626 66V67H231.039L230.569 65.6675L229.626 66ZM217.392 66L216.444 66.3185L216.673 67H217.392V66ZM200.492 15.7031L201.44 15.3846L201.211 14.7031H200.492V15.7031ZM199.998 15.7031V14.7031H199.278L199.05 15.3852L199.998 15.7031ZM183.531 41.1914V40.1914H182.531V41.1914H183.531ZM216.897 41.1914H217.897V40.1914H216.897V41.1914ZM216.897 50.3981V51.3981H217.897V50.3981H216.897ZM183.531 50.3981H182.531V51.3981H183.531V50.3981ZM183.129 65H170.895V67H183.129V65ZM171.838 66.3321L194.113 3.05934L192.227 2.3952L169.951 65.6679L171.838 66.3321ZM193.17 3.72727H207.32V1.72727H193.17V3.72727ZM206.377 3.05975L228.683 66.3325L230.569 65.6675L208.263 2.39479L206.377 3.05975ZM229.626 65H217.392V67H229.626V65ZM218.339 65.6815L201.44 15.3846L199.544 16.0216L216.444 66.3185L218.339 65.6815ZM200.492 14.7031H199.998V16.7031H200.492V14.7031ZM199.05 15.3852L182.181 65.682L184.077 66.318L200.946 16.0211L199.05 15.3852ZM183.531 42.1914H216.897V40.1914H183.531V42.1914ZM215.897 41.1914V50.3981H217.897V41.1914H215.897ZM216.897 49.3981H183.531V51.3981H216.897V49.3981ZM184.531 50.3981V41.1914H182.531V50.3981H184.531ZM228.459 2.72727H229.459V1.72727H228.459V2.72727ZM227.409 14.6836L226.467 14.3466L226.465 14.3523L227.409 14.6836ZM224.597 20.2447L225.423 20.8083L225.427 20.8038L224.597 20.2447ZM220.519 24.7553L219.975 25.5942L220.59 25.9931L221.155 25.527L220.519 24.7553ZM215.329 21.3878L214.495 20.8354L213.938 21.6771L214.785 22.2267L215.329 21.3878ZM218.295 15.8576L219.215 16.2504L219.216 16.2469L218.295 15.8576ZM219.562 2.72727V1.72727H218.562V2.72727H219.562ZM244.061 2.72727H245.061V1.72727H244.061V2.72727ZM243.011 14.6836L242.069 14.3466L242.067 14.3523L243.011 14.6836ZM240.199 20.2447L241.025 20.8083L241.028 20.8038L240.199 20.2447ZM236.152 24.7553L235.608 25.5942L236.227 25.9959L236.793 25.5227L236.152 24.7553ZM230.962 21.3878L230.124 20.8424L229.578 21.6817L230.417 22.2267L230.962 21.3878ZM233.897 15.8576L234.816 16.2504L234.818 16.2469L233.897 15.8576ZM235.163 2.72727V1.72727H234.163V2.72727H235.163ZM227.459 2.72727V9.02983H229.459V2.72727H227.459ZM227.459 9.02983C227.459 10.712 227.135 12.4825 226.467 14.3466L228.35 15.0206C229.084 12.9714 229.459 10.9727 229.459 9.02983H227.459ZM226.465 14.3523C225.815 16.2046 224.917 17.9821 223.768 19.6855L225.427 20.8038C226.667 18.9647 227.643 17.0347 228.352 15.0148L226.465 14.3523ZM223.771 19.681C222.626 21.3595 221.329 22.7915 219.883 23.9837L221.155 25.527C222.757 24.2063 224.18 22.6313 225.423 20.8083L223.771 19.681ZM221.064 23.9164L215.873 20.5489L214.785 22.2267L219.975 25.5942L221.064 23.9164ZM216.163 21.9402C217.33 20.1778 218.347 18.2807 219.215 16.2504L217.375 15.4648C216.553 17.3891 215.593 19.1787 214.495 20.8354L216.163 21.9402ZM219.216 16.2469C220.12 14.1079 220.562 11.7172 220.562 9.09162H218.562C218.562 11.4916 218.159 13.6116 217.374 15.4683L219.216 16.2469ZM220.562 9.09162V2.72727H218.562V9.09162H220.562ZM219.562 3.72727H228.459V1.72727H219.562V3.72727ZM243.061 2.72727V9.02983H245.061V2.72727H243.061ZM243.061 9.02983C243.061 10.712 242.736 12.4825 242.069 14.3466L243.952 15.0206C244.686 12.9714 245.061 10.9727 245.061 9.02983H243.061ZM242.067 14.3523C241.417 16.2046 240.519 17.9821 239.37 19.6855L241.028 20.8038C242.269 18.9647 243.245 17.0347 243.954 15.0148L242.067 14.3523ZM239.373 19.681C238.226 21.3618 236.938 22.7953 235.511 23.988L236.793 25.5227C238.373 24.2026 239.783 22.6289 241.025 20.8083L239.373 19.681ZM236.696 23.9164L231.506 20.5489L230.417 22.2267L235.608 25.5942L236.696 23.9164ZM231.8 21.9331C232.945 20.1727 233.951 18.2779 234.816 16.2504L232.977 15.4648C232.154 17.3918 231.203 19.1839 230.124 20.8424L231.8 21.9331ZM234.818 16.2469C235.722 14.1079 236.163 11.7172 236.163 9.09162H234.163C234.163 11.4916 233.76 13.6116 232.976 15.4683L234.818 16.2469ZM236.163 9.09162V2.72727H234.163V9.09162H236.163ZM235.163 3.72727H244.061V1.72727H235.163V3.72727ZM267.008 63.343L266.426 64.1562L266.431 64.1599L267.008 63.343ZM258.635 52.1282L257.705 52.4955L257.707 52.5003L258.635 52.1282ZM255.731 34.4254L254.731 34.4224V34.4254H255.731ZM258.666 16.8153L257.739 16.4419L257.738 16.4439L258.666 16.8153ZM267.039 5.69318L266.465 4.87417L266.463 4.8757L267.039 5.69318ZM293.176 5.69318L292.602 6.5122L292.602 6.5122L293.176 5.69318ZM301.548 16.8153L300.619 17.1854L300.621 17.1888L301.548 16.8153ZM301.548 52.1591L300.62 51.7884L300.619 51.7904L301.548 52.1591ZM293.176 63.343L292.599 62.5262L292.597 62.5277L293.176 63.343ZM289.468 51.6957L288.607 51.1879L288.606 51.1892L289.468 51.6957ZM291.353 21.7585L292.309 21.4648L292.309 21.4648L291.353 21.7585ZM286.904 14.0348L286.229 14.773L286.234 14.7769L286.904 14.0348ZM270.777 17.2788L271.639 17.7852L271.64 17.7832L270.777 17.2788ZM267.317 34.4254L268.317 34.4295L268.317 34.4282L267.317 34.4254ZM268.831 47.1541L267.873 47.4409L267.874 47.4462L268.831 47.1541ZM273.279 54.9396L272.605 55.6778L272.609 55.6817L273.279 54.9396ZM280.107 66.2049C275.196 66.2049 271.039 64.9654 267.585 62.5262L266.431 64.1599C270.268 66.8698 274.843 68.2049 280.107 68.2049V66.2049ZM267.59 62.5299C264.146 60.0644 261.462 56.4928 259.563 51.7561L257.707 52.5003C259.722 57.5264 262.62 61.4313 266.426 64.1561L267.59 62.5299ZM259.565 51.7609C257.687 47.0058 256.731 41.2364 256.731 34.4254H254.731C254.731 41.4142 255.711 47.4466 257.705 52.4955L259.565 51.7609ZM256.731 34.4284C256.751 27.6162 257.718 21.8786 259.595 17.1867L257.738 16.4439C255.742 21.4325 254.752 27.435 254.731 34.4224L256.731 34.4284ZM259.594 17.1888C261.492 12.4738 264.174 8.93475 267.615 6.51066L266.463 4.8757C262.653 7.55957 259.754 11.4353 257.739 16.4419L259.594 17.1888ZM267.612 6.5122C271.067 4.09185 275.216 2.86221 280.107 2.86221V0.862214C274.865 0.862214 270.301 2.18656 266.465 4.87417L267.612 6.5122ZM280.107 2.86221C284.998 2.86221 289.147 4.09185 292.602 6.5122L293.75 4.87417C289.913 2.18656 285.35 0.862214 280.107 0.862214V2.86221ZM292.602 6.5122C296.062 8.93587 298.742 12.4733 300.619 17.1854L302.477 16.4453C300.482 11.4358 297.581 7.55844 293.75 4.87417L292.602 6.5122ZM300.621 17.1888C302.517 21.9001 303.483 27.6361 303.483 34.4254H305.483C305.483 27.4562 304.493 21.4522 302.476 16.4419L300.621 17.1888ZM303.483 34.4254C303.483 41.2564 302.517 47.0347 300.62 51.7884L302.477 52.5298C304.493 47.4795 305.483 41.4354 305.483 34.4254H303.483ZM300.619 51.7904C298.741 56.5238 296.06 60.0822 292.599 62.5262L293.753 64.1599C297.583 61.4547 300.483 57.5571 302.478 52.5278L300.619 51.7904ZM292.597 62.5277C289.165 64.9654 285.018 66.2049 280.107 66.2049V68.2049C285.371 68.2049 289.937 66.8699 293.755 64.1583L292.597 62.5277ZM280.107 58.5348C284.473 58.5348 287.895 56.3489 290.331 52.2021L288.606 51.1892C286.469 54.828 283.651 56.5348 280.107 56.5348V58.5348ZM290.33 52.2035C292.769 48.0649 293.929 42.0976 293.929 34.4254H291.929C291.929 41.9536 290.781 47.4997 288.607 51.1879L290.33 52.2035ZM293.929 34.4254C293.929 29.3373 293.398 25.0089 292.309 21.4648L290.397 22.0522C291.409 25.3462 291.929 29.4624 291.929 34.4254H293.929ZM292.309 21.4648C291.225 17.9369 289.666 15.1817 287.574 13.2927L286.234 14.7769C287.973 16.3481 289.38 18.742 290.397 22.0522L292.309 21.4648ZM287.579 13.2967C285.477 11.376 282.97 10.4087 280.107 10.4087V12.4087C282.476 12.4087 284.5 13.1922 286.229 14.7729L287.579 13.2967ZM280.107 10.4087C275.758 10.4087 272.346 12.6098 269.914 16.7743L271.64 17.7832C273.78 14.1211 276.589 12.4087 280.107 12.4087V10.4087ZM269.915 16.7723C267.497 20.8884 266.338 26.8124 266.317 34.4227L268.317 34.4282C268.337 26.9617 269.484 21.4547 271.639 17.7852L269.915 16.7723ZM266.317 34.4213C266.296 39.5294 266.806 43.8773 267.873 47.4409L269.789 46.8673C268.796 43.5516 268.296 39.4138 268.317 34.4295L266.317 34.4213ZM267.874 47.4462C268.958 50.9939 270.516 53.7684 272.605 55.6778L273.954 54.2015C272.212 52.6094 270.804 50.1936 269.787 46.862L267.874 47.4462ZM272.609 55.6817C274.713 57.5817 277.229 58.5348 280.107 58.5348V56.5348C277.713 56.5348 275.677 55.7578 273.95 54.1975L272.609 55.6817ZM304.035 54.2599H303.035V55.2599H304.035V54.2599ZM304.035 45.146L303.19 44.6111L303.035 44.8561V45.146H304.035ZM330.883 2.72727V1.72727H330.332L330.038 2.19247L330.883 2.72727ZM338.483 2.72727H339.483V1.72727H338.483V2.72727ZM338.483 15.7031V16.7031H339.483V15.7031H338.483ZM333.849 15.7031V14.7031H333.297L333.003 15.1694L333.849 15.7031ZM315.775 44.3427L314.929 43.809L314.775 44.0535V44.3427H315.775ZM315.775 44.837H314.775V45.837H315.775V44.837ZM353.251 44.837H354.251V43.837H353.251V44.837ZM353.251 54.2599V55.2599H354.251V54.2599H353.251ZM334.219 66H333.219V67H334.219V66ZM334.219 51.4794L333.22 51.4491L333.219 51.4643V51.4794H334.219ZM334.343 47.4013L335.342 47.4316L335.343 47.4164V47.4013H334.343ZM334.343 2.72727V1.72727H333.343V2.72727H334.343ZM345.156 2.72727H346.156V1.72727H345.156V2.72727ZM345.156 66V67H346.156V66H345.156ZM305.035 54.2599V45.146H303.035V54.2599H305.035ZM304.88 45.6808L331.728 3.26207L330.038 2.19247L303.19 44.6111L304.88 45.6808ZM330.883 3.72727H338.483V1.72727H330.883V3.72727ZM337.483 2.72727V15.7031H339.483V2.72727H337.483ZM338.483 14.7031H333.849V16.7031H338.483V14.7031ZM333.003 15.1694L314.929 43.809L316.621 44.8764L334.694 16.2368L333.003 15.1694ZM314.775 44.3427V44.837H316.775V44.3427H314.775ZM315.775 45.837H353.251V43.837H315.775V45.837ZM352.251 44.837V54.2599H354.251V44.837H352.251ZM353.251 53.2599H304.035V55.2599H353.251V53.2599ZM335.219 66V51.4794H333.219V66H335.219ZM335.219 51.5097L335.342 47.4316L333.343 47.371L333.22 51.4491L335.219 51.5097ZM335.343 47.4013V2.72727H333.343V47.4013H335.343ZM334.343 3.72727H345.156V1.72727H334.343V3.72727ZM344.156 2.72727V66H346.156V2.72727H344.156ZM345.156 65H334.219V67H345.156V65Z" fill="white" fill-opacity="0.01"/>
</svg>
