<svg width="1879" height="297" viewBox="0 0 1879 297" fill="none" xmlns="http://www.w3.org/2000/svg">
<g clip-path="url(#clip0_101_3)">
<path d="M-1.96768 135.5V113.55C-1.96768 107.237 -0.78409 100.674 1.5831 93.859C4.02202 86.9726 7.32173 80.4808 11.4822 74.3835C15.7145 68.2145 20.4489 63.0138 25.6854 58.7816L43.7621 70.5099C39.5298 76.8942 35.9791 83.5653 33.1097 90.5234C30.3121 97.4098 28.9492 105.013 29.021 113.335V135.5H-1.96768ZM52.5852 135.5V113.55C52.5852 107.237 53.7688 100.674 56.136 93.859C58.5749 86.9726 61.8746 80.4808 66.0352 74.3835C70.2674 68.2145 75.0018 63.0138 80.2383 58.7816L98.315 70.5099C94.0827 76.8942 90.532 83.5653 87.6626 90.5234C84.8651 97.4098 83.5021 105.013 83.5739 113.335V135.5H52.5852ZM282.712 140.988H242.47C241.323 134.388 239.206 128.542 236.122 123.449C233.037 118.284 229.2 113.908 224.609 110.322C220.018 106.735 214.781 104.045 208.899 102.252C203.089 100.387 196.812 99.4542 190.069 99.4542C178.09 99.4542 167.473 102.467 158.22 108.493C148.966 114.446 141.721 123.198 136.485 134.747C131.248 146.224 128.63 160.248 128.63 176.818C128.63 193.675 131.248 207.879 136.485 219.428C141.793 230.905 149.038 239.585 158.22 245.467C167.473 251.277 178.054 254.182 189.962 254.182C196.561 254.182 202.73 253.321 208.469 251.6C214.279 249.806 219.48 247.188 224.071 243.745C228.733 240.302 232.643 236.07 235.799 231.048C239.027 226.027 241.251 220.288 242.47 213.832L282.712 214.048C281.206 224.521 277.942 234.348 272.921 243.53C267.971 252.712 261.479 260.817 253.445 267.847C245.411 274.805 236.014 280.257 225.254 284.202C214.494 288.076 202.551 290.013 189.424 290.013C170.056 290.013 152.768 285.529 137.561 276.563C122.353 267.596 110.374 254.648 101.623 237.719C92.8712 220.79 88.4955 200.49 88.4955 176.818C88.4955 153.075 92.907 132.774 101.73 115.917C110.553 98.9879 122.569 86.0401 137.776 77.0735C152.983 68.1069 170.199 63.6236 189.424 63.6236C201.69 63.6236 213.096 65.3452 223.64 68.7883C234.185 72.2315 243.582 77.2887 251.831 83.9599C260.081 90.5593 266.859 98.6651 272.168 108.277C277.548 117.818 281.063 128.721 282.712 140.988ZM285.939 287V66.6364H429.262V100.1H325.859V159.925H421.837V193.388H325.859V253.537H430.123V287H285.939ZM436.658 287V66.6364H476.578V253.537H573.632V287H436.658ZM574.949 287V66.6364H718.272V100.1H614.869V159.925H710.847V193.388H614.869V253.537H719.133V287H574.949ZM845.426 127.215C844.422 117.818 840.19 110.501 832.73 105.265C825.341 100.028 815.729 97.4098 803.893 97.4098C795.572 97.4098 788.434 98.6651 782.481 101.176C776.527 103.686 771.972 107.094 768.815 111.398C765.659 115.702 764.045 120.615 763.973 126.139C763.973 130.73 765.014 134.711 767.094 138.082C769.246 141.454 772.151 144.323 775.809 146.69C779.468 148.986 783.521 150.923 787.968 152.501C792.416 154.079 796.899 155.406 801.418 156.482L822.077 161.647C830.398 163.583 838.396 166.202 846.072 169.501C853.819 172.801 860.741 176.962 866.839 181.983C873.008 187.004 877.885 193.066 881.472 200.167C885.059 207.269 886.852 215.59 886.852 225.13C886.852 238.042 883.552 249.412 876.953 259.239C870.353 268.995 860.813 276.635 848.331 282.158C835.922 287.61 820.894 290.336 803.247 290.336C786.103 290.336 771.218 287.681 758.593 282.373C746.04 277.065 736.213 269.318 729.111 259.132C722.081 248.946 718.28 236.536 717.706 221.902H756.98C757.553 229.578 759.921 235.962 764.081 241.055C768.242 246.148 773.657 249.95 780.329 252.461C787.071 254.971 794.603 256.227 802.924 256.227C811.604 256.227 819.208 254.935 825.736 252.353C832.335 249.699 837.5 246.04 841.23 241.378C844.96 236.643 846.861 231.12 846.933 224.808C846.861 219.069 845.175 214.335 841.875 210.604C838.576 206.803 833.949 203.646 827.995 201.136C822.113 198.553 815.227 196.258 807.336 194.249L782.265 187.793C764.117 183.131 749.77 176.065 739.226 166.596C728.753 157.056 723.516 144.395 723.516 128.614C723.516 115.63 727.031 104.26 734.061 94.5046C741.162 84.7489 750.81 77.1811 763.005 71.8011C775.2 66.3494 789.008 63.6236 804.431 63.6236C820.069 63.6236 833.77 66.3494 845.534 71.8011C857.37 77.1811 866.659 84.6772 873.402 94.2894C880.145 103.83 883.624 114.805 883.839 127.215H845.426ZM879.427 100.1V66.6364H1055.24V100.1H987.134V287H947.537V100.1H879.427ZM1095.73 66.6364V287H1055.81V66.6364H1095.73ZM1133.92 287H1091.31L1168.89 66.6364H1218.17L1295.86 287H1253.25L1194.39 111.828H1192.67L1133.92 287ZM1135.32 200.598H1251.53V232.662H1135.32V200.598ZM1291.56 287V66.6364H1331.48V253.537H1428.53V287H1291.56ZM1449.03 66.6364V88.5866C1449.03 94.8991 1447.81 101.463 1445.37 108.277C1443 115.02 1439.74 121.476 1435.58 127.645C1431.42 133.743 1426.68 138.979 1421.37 143.355L1403.3 131.626C1407.24 125.673 1410.69 119.252 1413.63 112.366C1416.57 105.408 1418.04 97.5533 1418.04 88.8018V66.6364H1449.03ZM1503.36 66.6364V88.5866C1503.36 94.8991 1502.14 101.463 1499.71 108.277C1497.34 115.02 1494.08 121.476 1489.91 127.645C1485.75 133.743 1481.06 138.979 1475.82 143.355L1457.74 131.626C1461.62 125.673 1465.02 119.252 1467.96 112.366C1470.91 105.408 1472.38 97.5533 1472.38 88.8018V66.6364H1503.36ZM1628.9 291.196C1611.19 291.196 1595.98 286.713 1583.28 277.746C1570.66 268.708 1560.94 255.689 1554.12 238.688C1547.38 221.615 1544.01 201.064 1544.01 177.033C1544.08 153.003 1547.49 132.559 1554.23 115.702C1561.04 98.7727 1570.76 85.8608 1583.39 76.9659C1596.09 68.071 1611.26 63.6236 1628.9 63.6236C1646.55 63.6236 1661.72 68.071 1674.42 76.9659C1687.12 85.8608 1696.84 98.7727 1703.58 115.702C1710.39 132.631 1713.8 153.075 1713.8 177.033C1713.8 201.136 1710.39 221.723 1703.58 238.795C1696.84 255.796 1687.12 268.78 1674.42 277.746C1661.79 286.713 1646.62 291.196 1628.9 291.196ZM1628.9 257.518C1642.68 257.518 1653.54 250.739 1661.51 237.181C1669.54 223.552 1673.56 203.503 1673.56 177.033C1673.56 159.531 1671.73 144.825 1668.07 132.918C1664.41 121.01 1659.25 112.043 1652.58 106.018C1645.9 99.9205 1638.01 96.8718 1628.9 96.8718C1615.2 96.8718 1604.37 103.686 1596.41 117.316C1588.45 130.873 1584.43 150.779 1584.36 177.033C1584.29 194.608 1586.04 209.385 1589.63 221.364C1593.29 233.344 1598.45 242.382 1605.12 248.479C1611.8 254.505 1619.72 257.518 1628.9 257.518ZM1795.31 290.013C1779.81 290.013 1766.04 287.359 1753.99 282.05C1742.01 276.742 1732.54 269.354 1725.58 259.885C1718.62 250.416 1714.93 239.477 1714.5 227.067H1754.96C1755.31 233.021 1757.29 238.222 1760.87 242.669C1764.46 247.045 1769.23 250.452 1775.18 252.891C1781.14 255.33 1787.81 256.549 1795.2 256.549C1803.09 256.549 1810.08 255.186 1816.18 252.461C1822.28 249.663 1827.05 245.789 1830.49 240.84C1833.93 235.89 1835.62 230.187 1835.55 223.732C1835.62 217.06 1833.9 211.178 1830.38 206.085C1826.87 200.992 1821.77 197.011 1815.1 194.142C1808.5 191.272 1800.54 189.838 1791.22 189.838H1771.74V159.064H1791.22C1798.89 159.064 1805.6 157.737 1811.34 155.083C1817.15 152.429 1821.7 148.699 1825 143.893C1828.3 139.015 1829.92 133.384 1829.84 127C1829.92 120.759 1828.52 115.343 1825.65 110.752C1822.85 106.089 1818.87 102.467 1813.7 99.8846C1808.61 97.3022 1802.62 96.011 1795.74 96.011C1788.99 96.011 1782.75 97.2305 1777.01 99.6694C1771.27 102.108 1766.65 105.587 1763.13 110.107C1759.62 114.554 1757.75 119.862 1757.54 126.031H1719.12C1719.41 113.693 1722.96 102.862 1729.78 93.5362C1736.66 84.1392 1745.85 76.8224 1757.32 71.5859C1768.8 66.2777 1781.68 63.6236 1795.95 63.6236C1810.66 63.6236 1823.42 66.3853 1834.26 71.9087C1845.16 77.3604 1853.59 84.7131 1859.54 93.9666C1865.5 103.22 1868.47 113.442 1868.47 124.632C1868.54 137.042 1864.89 147.444 1857.5 155.836C1850.18 164.229 1840.57 169.717 1828.66 172.299V174.021C1844.16 176.173 1856.03 181.911 1864.28 191.236C1872.6 200.49 1876.72 212.003 1876.65 225.776C1876.65 238.114 1873.14 249.161 1866.11 258.917C1859.15 268.6 1849.54 276.204 1837.27 281.728C1825.07 287.251 1811.09 290.013 1795.31 290.013Z" fill="#141414"/>
<path d="M-1.96768 135.5H-2.96768V136.5H-1.96768V135.5ZM1.5831 93.859L0.640454 93.5252L0.638467 93.5309L1.5831 93.859ZM11.4822 74.3835L10.6576 73.8178L10.6562 73.8199L11.4822 74.3835ZM25.6854 58.7816L26.2297 57.9427L25.621 57.5478L25.0568 58.0039L25.6854 58.7816ZM43.7621 70.5099L44.5956 71.0625L45.1536 70.2207L44.3064 69.671L43.7621 70.5099ZM33.1097 90.5234L32.1852 90.1422L32.1833 90.1471L33.1097 90.5234ZM29.021 113.335L30.021 113.335L30.0209 113.326L29.021 113.335ZM29.021 135.5V136.5H30.021V135.5H29.021ZM52.5852 135.5H51.5852V136.5H52.5852V135.5ZM56.136 93.859L55.1934 93.5252L55.1914 93.5309L56.136 93.859ZM66.0352 74.3835L65.2106 73.8178L65.2091 73.8199L66.0352 74.3835ZM80.2383 58.7816L80.7826 57.9427L80.1739 57.5478L79.6097 58.0039L80.2383 58.7816ZM98.315 70.5099L99.1485 71.0625L99.7065 70.2207L98.8593 69.671L98.315 70.5099ZM87.6626 90.5234L86.7381 90.1422L86.7362 90.1471L87.6626 90.5234ZM83.5739 113.335H84.5739L84.5738 113.326L83.5739 113.335ZM83.5739 135.5V136.5H84.5739V135.5H83.5739ZM-0.967684 135.5V113.55H-2.96768V135.5H-0.967684ZM-0.967684 113.55C-0.967684 107.364 0.192038 100.911 2.52773 94.1871L0.638467 93.5309C-1.76022 100.436 -2.96768 107.111 -2.96768 113.55H-0.967684ZM2.52573 94.1929C4.93555 87.3886 8.19586 80.974 12.3083 74.9472L10.6562 73.8199C6.44761 79.9877 3.10849 86.5566 0.640471 93.5252L2.52573 94.1929ZM12.3068 74.9492C16.4904 68.8512 21.1605 63.7244 26.314 59.5593L25.0568 58.0039C19.7372 62.3033 14.9386 67.5777 10.6576 73.8178L12.3068 74.9492ZM25.1411 59.6205L43.2178 71.3488L44.3064 69.671L26.2297 57.9427L25.1411 59.6205ZM42.9286 69.9574C38.6612 76.3947 35.0797 83.1231 32.1853 90.1422L34.0342 90.9047C36.8784 84.0075 40.3985 77.3936 44.5956 71.0625L42.9286 69.9574ZM32.1833 90.1471C29.3304 97.1694 27.9483 104.906 28.021 113.343L30.0209 113.326C29.9502 105.121 31.2939 97.6501 34.0362 90.8998L32.1833 90.1471ZM28.021 113.335V135.5H30.021V113.335H28.021ZM29.021 134.5H-1.96768V136.5H29.021V134.5ZM53.5852 135.5V113.55H51.5852V135.5H53.5852ZM53.5852 113.55C53.5852 107.364 54.7449 100.911 57.0806 94.1871L55.1914 93.5309C52.7927 100.436 51.5852 107.111 51.5852 113.55H53.5852ZM57.0786 94.1929C59.4885 87.3886 62.7488 80.974 66.8612 74.9472L65.2091 73.8199C61.0005 79.9877 57.6614 86.5566 55.1934 93.5252L57.0786 94.1929ZM66.8598 74.9492C71.0433 68.8512 75.7135 63.7244 80.8669 59.5593L79.6097 58.0039C74.2901 62.3033 69.4915 67.5777 65.2106 73.8178L66.8598 74.9492ZM79.694 59.6205L97.7707 71.3488L98.8593 69.671L80.7826 57.9427L79.694 59.6205ZM97.4815 69.9574C93.2141 76.3947 89.6326 83.1231 86.7382 90.1422L88.5871 90.9047C91.4313 84.0075 94.9514 77.3936 99.1485 71.0625L97.4815 69.9574ZM86.7362 90.1471C83.8833 97.1694 82.5012 104.906 82.5739 113.343L84.5738 113.326C84.5031 105.121 85.8468 97.6501 88.5891 90.8998L86.7362 90.1471ZM82.5739 113.335V135.5H84.5739V113.335H82.5739ZM83.5739 134.5H52.5852V136.5H83.5739V134.5ZM282.712 140.988V141.988H283.856L283.704 140.854L282.712 140.988ZM242.47 140.988L241.485 141.159L241.629 141.988H242.47V140.988ZM236.122 123.449L235.263 123.962L235.267 123.967L236.122 123.449ZM224.609 110.322L225.224 109.534L225.224 109.534L224.609 110.322ZM208.899 102.252L208.594 103.204L208.601 103.206L208.608 103.208L208.899 102.252ZM158.22 108.493L158.761 109.334L158.766 109.331L158.22 108.493ZM136.485 134.747L137.395 135.162L137.396 135.16L136.485 134.747ZM136.485 219.428L135.574 219.841L135.577 219.847L136.485 219.428ZM158.22 245.467L157.68 246.309L157.688 246.314L158.22 245.467ZM208.469 251.6L208.756 252.558L208.764 252.555L208.469 251.6ZM224.071 243.745L223.477 242.941L223.471 242.945L224.071 243.745ZM235.799 231.048L234.958 230.508L234.952 230.516L235.799 231.048ZM242.47 213.832L242.476 212.832L241.642 212.828L241.488 213.647L242.47 213.832ZM282.712 214.048L283.702 214.19L283.866 213.054L282.718 213.048L282.712 214.048ZM272.921 243.53L272.043 243.05L272.041 243.055L272.921 243.53ZM253.445 267.847L254.1 268.603L254.104 268.6L253.445 267.847ZM225.254 284.202L225.593 285.143L225.599 285.141L225.254 284.202ZM137.561 276.563L138.069 275.701L138.069 275.701L137.561 276.563ZM101.623 237.719L100.734 238.179L100.734 238.179L101.623 237.719ZM101.73 115.917L102.616 116.381L102.617 116.379L101.73 115.917ZM137.776 77.0735L137.268 76.2121L137.268 76.2121L137.776 77.0735ZM223.64 68.7883L223.951 67.8377L223.951 67.8377L223.64 68.7883ZM251.831 83.9599L251.203 84.7374L251.207 84.7407L251.831 83.9599ZM272.168 108.277L271.292 108.761L271.297 108.769L272.168 108.277ZM282.712 139.988H242.47V141.988H282.712V139.988ZM243.455 140.816C242.289 134.109 240.134 128.143 236.977 122.931L235.267 123.967C238.279 128.941 240.356 134.667 241.485 141.159L243.455 140.816ZM236.98 122.936C233.835 117.669 229.916 113.199 225.224 109.534L223.993 111.11C228.484 114.618 232.24 118.899 235.263 123.962L236.98 122.936ZM225.224 109.534C220.531 105.867 215.184 103.122 209.191 101.295L208.608 103.208C214.379 104.968 219.504 107.603 223.993 111.11L225.224 109.534ZM209.205 101.3C203.286 99.3997 196.905 98.4542 190.069 98.4542V100.454C196.719 100.454 202.892 101.374 208.594 103.204L209.205 101.3ZM190.069 98.4542C177.913 98.4542 167.104 101.514 157.674 107.655L158.766 109.331C167.843 103.42 178.267 100.454 190.069 100.454V98.4542ZM157.679 107.652C148.24 113.725 140.878 122.637 135.574 134.334L137.396 135.16C142.565 123.759 149.693 115.168 158.761 109.333L157.679 107.652ZM135.575 134.332C130.264 145.973 127.63 160.148 127.63 176.818H129.63C129.63 160.348 132.233 146.475 137.395 135.162L135.575 134.332ZM127.63 176.818C127.63 193.773 130.263 208.127 135.574 219.841L137.396 219.015C132.234 207.631 129.63 193.578 129.63 176.818H127.63ZM135.577 219.847C140.952 231.469 148.314 240.308 157.68 246.309L158.759 244.625C149.762 238.861 142.634 230.34 137.392 219.008L135.577 219.847ZM157.688 246.314C167.115 252.233 177.883 255.182 189.962 255.182V253.182C178.225 253.182 167.832 250.321 158.752 244.62L157.688 246.314ZM189.962 255.182C196.649 255.182 202.915 254.31 208.756 252.558L208.181 250.642C202.545 252.333 196.474 253.182 189.962 253.182V255.182ZM208.764 252.555C214.677 250.73 219.982 248.061 224.671 244.545L223.471 242.945C218.977 246.315 213.881 248.883 208.174 250.644L208.764 252.555ZM224.665 244.549C229.43 241.03 233.425 236.705 236.646 231.58L234.952 230.516C231.861 235.434 228.037 239.573 223.477 242.941L224.665 244.549ZM236.64 231.589C239.944 226.449 242.212 220.588 243.453 214.018L241.488 213.647C240.29 219.989 238.11 225.605 234.958 230.508L236.64 231.589ZM242.465 214.832L282.707 215.048L282.718 213.048L242.476 212.832L242.465 214.832ZM281.723 213.905C280.233 224.261 277.007 233.974 272.044 243.05L273.798 244.01C278.878 234.722 282.179 224.78 283.702 214.19L281.723 213.905ZM272.041 243.055C267.149 252.129 260.733 260.142 252.787 267.095L254.104 268.6C262.226 261.493 268.794 253.294 273.801 244.004L272.041 243.055ZM252.791 267.091C244.855 273.964 235.565 279.357 224.91 283.264L225.599 285.141C236.463 281.158 245.968 275.647 254.1 268.603L252.791 267.091ZM224.916 283.262C214.279 287.091 202.452 289.013 189.424 289.013V291.013C202.65 291.013 214.71 289.061 225.593 285.143L224.916 283.262ZM189.424 289.013C170.217 289.013 153.108 284.569 138.069 275.701L137.053 277.424C152.429 286.49 169.895 291.013 189.424 291.013V289.013ZM138.069 275.701C123.036 266.838 111.183 254.036 102.511 237.26L100.734 238.179C109.565 255.261 121.67 268.354 137.053 277.424L138.069 275.701ZM102.511 237.26C93.8485 220.503 89.4955 200.368 89.4955 176.818H87.4955C87.4955 200.612 91.8938 221.077 100.734 238.179L102.511 237.26ZM89.4955 176.818C89.4955 153.197 93.8842 133.064 102.616 116.381L100.844 115.453C91.9299 132.485 87.4955 152.952 87.4955 176.818H89.4955ZM102.617 116.379C111.361 99.602 123.251 86.7988 138.284 77.9349L137.268 76.2121C121.886 85.2815 109.746 98.3739 100.843 115.455L102.617 116.379ZM138.284 77.9349C153.324 69.067 170.362 64.6236 189.424 64.6236V62.6236C170.037 62.6236 152.643 67.1468 137.268 76.2121L138.284 77.9349ZM189.424 64.6236C201.596 64.6236 212.895 66.3318 223.33 69.7389L223.951 67.8377C213.296 64.3586 201.784 62.6236 189.424 62.6236V64.6236ZM223.33 69.7389C233.764 73.1461 243.052 78.1463 251.203 84.7374L252.46 83.1823C244.112 76.4311 234.606 71.317 223.951 67.8377L223.33 69.7389ZM251.207 84.7407C259.35 91.2552 266.045 99.2585 271.292 108.761L273.043 107.794C267.674 98.0717 260.812 89.8634 252.456 83.179L251.207 84.7407ZM271.297 108.769C276.607 118.185 280.086 128.964 281.721 141.121L283.704 140.854C282.039 128.478 278.489 117.451 273.039 107.786L271.297 108.769ZM285.939 287H284.939V288H285.939V287ZM285.939 66.6364V65.6364H284.939V66.6364H285.939ZM429.262 66.6364H430.262V65.6364H429.262V66.6364ZM429.262 100.1V101.1H430.262V100.1H429.262ZM325.859 100.1V99.0998H324.859V100.1H325.859ZM325.859 159.925H324.859V160.925H325.859V159.925ZM421.837 159.925H422.837V158.925H421.837V159.925ZM421.837 193.388V194.388H422.837V193.388H421.837ZM325.859 193.388V192.388H324.859V193.388H325.859ZM325.859 253.537H324.859V254.537H325.859V253.537ZM430.123 253.537H431.123V252.537H430.123V253.537ZM430.123 287V288H431.123V287H430.123ZM286.939 287V66.6364H284.939V287H286.939ZM285.939 67.6364H429.262V65.6364H285.939V67.6364ZM428.262 66.6364V100.1H430.262V66.6364H428.262ZM429.262 99.0998H325.859V101.1H429.262V99.0998ZM324.859 100.1V159.925H326.859V100.1H324.859ZM325.859 160.925H421.837V158.925H325.859V160.925ZM420.837 159.925V193.388H422.837V159.925H420.837ZM421.837 192.388H325.859V194.388H421.837V192.388ZM324.859 193.388V253.537H326.859V193.388H324.859ZM325.859 254.537H430.123V252.537H325.859V254.537ZM429.123 253.537V287H431.123V253.537H429.123ZM430.123 286H285.939V288H430.123V286ZM436.658 287H435.658V288H436.658V287ZM436.658 66.6364V65.6364H435.658V66.6364H436.658ZM476.578 66.6364H477.578V65.6364H476.578V66.6364ZM476.578 253.537H475.578V254.537H476.578V253.537ZM573.632 253.537H574.632V252.537H573.632V253.537ZM573.632 287V288H574.632V287H573.632ZM437.658 287V66.6364H435.658V287H437.658ZM436.658 67.6364H476.578V65.6364H436.658V67.6364ZM475.578 66.6364V253.537H477.578V66.6364H475.578ZM476.578 254.537H573.632V252.537H476.578V254.537ZM572.632 253.537V287H574.632V253.537H572.632ZM573.632 286H436.658V288H573.632V286ZM574.949 287H573.949V288H574.949V287ZM574.949 66.6364V65.6364H573.949V66.6364H574.949ZM718.272 66.6364H719.272V65.6364H718.272V66.6364ZM718.272 100.1V101.1H719.272V100.1H718.272ZM614.869 100.1V99.0998H613.869V100.1H614.869ZM614.869 159.925H613.869V160.925H614.869V159.925ZM710.847 159.925H711.847V158.925H710.847V159.925ZM710.847 193.388V194.388H711.847V193.388H710.847ZM614.869 193.388V192.388H613.869V193.388H614.869ZM614.869 253.537H613.869V254.537H614.869V253.537ZM719.133 253.537H720.133V252.537H719.133V253.537ZM719.133 287V288H720.133V287H719.133ZM575.949 287V66.6364H573.949V287H575.949ZM574.949 67.6364H718.272V65.6364H574.949V67.6364ZM717.272 66.6364V100.1H719.272V66.6364H717.272ZM718.272 99.0998H614.869V101.1H718.272V99.0998ZM613.869 100.1V159.925H615.869V100.1H613.869ZM614.869 160.925H710.847V158.925H614.869V160.925ZM709.847 159.925V193.388H711.847V159.925H709.847ZM710.847 192.388H614.869V194.388H710.847V192.388ZM613.869 193.388V253.537H615.869V193.388H613.869ZM614.869 254.537H719.133V252.537H614.869V254.537ZM718.133 253.537V287H720.133V253.537H718.133ZM719.133 286H574.949V288H719.133V286ZM845.426 127.215L844.432 127.321L844.527 128.215H845.426V127.215ZM832.73 105.265L832.151 106.08L832.155 106.083L832.73 105.265ZM782.481 101.176L782.869 102.097L782.869 102.097L782.481 101.176ZM768.815 111.398L768.009 110.806L768.009 110.806L768.815 111.398ZM763.973 126.139L762.973 126.126V126.139H763.973ZM767.094 138.082L766.243 138.607L766.247 138.614L766.251 138.62L767.094 138.082ZM775.809 146.69L775.266 147.53L775.278 147.537L775.809 146.69ZM787.968 152.501L787.634 153.443L787.634 153.443L787.968 152.501ZM801.418 156.482L801.661 155.512L801.65 155.509L801.418 156.482ZM822.077 161.647L821.835 162.617L821.843 162.619L821.85 162.621L822.077 161.647ZM846.072 169.501L845.677 170.42L845.68 170.421L846.072 169.501ZM866.839 181.983L866.203 182.755L866.207 182.759L866.839 181.983ZM876.953 259.239L877.781 259.8L877.783 259.797L876.953 259.239ZM848.331 282.158L848.734 283.074L848.736 283.072L848.331 282.158ZM758.593 282.373L758.204 283.294L758.206 283.295L758.593 282.373ZM729.111 259.132L728.288 259.7L728.291 259.704L729.111 259.132ZM717.706 221.902V220.902H716.666L716.706 221.942L717.706 221.902ZM756.98 221.902L757.977 221.828L757.908 220.902H756.98V221.902ZM764.081 241.055L764.856 240.422L764.856 240.422L764.081 241.055ZM780.329 252.461L779.976 253.397L779.98 253.398L780.329 252.461ZM825.736 252.353L826.103 253.283L826.109 253.281L825.736 252.353ZM841.23 241.378L842.011 242.003L842.015 241.997L841.23 241.378ZM846.933 224.808L847.933 224.819L847.933 224.807L847.933 224.795L846.933 224.808ZM841.875 210.604L841.12 211.26L841.126 211.267L841.875 210.604ZM827.995 201.136L827.593 202.051L827.6 202.054L827.607 202.057L827.995 201.136ZM807.336 194.249L807.087 195.218L807.089 195.218L807.336 194.249ZM782.265 187.793L782.515 186.825L782.514 186.825L782.265 187.793ZM739.226 166.596L738.552 167.336L738.557 167.34L739.226 166.596ZM734.061 94.5046L733.252 93.9161L733.25 93.92L734.061 94.5046ZM763.005 71.8011L763.409 72.7161L763.413 72.714L763.005 71.8011ZM845.534 71.8011L845.113 72.7085L845.12 72.7115L845.534 71.8011ZM873.402 94.2894L872.583 94.8637L872.585 94.8666L873.402 94.2894ZM883.839 127.215V128.215H884.857L884.839 127.198L883.839 127.215ZM846.421 127.109C845.387 117.437 841.01 109.855 833.304 104.446L832.155 106.083C839.369 111.147 843.457 118.199 844.432 127.321L846.421 127.109ZM833.308 104.449C825.705 99.0604 815.873 96.4098 803.893 96.4098V98.4098C815.585 98.4098 824.977 100.996 832.151 106.08L833.308 104.449ZM803.893 96.4098C795.475 96.4098 788.199 97.6792 782.092 100.254L782.869 102.097C788.67 99.651 795.669 98.4098 803.893 98.4098V96.4098ZM782.092 100.254C776.007 102.82 771.293 106.329 768.009 110.806L769.622 111.989C772.651 107.859 777.047 104.552 782.869 102.097L782.092 100.254ZM768.009 110.806C764.725 115.284 763.048 120.402 762.974 126.126L764.973 126.152C765.043 120.829 766.593 116.119 769.622 111.989L768.009 110.806ZM762.973 126.139C762.973 130.885 764.051 135.054 766.243 138.607L767.945 137.557C765.977 134.367 764.973 130.574 764.973 126.139H762.973ZM766.251 138.62C768.487 142.123 771.498 145.092 775.266 147.53L776.353 145.851C772.804 143.554 770.005 140.784 767.937 137.544L766.251 138.62ZM775.278 147.537C779.004 149.875 783.124 151.843 787.634 153.443L788.303 151.558C783.918 150.002 779.932 148.096 776.341 145.843L775.278 147.537ZM787.634 153.443C792.114 155.033 796.632 156.37 801.186 157.455L801.65 155.509C797.166 154.441 792.717 153.125 788.303 151.558L787.634 153.443ZM801.176 157.452L821.835 162.617L822.32 160.677L801.661 155.512L801.176 157.452ZM821.85 162.621C830.115 164.544 838.057 167.144 845.677 170.42L846.467 168.583C838.736 165.259 830.681 162.623 822.304 160.673L821.85 162.621ZM845.68 170.421C853.345 173.686 860.184 177.798 866.203 182.755L867.474 181.211C861.298 176.125 854.293 171.916 846.464 168.581L845.68 170.421ZM866.207 182.759C872.267 187.691 877.056 193.642 880.579 200.618L882.365 199.716C878.715 192.489 873.748 186.317 867.47 181.207L866.207 182.759ZM880.579 200.618C884.083 207.555 885.852 215.716 885.852 225.13H887.852C887.852 215.464 886.035 206.983 882.365 199.716L880.579 200.618ZM885.852 225.13C885.852 237.863 882.601 249.034 876.123 258.682L877.783 259.797C884.503 249.79 887.852 238.222 887.852 225.13H885.852ZM876.125 258.679C869.646 268.256 860.264 275.784 847.927 281.244L848.736 283.072C861.361 277.485 871.061 269.734 877.781 259.8L876.125 258.679ZM847.929 281.242C835.678 286.624 820.795 289.336 803.247 289.336V291.336C820.992 291.336 836.165 288.595 848.734 283.074L847.929 281.242ZM803.247 289.336C786.204 289.336 771.457 286.697 758.981 281.451L758.206 283.295C770.98 288.666 786.002 291.336 803.247 291.336V289.336ZM758.983 281.452C746.586 276.21 736.915 268.576 729.932 258.56L728.291 259.704C735.511 270.059 745.495 277.92 758.204 283.294L758.983 281.452ZM729.934 258.564C723.031 248.56 719.273 236.342 718.705 221.863L716.706 221.942C717.286 236.729 721.132 249.331 728.288 259.7L729.934 258.564ZM717.706 222.902H756.98V220.902H717.706V222.902ZM755.982 221.977C756.569 229.821 758.995 236.41 763.307 241.688L764.856 240.422C760.846 235.514 758.538 229.335 757.977 221.828L755.982 221.977ZM763.307 241.688C767.588 246.929 773.154 250.829 779.976 253.396L780.681 251.525C774.16 249.071 768.895 245.368 764.856 240.422L763.307 241.688ZM779.98 253.398C786.85 255.956 794.503 257.227 802.924 257.227V255.227C794.704 255.227 787.293 253.987 780.678 251.523L779.98 253.398ZM802.924 257.227C811.701 257.227 819.435 255.921 826.103 253.283L825.368 251.423C818.981 253.95 811.507 255.227 802.924 255.227V257.227ZM826.109 253.281C832.837 250.575 838.154 246.823 842.011 242.003L840.449 240.753C836.845 245.258 831.833 248.823 825.362 251.425L826.109 253.281ZM842.015 241.997C845.889 237.08 847.858 231.341 847.933 224.819L845.933 224.796C845.863 230.899 844.031 236.207 840.444 240.759L842.015 241.997ZM847.933 224.795C847.858 218.855 846.107 213.879 842.624 209.942L841.126 211.267C844.243 214.79 845.863 219.282 845.933 224.82L847.933 224.795ZM842.631 209.949C839.206 206.004 834.44 202.768 828.384 200.214L827.607 202.057C833.458 204.525 837.945 207.602 841.12 211.26L842.631 209.949ZM828.397 200.22C822.454 197.611 815.513 195.299 807.583 193.28L807.089 195.218C814.94 197.217 821.772 199.496 827.593 202.051L828.397 200.22ZM807.585 193.281L782.515 186.825L782.016 188.762L807.087 195.218L807.585 193.281ZM782.514 186.825C764.473 182.19 750.287 175.185 739.894 165.852L738.557 167.34C749.254 176.945 763.761 184.072 782.017 188.762L782.514 186.825ZM739.899 165.857C729.659 156.529 724.516 144.149 724.516 128.614H722.516C722.516 144.641 727.846 157.583 738.552 167.335L739.899 165.857ZM724.516 128.614C724.516 115.822 727.975 104.661 734.872 95.0892L733.25 93.92C726.087 103.86 722.516 115.438 722.516 128.614H724.516ZM734.869 95.0931C741.856 85.4946 751.358 78.0325 763.409 72.716L762.601 70.8862C750.263 76.3297 740.468 84.0032 733.252 93.9161L734.869 95.0931ZM763.413 72.714C775.461 67.328 789.127 64.6236 804.431 64.6236V62.6236C788.889 62.6236 774.938 65.3709 762.597 70.8882L763.413 72.714ZM804.431 64.6236C819.953 64.6236 833.505 67.3291 845.113 72.7084L845.954 70.8938C834.034 65.3698 820.184 62.6236 804.431 62.6236V64.6236ZM845.12 72.7115C856.811 78.0257 865.954 85.4129 872.583 94.8637L874.221 93.7151C867.365 83.9414 857.928 76.3365 845.948 70.8908L845.12 72.7115ZM872.585 94.8666C879.205 104.233 882.627 115.01 882.839 127.232L884.839 127.198C884.621 114.6 881.085 103.427 874.219 93.7122L872.585 94.8666ZM883.839 126.215H845.426V128.215H883.839V126.215ZM879.427 100.1H878.427V101.1H879.427V100.1ZM879.427 66.6364V65.6364H878.427V66.6364H879.427ZM1055.24 66.6364H1056.24V65.6364H1055.24V66.6364ZM1055.24 100.1V101.1H1056.24V100.1H1055.24ZM987.134 100.1V99.0998H986.134V100.1H987.134ZM987.134 287V288H988.134V287H987.134ZM947.537 287H946.537V288H947.537V287ZM947.537 100.1H948.537V99.0998H947.537V100.1ZM880.427 100.1V66.6364H878.427V100.1H880.427ZM879.427 67.6364H1055.24V65.6364H879.427V67.6364ZM1054.24 66.6364V100.1H1056.24V66.6364H1054.24ZM1055.24 99.0998H987.134V101.1H1055.24V99.0998ZM986.134 100.1V287H988.134V100.1H986.134ZM987.134 286H947.537V288H987.134V286ZM948.537 287V100.1H946.537V287H948.537ZM947.537 99.0998H879.427V101.1H947.537V99.0998ZM1095.73 66.6364H1096.73V65.6364H1095.73V66.6364ZM1095.73 287V288H1096.73V287H1095.73ZM1055.81 287H1054.81V288H1055.81V287ZM1055.81 66.6364V65.6364H1054.81V66.6364H1055.81ZM1094.73 66.6364V287H1096.73V66.6364H1094.73ZM1095.73 286H1055.81V288H1095.73V286ZM1056.81 287V66.6364H1054.81V287H1056.81ZM1055.81 67.6364H1095.73V65.6364H1055.81V67.6364ZM1133.92 287V288H1134.64L1134.87 287.318L1133.92 287ZM1091.31 287L1090.37 286.668L1089.9 288H1091.31V287ZM1168.89 66.6364V65.6364H1168.19L1167.95 66.3043L1168.89 66.6364ZM1218.17 66.6364L1219.12 66.3039L1218.88 65.6364H1218.17V66.6364ZM1295.86 287V288H1297.27L1296.8 286.668L1295.86 287ZM1253.25 287L1252.3 287.318L1252.53 288H1253.25V287ZM1194.39 111.828L1195.34 111.51L1195.11 110.828H1194.39V111.828ZM1192.67 111.828V110.828H1191.95L1191.73 111.51L1192.67 111.828ZM1135.32 200.598V199.598H1134.32V200.598H1135.32ZM1251.53 200.598H1252.53V199.598H1251.53V200.598ZM1251.53 232.662V233.662H1252.53V232.662H1251.53ZM1135.32 232.662H1134.32V233.662H1135.32V232.662ZM1133.92 286H1091.31V288H1133.92V286ZM1092.26 287.332L1169.84 66.9684L1167.95 66.3043L1090.37 286.668L1092.26 287.332ZM1168.89 67.6364H1218.17V65.6364H1168.89V67.6364ZM1217.23 66.9688L1294.92 287.332L1296.8 286.668L1219.12 66.3039L1217.23 66.9688ZM1295.86 286H1253.25V288H1295.86V286ZM1254.2 286.682L1195.34 111.51L1193.45 112.147L1252.3 287.318L1254.2 286.682ZM1194.39 110.828H1192.67V112.828H1194.39V110.828ZM1191.73 111.51L1132.98 286.682L1134.87 287.318L1193.62 112.146L1191.73 111.51ZM1135.32 201.598H1251.53V199.598H1135.32V201.598ZM1250.53 200.598V232.662H1252.53V200.598H1250.53ZM1251.53 231.662H1135.32V233.662H1251.53V231.662ZM1136.32 232.662V200.598H1134.32V232.662H1136.32ZM1291.56 287H1290.56V288H1291.56V287ZM1291.56 66.6364V65.6364H1290.56V66.6364H1291.56ZM1331.48 66.6364H1332.48V65.6364H1331.48V66.6364ZM1331.48 253.537H1330.48V254.537H1331.48V253.537ZM1428.53 253.537H1429.53V252.537H1428.53V253.537ZM1428.53 287V288H1429.53V287H1428.53ZM1292.56 287V66.6364H1290.56V287H1292.56ZM1291.56 67.6364H1331.48V65.6364H1291.56V67.6364ZM1330.48 66.6364V253.537H1332.48V66.6364H1330.48ZM1331.48 254.537H1428.53V252.537H1331.48V254.537ZM1427.53 253.537V287H1429.53V253.537H1427.53ZM1428.53 286H1291.56V288H1428.53V286ZM1449.03 66.6364H1450.03V65.6364H1449.03V66.6364ZM1445.37 108.277L1444.43 107.94L1444.42 107.946L1445.37 108.277ZM1435.58 127.645L1436.4 128.209L1436.41 128.204L1435.58 127.645ZM1421.37 143.355L1420.83 144.194L1421.44 144.593L1422.01 144.126L1421.37 143.355ZM1403.3 131.626L1402.46 131.074L1401.91 131.916L1402.75 132.465L1403.3 131.626ZM1413.63 112.366L1414.55 112.759L1414.55 112.755L1413.63 112.366ZM1418.04 66.6364V65.6364H1417.04V66.6364H1418.04ZM1503.36 66.6364H1504.36V65.6364H1503.36V66.6364ZM1499.71 108.277L1498.76 107.94L1498.76 107.946L1499.71 108.277ZM1489.91 127.645L1490.74 128.209L1490.74 128.204L1489.91 127.645ZM1475.82 143.355L1475.27 144.194L1475.89 144.595L1476.46 144.122L1475.82 143.355ZM1457.74 131.626L1456.9 131.081L1456.36 131.92L1457.2 132.465L1457.74 131.626ZM1467.96 112.366L1468.88 112.759L1468.89 112.755L1467.96 112.366ZM1472.38 66.6364V65.6364H1471.38V66.6364H1472.38ZM1448.03 66.6364V88.5866H1450.03V66.6364H1448.03ZM1448.03 88.5866C1448.03 94.7688 1446.83 101.218 1444.43 107.94L1446.31 108.614C1448.78 101.707 1450.03 95.0295 1450.03 88.5866H1448.03ZM1444.42 107.946C1442.09 114.605 1438.86 120.985 1434.75 127.086L1436.41 128.204C1440.61 121.968 1443.92 115.435 1446.31 108.609L1444.42 107.946ZM1434.75 127.082C1430.64 133.107 1425.97 138.272 1420.74 142.583L1422.01 144.126C1427.4 139.686 1432.19 134.378 1436.4 128.209L1434.75 127.082ZM1421.92 142.516L1403.84 130.788L1402.75 132.465L1420.83 144.194L1421.92 142.516ZM1404.13 132.179C1408.11 126.172 1411.58 119.698 1414.55 112.759L1412.71 111.973C1409.79 118.807 1406.37 125.173 1402.46 131.074L1404.13 132.179ZM1414.55 112.755C1417.55 105.656 1419.04 97.666 1419.04 88.8018H1417.04C1417.04 97.4405 1415.59 105.16 1412.71 111.977L1414.55 112.755ZM1419.04 88.8018V66.6364H1417.04V88.8018H1419.04ZM1418.04 67.6364H1449.03V65.6364H1418.04V67.6364ZM1502.36 66.6364V88.5866H1504.36V66.6364H1502.36ZM1502.36 88.5866C1502.36 94.7688 1501.17 101.218 1498.76 107.94L1500.65 108.614C1503.12 101.707 1504.36 95.0295 1504.36 88.5866H1502.36ZM1498.76 107.946C1496.42 114.605 1493.2 120.985 1489.09 127.086L1490.74 128.204C1494.95 121.968 1498.25 115.435 1500.65 108.609L1498.76 107.946ZM1489.09 127.082C1484.98 133.109 1480.34 138.275 1475.18 142.587L1476.46 144.122C1481.77 139.683 1486.53 134.376 1490.74 128.209L1489.09 127.082ZM1476.36 142.516L1458.29 130.788L1457.2 132.465L1475.27 144.194L1476.36 142.516ZM1458.58 132.172C1462.49 126.167 1465.92 119.696 1468.88 112.759L1467.04 111.973C1464.13 118.809 1460.74 125.178 1456.9 131.081L1458.58 132.172ZM1468.89 112.755C1471.89 105.656 1473.38 97.666 1473.38 88.8018H1471.38C1471.38 97.4405 1469.92 105.16 1467.04 111.977L1468.89 112.755ZM1473.38 88.8018V66.6364H1471.38V88.8018H1473.38ZM1472.38 67.6364H1503.36V65.6364H1472.38V67.6364ZM1583.28 277.746L1582.7 278.56L1582.71 278.563L1583.28 277.746ZM1554.12 238.688L1553.19 239.055L1553.19 239.06L1554.12 238.688ZM1544.01 177.033L1543.01 177.03V177.033H1544.01ZM1554.23 115.702L1553.3 115.328L1553.3 115.33L1554.23 115.702ZM1583.39 76.9659L1582.82 76.1469L1582.81 76.1484L1583.39 76.9659ZM1674.42 76.9659L1673.84 77.7849L1673.84 77.7849L1674.42 76.9659ZM1703.58 115.702L1702.65 116.072L1702.65 116.075L1703.58 115.702ZM1703.58 238.795L1702.65 238.425L1702.65 238.427L1703.58 238.795ZM1674.42 277.746L1673.84 276.93L1673.84 276.931L1674.42 277.746ZM1661.51 237.181L1660.65 236.674L1660.64 236.675L1661.51 237.181ZM1668.07 132.918L1669.03 132.624L1669.03 132.624L1668.07 132.918ZM1652.58 106.018L1651.9 106.756L1651.91 106.76L1652.58 106.018ZM1596.41 117.316L1597.27 117.822L1597.27 117.82L1596.41 117.316ZM1584.36 177.033L1585.36 177.037L1585.36 177.036L1584.36 177.033ZM1589.63 221.364L1588.67 221.651L1588.67 221.656L1589.63 221.364ZM1605.12 248.479L1604.45 249.218L1604.45 249.222L1605.12 248.479ZM1628.9 290.196C1611.36 290.196 1596.36 285.761 1583.86 276.93L1582.71 278.563C1595.59 287.665 1611.01 292.196 1628.9 292.196V290.196ZM1583.86 276.933C1571.42 268.025 1561.81 255.172 1555.05 238.316L1553.19 239.06C1560.07 256.205 1569.89 269.392 1582.7 278.56L1583.86 276.933ZM1555.05 238.321C1548.37 221.395 1545.01 200.975 1545.01 177.033H1543.01C1543.01 201.153 1546.39 221.836 1553.19 239.055L1555.05 238.321ZM1545.01 177.036C1545.08 153.093 1548.47 132.782 1555.16 116.073L1553.3 115.33C1546.5 132.336 1543.08 152.912 1543.01 177.03L1545.01 177.036ZM1555.16 116.075C1561.91 99.2919 1571.52 86.5484 1583.97 77.7834L1582.81 76.1484C1570 85.1732 1560.18 98.2535 1553.3 115.328L1555.16 116.075ZM1583.96 77.7849C1596.47 69.0237 1611.43 64.6236 1628.9 64.6236V62.6236C1611.08 62.6236 1595.7 67.1184 1582.82 76.1469L1583.96 77.7849ZM1628.9 64.6236C1646.37 64.6236 1661.34 69.0237 1673.84 77.7849L1674.99 76.1469C1662.1 67.1184 1646.73 62.6236 1628.9 62.6236V64.6236ZM1673.84 77.7849C1686.36 86.5495 1695.97 99.2914 1702.65 116.072L1704.51 115.332C1697.7 98.254 1687.88 85.1721 1674.99 76.1469L1673.84 77.7849ZM1702.65 116.075C1709.4 132.855 1712.8 153.165 1712.8 177.033H1714.8C1714.8 152.985 1711.38 132.407 1704.51 115.328L1702.65 116.075ZM1712.8 177.033C1712.8 201.046 1709.4 221.501 1702.65 238.425L1704.51 239.166C1711.38 221.945 1714.8 201.225 1714.8 177.033H1712.8ZM1702.65 238.427C1695.96 255.28 1686.35 268.094 1673.84 276.93L1675 278.563C1687.88 269.466 1697.71 256.313 1704.51 239.164L1702.65 238.427ZM1673.84 276.931C1661.41 285.761 1646.45 290.196 1628.9 290.196V292.196C1646.8 292.196 1662.18 287.665 1675 278.562L1673.84 276.931ZM1628.9 258.518C1643.09 258.518 1654.26 251.499 1662.37 237.688L1660.64 236.675C1652.83 249.979 1642.27 256.518 1628.9 256.518V258.518ZM1662.37 237.689C1670.53 223.835 1674.56 203.575 1674.56 177.033H1672.56C1672.56 203.431 1668.55 223.27 1660.65 236.674L1662.37 237.689ZM1674.56 177.033C1674.56 159.468 1672.72 144.657 1669.03 132.624L1667.11 133.211C1670.73 144.994 1672.56 159.593 1672.56 177.033H1674.56ZM1669.03 132.624C1665.33 120.607 1660.09 111.46 1653.25 105.276L1651.91 106.76C1658.4 112.627 1663.49 121.412 1667.11 133.211L1669.03 132.624ZM1653.25 105.28C1646.39 99.0124 1638.26 95.8718 1628.9 95.8718V97.8718C1637.77 97.8718 1645.42 100.829 1651.9 106.756L1653.25 105.28ZM1628.9 95.8718C1614.79 95.8718 1603.65 102.931 1595.55 116.811L1597.27 117.82C1605.09 104.442 1615.62 97.8718 1628.9 97.8718V95.8718ZM1595.55 116.809C1587.45 130.59 1583.43 150.704 1583.36 177.031L1585.36 177.036C1585.43 150.854 1589.44 131.156 1597.27 117.822L1595.55 116.809ZM1583.36 177.029C1583.29 194.666 1585.05 209.548 1588.67 221.651L1590.59 221.078C1587.04 209.222 1585.29 194.55 1585.36 177.037L1583.36 177.029ZM1588.67 221.656C1592.37 233.744 1597.61 242.962 1604.45 249.218L1605.8 247.741C1599.3 241.803 1594.21 232.944 1590.59 221.072L1588.67 221.656ZM1604.45 249.222C1611.31 255.417 1619.48 258.518 1628.9 258.518V256.518C1619.96 256.518 1612.28 253.593 1605.79 247.737L1604.45 249.222ZM1753.99 282.05L1753.58 282.965L1753.58 282.966L1753.99 282.05ZM1725.58 259.885L1726.39 259.293L1726.39 259.293L1725.58 259.885ZM1714.5 227.067V226.067H1713.46L1713.5 227.102L1714.5 227.067ZM1754.96 227.067L1755.95 227.007L1755.9 226.067H1754.96V227.067ZM1760.87 242.669L1760.1 243.297L1760.1 243.303L1760.87 242.669ZM1775.18 252.891L1774.81 253.816L1774.81 253.816L1775.18 252.891ZM1816.18 252.461L1816.59 253.374L1816.6 253.369L1816.18 252.461ZM1830.49 240.84L1829.67 240.269L1829.67 240.269L1830.49 240.84ZM1835.55 223.732L1834.55 223.721L1834.55 223.732L1834.55 223.743L1835.55 223.732ZM1830.38 206.085L1829.56 206.653L1829.56 206.653L1830.38 206.085ZM1815.1 194.142L1814.7 195.059L1814.71 195.06L1815.1 194.142ZM1771.74 189.838H1770.74V190.838H1771.74V189.838ZM1771.74 159.064V158.064H1770.74V159.064H1771.74ZM1811.34 155.083L1810.92 154.173L1810.92 154.175L1811.34 155.083ZM1825 143.893L1825.83 144.459L1825.83 144.453L1825 143.893ZM1829.84 127L1828.84 126.988L1828.84 127L1828.84 127.011L1829.84 127ZM1825.65 110.752L1824.79 111.267L1824.8 111.274L1824.8 111.282L1825.65 110.752ZM1813.7 99.8846L1813.25 100.776L1813.26 100.779L1813.7 99.8846ZM1777.01 99.6694L1777.4 100.59L1777.4 100.59L1777.01 99.6694ZM1763.13 110.107L1763.92 110.727L1763.92 110.72L1763.13 110.107ZM1757.54 126.031V127.031H1758.5L1758.54 126.066L1757.54 126.031ZM1719.12 126.031L1718.13 126.008L1718.1 127.031H1719.12V126.031ZM1729.78 93.5362L1728.97 92.9451L1728.97 92.9462L1729.78 93.5362ZM1757.32 71.5859L1757.74 72.4957L1757.74 72.4936L1757.32 71.5859ZM1834.26 71.9087L1833.8 72.7996L1833.81 72.8032L1834.26 71.9087ZM1859.54 93.9666L1858.7 94.5077L1858.7 94.5077L1859.54 93.9666ZM1868.47 124.632L1867.47 124.632L1867.47 124.638L1868.47 124.632ZM1857.5 155.836L1856.75 155.176L1856.74 155.179L1857.5 155.836ZM1828.66 172.299L1828.45 171.322L1827.66 171.493V172.299H1828.66ZM1828.66 174.021H1827.66V174.891L1828.52 175.011L1828.66 174.021ZM1864.28 191.236L1863.53 191.899L1863.53 191.905L1864.28 191.236ZM1876.65 225.776L1875.65 225.771V225.776H1876.65ZM1866.11 258.917L1865.29 258.332L1865.29 258.333L1866.11 258.917ZM1837.27 281.728L1836.86 280.816L1836.86 280.817L1837.27 281.728ZM1795.31 289.013C1779.93 289.013 1766.29 286.379 1754.39 281.135L1753.58 282.966C1765.78 288.339 1779.7 291.013 1795.31 291.013V289.013ZM1754.39 281.136C1742.55 275.89 1733.23 268.605 1726.39 259.293L1724.78 260.477C1731.85 270.102 1741.46 277.594 1753.58 282.965L1754.39 281.136ZM1726.39 259.293C1719.55 249.996 1715.92 239.253 1715.5 227.032L1713.5 227.102C1713.94 239.701 1717.69 250.837 1724.78 260.477L1726.39 259.293ZM1714.5 228.067H1754.96V226.067H1714.5V228.067ZM1753.96 227.127C1754.33 233.279 1756.37 238.68 1760.1 243.297L1761.65 242.041C1758.2 237.763 1756.3 232.763 1755.95 227.007L1753.96 227.127ZM1760.1 243.303C1763.81 247.824 1768.72 251.323 1774.81 253.816L1775.56 251.966C1769.74 249.581 1765.11 246.266 1761.65 242.035L1760.1 243.303ZM1774.81 253.816C1780.9 256.311 1787.7 257.549 1795.2 257.549V255.549C1787.92 255.549 1781.38 254.348 1775.56 251.966L1774.81 253.816ZM1795.2 257.549C1803.2 257.549 1810.34 256.166 1816.59 253.374L1815.77 251.548C1809.82 254.207 1802.97 255.549 1795.2 255.549V257.549ZM1816.6 253.369C1822.84 250.506 1827.75 246.523 1831.31 241.411L1829.67 240.269C1826.34 245.056 1821.72 248.82 1815.76 251.552L1816.6 253.369ZM1831.31 241.411C1834.88 236.278 1836.62 230.369 1836.55 223.72L1834.55 223.743C1834.62 230.006 1832.99 235.502 1829.67 240.269L1831.31 241.411ZM1836.55 223.742C1836.62 216.882 1834.85 210.794 1831.21 205.517L1829.56 206.653C1832.95 211.563 1834.62 217.239 1834.55 223.721L1836.55 223.742ZM1831.21 205.517C1827.57 200.244 1822.31 196.154 1815.5 193.223L1814.71 195.06C1821.24 197.868 1826.17 201.74 1829.56 206.653L1831.21 205.517ZM1815.5 193.225C1808.75 190.287 1800.64 188.838 1791.22 188.838V190.838C1800.44 190.838 1808.26 192.258 1814.7 195.059L1815.5 193.225ZM1791.22 188.838H1771.74V190.838H1791.22V188.838ZM1772.74 189.838V159.064H1770.74V189.838H1772.74ZM1771.74 160.064H1791.22V158.064H1771.74V160.064ZM1791.22 160.064C1799.01 160.064 1805.86 158.717 1811.76 155.991L1810.92 154.175C1805.34 156.757 1798.78 158.064 1791.22 158.064V160.064ZM1811.75 155.993C1817.71 153.271 1822.42 149.428 1825.83 144.459L1824.18 143.327C1820.99 147.969 1816.58 151.587 1810.92 154.173L1811.75 155.993ZM1825.83 144.453C1829.25 139.392 1830.92 133.558 1830.84 126.988L1828.84 127.011C1828.91 133.21 1827.35 138.638 1824.17 143.332L1825.83 144.453ZM1830.84 127.011C1830.92 120.609 1829.48 114.999 1826.5 110.222L1824.8 111.282C1827.55 115.687 1828.91 120.909 1828.84 126.988L1830.84 127.011ZM1826.51 110.238C1823.6 105.402 1819.48 101.652 1814.15 98.9902L1813.26 100.779C1818.26 103.282 1822.1 106.777 1824.79 111.267L1826.51 110.238ZM1814.16 98.9927C1808.9 96.326 1802.75 95.011 1795.74 95.011V97.011C1802.5 97.011 1808.33 98.2783 1813.25 100.776L1814.16 98.9927ZM1795.74 95.011C1788.87 95.011 1782.49 96.2534 1776.62 98.749L1777.4 100.59C1783.01 98.2075 1789.12 97.011 1795.74 97.011V95.011ZM1776.62 98.749C1770.74 101.248 1765.97 104.827 1762.34 109.493L1763.92 110.72C1767.32 106.347 1771.81 102.968 1777.4 100.59L1776.62 98.749ZM1762.35 109.486C1758.69 114.116 1756.76 119.634 1756.54 125.996L1758.54 126.066C1758.75 120.09 1760.55 114.992 1763.92 110.727L1762.35 109.486ZM1757.54 125.031H1719.12V127.031H1757.54V125.031ZM1720.12 126.054C1720.41 113.906 1723.9 103.275 1730.58 94.1262L1728.97 92.9462C1722.03 102.448 1718.42 113.481 1718.13 126.008L1720.12 126.054ZM1730.58 94.1273C1737.36 84.8796 1746.4 77.6673 1757.74 72.4957L1756.91 70.6762C1745.29 75.9776 1735.97 83.3988 1728.97 92.9451L1730.58 94.1273ZM1757.74 72.4936C1769.07 67.2536 1781.8 64.6236 1795.95 64.6236V62.6236C1781.55 62.6236 1768.53 65.3018 1756.9 70.6783L1757.74 72.4936ZM1795.95 64.6236C1810.53 64.6236 1823.14 67.3614 1833.8 72.7996L1834.71 71.0179C1823.71 65.4092 1810.78 62.6236 1795.95 62.6236V64.6236ZM1833.81 72.8032C1844.57 78.1835 1852.85 85.421 1858.7 94.5077L1860.38 93.4255C1854.32 84.0051 1845.75 76.5374 1834.7 71.0143L1833.81 72.8032ZM1858.7 94.5077C1864.55 103.597 1867.47 113.631 1867.47 124.632H1869.47C1869.47 113.254 1866.44 102.843 1860.38 93.4255L1858.7 94.5077ZM1867.47 124.638C1867.54 136.832 1863.96 146.988 1856.75 155.176L1858.25 156.497C1865.82 147.9 1869.55 137.253 1869.47 124.627L1867.47 124.638ZM1856.74 155.179C1849.58 163.394 1840.17 168.78 1828.45 171.322L1828.87 173.276C1840.97 170.653 1850.78 165.064 1858.25 156.493L1856.74 155.179ZM1827.66 172.299V174.021H1829.66V172.299H1827.66ZM1828.52 175.011C1843.84 177.139 1855.47 182.795 1863.53 191.899L1865.03 190.574C1856.58 181.028 1844.47 175.206 1828.8 173.03L1828.52 175.011ZM1863.53 191.905C1871.67 200.953 1875.72 212.218 1875.65 225.771L1877.65 225.781C1877.72 211.788 1873.53 200.027 1865.02 190.568L1863.53 191.905ZM1875.65 225.776C1875.65 237.91 1872.2 248.751 1865.29 258.332L1866.92 259.501C1874.07 249.571 1877.65 238.318 1877.65 225.776H1875.65ZM1865.29 258.333C1858.45 267.857 1848.99 275.355 1836.86 280.816L1837.68 282.639C1850.09 277.053 1859.84 269.344 1866.92 259.5L1865.29 258.333ZM1836.86 280.817C1824.81 286.272 1810.97 289.013 1795.31 289.013V291.013C1811.2 291.013 1825.34 288.23 1837.68 282.639L1836.86 280.817Z" fill="white" fill-opacity="0.01"/>
<path d="M887.611 67H879.301L903.335 1.54545H911.517L935.551 67H927.241L907.682 11.9006H907.17L887.611 67ZM890.679 41.4318H924.173V48.4631H890.679V41.4318ZM994.5 1.54545V67H986.829L951.162 15.608H950.523V67H942.596V1.54545H950.267L986.062 53.0653H986.702V1.54545H994.5ZM1051.95 22C1051.25 19.848 1050.32 17.9197 1049.17 16.2152C1048.04 14.4893 1046.69 13.0192 1045.11 11.8047C1043.56 10.5902 1041.79 9.66335 1039.81 9.02414C1037.83 8.38494 1035.65 8.06534 1033.29 8.06534C1029.41 8.06534 1025.89 9.06676 1022.71 11.0696C1019.54 13.0724 1017.01 16.0234 1015.14 19.9226C1013.26 23.8217 1012.32 28.6051 1012.32 34.2727C1012.32 39.9403 1013.27 44.7237 1015.17 48.6229C1017.06 52.522 1019.63 55.473 1022.87 57.4759C1026.11 59.4787 1029.75 60.4801 1033.8 60.4801C1037.55 60.4801 1040.85 59.6811 1043.71 58.0831C1046.59 56.4638 1048.82 54.1839 1050.42 51.2436C1052.04 48.282 1052.85 44.7983 1052.85 40.7926L1055.28 41.304H1035.59V34.2727H1060.52V41.304C1060.52 46.6946 1059.37 51.3821 1057.07 55.3665C1054.79 59.3509 1051.63 62.4403 1047.61 64.6349C1043.6 66.8082 1039 67.8949 1033.8 67.8949C1028.01 67.8949 1022.91 66.5312 1018.52 63.804C1014.16 61.0767 1010.75 57.1989 1008.3 52.1705C1005.87 47.142 1004.65 41.1761 1004.65 34.2727C1004.65 29.0952 1005.35 24.4396 1006.73 20.3061C1008.14 16.1513 1010.12 12.6143 1012.68 9.69531C1015.23 6.77628 1018.26 4.53906 1021.75 2.98366C1025.25 1.42827 1029.09 0.650566 1033.29 0.650566C1036.74 0.650566 1039.96 1.17258 1042.94 2.21662C1045.95 3.23934 1048.62 4.69886 1050.96 6.59517C1053.33 8.47017 1055.3 10.718 1056.88 13.3388C1058.45 15.9382 1059.54 18.8253 1060.14 22H1051.95ZM1070.94 67V1.54545H1110.45V8.5767H1078.87V30.6932H1108.4V37.7244H1078.87V59.9688H1110.96V67H1070.94ZM1121.58 67V1.54545H1129.51V59.9688H1159.94V67H1121.58ZM1176.99 1.54545V67H1169.06V1.54545H1176.99ZM1242.4 22H1234.47C1234 19.7202 1233.18 17.7173 1232.01 15.9915C1230.86 14.2656 1229.45 12.8168 1227.79 11.6449C1226.15 10.4517 1224.33 9.55682 1222.33 8.96023C1220.32 8.36364 1218.24 8.06534 1216.06 8.06534C1212.1 8.06534 1208.51 9.06676 1205.29 11.0696C1202.1 13.0724 1199.55 16.0234 1197.65 19.9226C1195.78 23.8217 1194.84 28.6051 1194.84 34.2727C1194.84 39.9403 1195.78 44.7237 1197.65 48.6229C1199.55 52.522 1202.1 55.473 1205.29 57.4759C1208.51 59.4787 1212.1 60.4801 1216.06 60.4801C1218.24 60.4801 1220.32 60.1818 1222.33 59.5852C1224.33 58.9886 1226.15 58.1044 1227.79 56.9325C1229.45 55.7393 1230.86 54.2798 1232.01 52.554C1233.18 50.8068 1234 48.804 1234.47 46.5455H1242.4C1241.8 49.8906 1240.71 52.8842 1239.14 55.5263C1237.56 58.1683 1235.6 60.4162 1233.26 62.2699C1230.91 64.1023 1228.28 65.4979 1225.36 66.4567C1222.47 67.4155 1219.37 67.8949 1216.06 67.8949C1210.48 67.8949 1205.52 66.5312 1201.17 63.804C1196.82 61.0767 1193.4 57.1989 1190.91 52.1705C1188.42 47.142 1187.17 41.1761 1187.17 34.2727C1187.17 27.3693 1188.42 21.4034 1190.91 16.375C1193.4 11.3466 1196.82 7.46875 1201.17 4.74148C1205.52 2.0142 1210.48 0.650566 1216.06 0.650566C1219.37 0.650566 1222.47 1.12997 1225.36 2.08878C1228.28 3.04758 1230.91 4.45383 1233.26 6.30753C1235.6 8.13991 1237.56 10.3771 1239.14 13.0192C1240.71 15.6399 1241.8 18.6335 1242.4 22ZM1318.96 22C1318.26 19.848 1317.33 17.9197 1316.18 16.2152C1315.05 14.4893 1313.7 13.0192 1312.12 11.8047C1310.57 10.5902 1308.8 9.66335 1306.82 9.02414C1304.84 8.38494 1302.66 8.06534 1300.3 8.06534C1296.42 8.06534 1292.89 9.06676 1289.72 11.0696C1286.54 13.0724 1284.02 16.0234 1282.14 19.9226C1280.27 23.8217 1279.33 28.6051 1279.33 34.2727C1279.33 39.9403 1280.28 44.7237 1282.18 48.6229C1284.07 52.522 1286.64 55.473 1289.88 57.4759C1293.12 59.4787 1296.76 60.4801 1300.81 60.4801C1304.56 60.4801 1307.86 59.6811 1310.72 58.0831C1313.59 56.4638 1315.83 54.1839 1317.43 51.2436C1319.05 48.282 1319.86 44.7983 1319.86 40.7926L1322.29 41.304H1302.6V34.2727H1327.53V41.304C1327.53 46.6946 1326.38 51.3821 1324.08 55.3665C1321.8 59.3509 1318.64 62.4403 1314.62 64.6349C1310.61 66.8082 1306.01 67.8949 1300.81 67.8949C1295.01 67.8949 1289.92 66.5312 1285.53 63.804C1281.16 61.0767 1277.76 57.1989 1275.3 52.1705C1272.88 47.142 1271.66 41.1761 1271.66 34.2727C1271.66 29.0952 1272.35 24.4396 1273.74 20.3061C1275.15 16.1513 1277.13 12.6143 1279.68 9.69531C1282.24 6.77628 1285.27 4.53906 1288.76 2.98366C1292.25 1.42827 1296.1 0.650566 1300.3 0.650566C1303.75 0.650566 1306.97 1.17258 1309.95 2.21662C1312.95 3.23934 1315.63 4.69886 1317.97 6.59517C1320.34 8.47017 1322.31 10.718 1323.88 13.3388C1325.46 15.9382 1326.55 18.8253 1327.14 22H1318.96ZM1338.62 67H1330.31L1354.34 1.54545H1362.52L1386.56 67H1378.25L1358.69 11.9006H1358.18L1338.62 67ZM1341.68 41.4318H1375.18V48.4631H1341.68V41.4318ZM1401.53 1.54545V67H1393.6V1.54545H1401.53ZM1466.17 1.54545V67H1458.5L1422.84 15.608H1422.2V67H1414.27V1.54545H1421.94L1457.74 53.0653H1458.38V1.54545H1466.17ZM1476.71 67V61.2472L1511.99 8.5767H1476.33V1.54545H1521.45V7.29829L1486.17 59.9688H1521.84V67H1476.71Z" fill="#141414"/>
</g>
<defs>
<clipPath id="clip0_101_3">
<rect width="1879" height="297" fill="white"/>
</clipPath>
</defs>
</svg>
